{
.appVersion = "983";
copyright = "Copyright © 2018 by Cadson Demak Co.,Ltd.. All rights reserved.";
customParameters = (
{
name = vendorID;
value = CDK;
},
{
name = description;
value = "Copyright (c) 2018, Cadson Demak (info@cadsondemak.com)";
},
{
name = license;

glyphs = (
{
color = 0;
glyphname = A;
lastChange = "2018-02-09 16:29:38 +0000";
layers = (
{
layerId = "0B1DFD06-3317-40CA-B510-4969A0718C16";
paths = (
{
closed = 1;
nodes = (
"305 332 LINE",
"342 442 OFFCURVE",
"402 602 OFFCURVE",
"469 632 CURVE",
"462 621 OFFCURVE",
"440 480 OFFCURVE",
"436 442 CURVE SMOOTH",
"432 409 OFFCURVE",
"429 366 OFFCURVE",
"429 311 CURVE",
"295 311 LINE"
);
},
{
closed = 1;
nodes = (
"517 78 OFFCURVE",
"520 81 OFFCURVE",
"518 85 CURVE",
"514 101 OFFCURVE",
"513 141 OFFCURVE",
"511 156 CURVE SMOOTH",
"504 246 OFFCURVE",
"503 354 OFFCURVE",
"508 457 CURVE SMOOTH",
"514 578 OFFCURVE",
"535 663 OFFCURVE",
"562 707 CURVE",
"527 707 LINE SMOOTH",
"515 707 OFFCURVE",
"433 714 OFFCURVE",
"410 714 CURVE SMOOTH",
"294 714 OFFCURVE",
"210 693 OFFCURVE",
"158 650 CURVE",
"97 596 OFFCURVE",
"62 528 OFFCURVE",
"57 447 CURVE SMOOTH",
"55 417 OFFCURVE",
"58 375 OFFCURVE",
"70 334 CURVE",
"146 419 LINE",
"133 449 OFFCURVE",
"129 481 OFFCURVE",
"132 514 CURVE SMOOTH",
"138 609 OFFCURVE",
"197 657 OFFCURVE",
"312 657 CURVE SMOOTH",
"351 657 OFFCURVE",
"391 653 OFFCURVE",
"429 645 CURVE",
"391 621 OFFCURVE",
"366 594 OFFCURVE",
"342 558 CURVE SMOOTH",
"315 518 OFFCURVE",
"285 453 OFFCURVE",
"246 332 CURVE SMOOTH",
"217 254 OFFCURVE",
"186 183 OFFCURVE",
"170 151 CURVE",
"155 122 OFFCURVE",
"122 77 OFFCURVE",
"75 58 CURVE",
"51 51 LINE",
"38 43 OFFCURVE",
"14 0 OFFCURVE",
"27 0 CURVE",
"24 0 OFFCURVE",
"77 18 OFFCURVE",
"78 18 CURVE",
"95 17 OFFCURVE",
"124 9 OFFCURVE",
"139 4 CURVE SMOOTH",
"145 3 OFFCURVE",
"149 1 OFFCURVE",
"152 1 CURVE",
"165 -3 OFFCURVE",
"190 4 OFFCURVE",
"224 43 CURVE",
"253 71 OFFCURVE",
"229 77 OFFCURVE",
"217 68 CURVE",
"210 64 OFFCURVE",
"196 60 OFFCURVE",
"192 60 CURVE SMOOTH",
"180 60 OFFCURVE",
"166 62 OFFCURVE",
"149 67 CURVE",
"178 91 LINE",
"213 125 OFFCURVE",
"249 183 OFFCURVE",
"273 247 CURVE",
"403 247 LINE",
"409 253 OFFCURVE",
"420 260 OFFCURVE",
"427 266 CURVE",
"427 197 OFFCURVE",
"429 125 OFFCURVE",
"439 61 CURVE SMOOTH",
"443 31 OFFCURVE",
"454 13 OFFCURVE",
"470 4 CURVE",
"501 -6 OFFCURVE",
"579 30 OFFCURVE",
"612 85 CURVE SMOOTH",
"621 99 OFFCURVE",
"621 108 OFFCURVE",
"611 109 CURVE",
"601 109 OFFCURVE",
"585 95 OFFCURVE",
"567 85 CURVE",
"561 81 OFFCURVE",
"545 75 OFFCURVE",
"533 77 CURVE SMOOTH"
);
}
);
width = 633;
},
{
layerId = "98164D6F-6418-4A81-93B1-33F1F3344547";
paths = (
{
closed = 1;
nodes = (
"305 332 LINE",
"342 442 OFFCURVE",
"402 602 OFFCURVE",
"469 632 CURVE",
"462 621 OFFCURVE",
"440 480 OFFCURVE",
"436 442 CURVE SMOOTH",
"432 409 OFFCURVE",
"429 366 OFFCURVE",
"429 311 CURVE",
"295 311 LINE"
);
},
{
closed = 1;
nodes = (
"517 78 OFFCURVE",
"520 81 OFFCURVE",
"518 85 CURVE",
"514 101 OFFCURVE",
"513 141 OFFCURVE",
"511 156 CURVE SMOOTH",
"504 246 OFFCURVE",
"503 354 OFFCURVE",
"508 457 CURVE SMOOTH",
"514 578 OFFCURVE",
"535 663 OFFCURVE",
"562 707 CURVE",
"527 707 LINE SMOOTH",
"515 707 OFFCURVE",
"433 714 OFFCURVE",
"410 714 CURVE SMOOTH",
"294 714 OFFCURVE",
"210 693 OFFCURVE",
"158 650 CURVE",
"97 596 OFFCURVE",
"62 528 OFFCURVE",
"57 447 CURVE SMOOTH",
"55 417 OFFCURVE",
"58 375 OFFCURVE",
"70 334 CURVE",
"146 419 LINE",
"133 449 OFFCURVE",
"129 481 OFFCURVE",
"132 514 CURVE SMOOTH",
"138 609 OFFCURVE",
"197 657 OFFCURVE",
"312 657 CURVE SMOOTH",
"351 657 OFFCURVE",
"391 653 OFFCURVE",
"429 645 CURVE",
"391 621 OFFCURVE",
"366 594 OFFCURVE",
"342 558 CURVE SMOOTH",
"315 518 OFFCURVE",
"285 453 OFFCURVE",
"246 332 CURVE SMOOTH",
"217 254 OFFCURVE",
"186 183 OFFCURVE",
"170 151 CURVE",
"155 122 OFFCURVE",
"122 77 OFFCURVE",
"75 58 CURVE",
"51 51 LINE",
"38 43 OFFCURVE",
"14 0 OFFCURVE",
"27 0 CURVE",
"24 0 OFFCURVE",
"77 18 OFFCURVE",
"78 18 CURVE",
"95 17 OFFCURVE",
"124 9 OFFCURVE",
"139 4 CURVE SMOOTH",
"145 3 OFFCURVE",
"149 1 OFFCURVE",
"152 1 CURVE",
"165 -3 OFFCURVE",
"190 4 OFFCURVE",
"224 43 CURVE",
"253 71 OFFCURVE",
"229 77 OFFCURVE",
"217 68 CURVE",
"210 64 OFFCURVE",
"196 60 OFFCURVE",
"192 60 CURVE SMOOTH",
"180 60 OFFCURVE",
"166 62 OFFCURVE",
"149 67 CURVE",
"178 91 LINE",
"213 125 OFFCURVE",
"249 183 OFFCURVE",
"273 247 CURVE",
"403 247 LINE",
"409 253 OFFCURVE",
"420 260 OFFCURVE",
"427 266 CURVE",
"427 197 OFFCURVE",
"429 125 OFFCURVE",
"439 61 CURVE SMOOTH",
"443 31 OFFCURVE",
"454 13 OFFCURVE",
"470 4 CURVE",
"501 -6 OFFCURVE",
"579 30 OFFCURVE",
"612 85 CURVE SMOOTH",
"621 99 OFFCURVE",
"621 108 OFFCURVE",
"611 109 CURVE",
"601 109 OFFCURVE",
"585 95 OFFCURVE",
"567 85 CURVE",
"561 81 OFFCURVE",
"545 75 OFFCURVE",
"533 77 CURVE SMOOTH"
);
}
);
width = 633;
}
);
note = A;
unicode = 0041;
},
{
color = 0;
glyphname = B;
lastChange = "2018-02-09 16:29:38 +0000";
layers = (
{
layerId = "0B1DFD06-3317-40CA-B510-4969A0718C16";
paths = (
{
closed = 1;
nodes = (
"453 258 OFFCURVE",
"462 226 OFFCURVE",
"459 190 CURVE SMOOTH",
"453 111 OFFCURVE",
"408 64 OFFCURVE",
"328 64 CURVE SMOOTH",
"300 64 OFFCURVE",
"270 65 OFFCURVE",
"240 70 CURVE",
"253 81 OFFCURVE",
"267 98 OFFCURVE",
"268 119 CURVE",
"280 199 OFFCURVE",
"294 275 OFFCURVE",
"305 355 CURVE",
"346 355 LINE SMOOTH",
"351 355 OFFCURVE",
"352 354 OFFCURVE",
"356 354 CURVE",
"381 341 OFFCURVE",
"416 318 OFFCURVE",
"432 291 CURVE"
);
},
{
closed = 1;
nodes = (
"564 672 OFFCURVE",
"503 717 OFFCURVE",
"376 717 CURVE SMOOTH",
"280 717 OFFCURVE",
"199 689 OFFCURVE",
"132 630 CURVE SMOOTH",
"67 572 OFFCURVE",
"31 498 OFFCURVE",
"24 408 CURVE SMOOTH",
"23 381 OFFCURVE",
"24 349 OFFCURVE",
"28 317 CURVE",
"108 399 LINE",
"98 429 OFFCURVE",
"94 454 OFFCURVE",
"95 483 CURVE",
"99 530 OFFCURVE",
"118 568 OFFCURVE",
"151 599 CURVE",
"185 629 OFFCURVE",
"233 649 OFFCURVE",
"283 653 CURVE SMOOTH",
"304 655 OFFCURVE",
"322 656 OFFCURVE",
"344 656 CURVE SMOOTH",
"425 656 OFFCURVE",
"487 633 OFFCURVE",
"483 548 CURVE SMOOTH",
"479 496 OFFCURVE",
"416 426 OFFCURVE",
"378 410 CURVE",
"379 410 LINE",
"364 405 OFFCURVE",
"359 405 OFFCURVE",
"352 405 CURVE SMOOTH",
"346 405 LINE SMOOTH",
"337 405 OFFCURVE",
"328 402 OFFCURVE",
"312 406 CURVE",
"322 459 OFFCURVE",
"327 514 OFFCURVE",
"337 567 CURVE SMOOTH",
"338 574 OFFCURVE",
"339 582 OFFCURVE",
"342 591 CURVE SMOOTH",
"346 604 OFFCURVE",
"349 621 OFFCURVE",
"359 630 CURVE",
"364 640 OFFCURVE",
"346 640 OFFCURVE",
"331 635 CURVE",
"301 619 OFFCURVE",
"267 595 OFFCURVE",
"261 562 CURVE SMOOTH",
"199 122 LINE",
"197 107 OFFCURVE",
"192 89 OFFCURVE",
"182 80 CURVE",
"166 62 OFFCURVE",
"158 58 OFFCURVE",
"151 54 CURVE",
"145 50 OFFCURVE",
"136 43 OFFCURVE",
"132 41 CURVE",
"125 31 LINE",
"121 24 OFFCURVE",
"116 16 OFFCURVE",
"114 4 CURVE",
"119 -3 OFFCURVE",
"128 0 OFFCURVE",
"139 4 CURVE",
"152 9 OFFCURVE",
"169 16 OFFCURVE",
"179 16 CURVE SMOOTH",
"189 16 OFFCURVE",
"200 14 OFFCURVE",
"213 10 CURVE",
"223 9 OFFCURVE",
"237 6 OFFCURVE",
"233 6 CURVE SMOOTH",
"231 6 LINE",
"247 3 OFFCURVE",
"263 1 OFFCURVE",
"280 1 CURVE SMOOTH",
"442 1 OFFCURVE",
"530 148 OFFCURVE",
"530 227 CURVE SMOOTH",
"530 308 OFFCURVE",
"503 362 OFFCURVE",
"423 402 CURVE",
"507 446 OFFCURVE",
"552 504 OFFCURVE",
"557 579 CURVE SMOOTH"
);
}
);
width = 612;
},
{
layerId = "98164D6F-6418-4A81-93B1-33F1F3344547";
paths = (
{
closed = 1;
nodes = (
"453 258 OFFCURVE",
"462 226 OFFCURVE",
"459 190 CURVE SMOOTH",
"453 111 OFFCURVE",
"408 64 OFFCURVE",
"328 64 CURVE SMOOTH",
"300 64 OFFCURVE",
"270 65 OFFCURVE",
"240 70 CURVE",
"253 81 OFFCURVE",
"267 98 OFFCURVE",
"268 119 CURVE",
"280 199 OFFCURVE",
"294 275 OFFCURVE",
"305 355 CURVE",
"346 355 LINE SMOOTH",
"351 355 OFFCURVE",
"352 354 OFFCURVE",
"356 354 CURVE",
"381 341 OFFCURVE",
"416 318 OFFCURVE",
"432 291 CURVE"
);
},
{
closed = 1;
nodes = (
"564 672 OFFCURVE",
"503 717 OFFCURVE",
"376 717 CURVE SMOOTH",
"280 717 OFFCURVE",
"199 689 OFFCURVE",
"132 630 CURVE SMOOTH",
"67 572 OFFCURVE",
"31 498 OFFCURVE",
"24 408 CURVE SMOOTH",
"23 381 OFFCURVE",
"24 349 OFFCURVE",
"28 317 CURVE",
"108 399 LINE",
"98 429 OFFCURVE",
"94 454 OFFCURVE",
"95 483 CURVE",
"99 530 OFFCURVE",
"118 568 OFFCURVE",
"151 599 CURVE",
"185 629 OFFCURVE",
"233 649 OFFCURVE",
"283 653 CURVE SMOOTH",
"304 655 OFFCURVE",
"322 656 OFFCURVE",
"344 656 CURVE SMOOTH",
"425 656 OFFCURVE",
"487 633 OFFCURVE",
"483 548 CURVE SMOOTH",
"479 496 OFFCURVE",
"416 426 OFFCURVE",
"378 410 CURVE",
"379 410 LINE",
"364 405 OFFCURVE",
"359 405 OFFCURVE",
"352 405 CURVE SMOOTH",
"346 405 LINE SMOOTH",
"337 405 OFFCURVE",
"328 402 OFFCURVE",
"312 406 CURVE",
"322 459 OFFCURVE",
"327 514 OFFCURVE",
"337 567 CURVE SMOOTH",
"338 574 OFFCURVE",
"339 582 OFFCURVE",
"342 591 CURVE SMOOTH",
"346 604 OFFCURVE",
"349 621 OFFCURVE",
"359 630 CURVE",
"364 640 OFFCURVE",
"346 640 OFFCURVE",
"331 635 CURVE",
"301 619 OFFCURVE",
"267 595 OFFCURVE",
"261 562 CURVE SMOOTH",
"199 122 LINE",
"197 107 OFFCURVE",
"192 89 OFFCURVE",
"182 80 CURVE",
"166 62 OFFCURVE",
"158 58 OFFCURVE",
"151 54 CURVE",
"145 50 OFFCURVE",
"136 43 OFFCURVE",
"132 41 CURVE",
"125 31 LINE",
"121 24 OFFCURVE",
"116 16 OFFCURVE",
"114 4 CURVE",
"119 -3 OFFCURVE",
"128 0 OFFCURVE",
"139 4 CURVE",
"152 9 OFFCURVE",
"169 16 OFFCURVE",
"179 16 CURVE SMOOTH",
"189 16 OFFCURVE",
"200 14 OFFCURVE",
"213 10 CURVE",
"223 9 OFFCURVE",
"237 6 OFFCURVE",
"233 6 CURVE SMOOTH",
"231 6 LINE",
"247 3 OFFCURVE",
"263 1 OFFCURVE",
"280 1 CURVE SMOOTH",
"442 1 OFFCURVE",
"530 148 OFFCURVE",
"530 227 CURVE SMOOTH",
"530 308 OFFCURVE",
"503 362 OFFCURVE",
"423 402 CURVE",
"507 446 OFFCURVE",
"552 504 OFFCURVE",
"557 579 CURVE SMOOTH"
);
}
);
width = 612;
}
);
note = B;
unicode = 0042;
},
{
color = 0;
glyphname = C;
lastChange = "2018-02-09 16:29:38 +0000";
layers = (
{
layerId = "0B1DFD06-3317-40CA-B510-4969A0718C16";
paths = (
{
closed = 1;
nodes = (
"483 202 LINE",
"464 163 OFFCURVE",
"433 131 OFFCURVE",
"403 108 CURVE",
"371 81 OFFCURVE",
"335 71 OFFCURVE",
"301 71 CURVE SMOOTH",
"257 71 OFFCURVE",
"223 94 OFFCURVE",
"199 139 CURVE SMOOTH",
"178 178 OFFCURVE",
"168 226 OFFCURVE",
"168 284 CURVE SMOOTH",
"168 297 OFFCURVE",
"168 311 OFFCURVE",
"169 324 CURVE",
"176 425 OFFCURVE",
"202 507 OFFCURVE",
"246 569 CURVE SMOOTH",
"290 632 OFFCURVE",
"342 663 OFFCURVE",
"405 663 CURVE SMOOTH",
"435 663 OFFCURVE",
"462 653 OFFCURVE",
"483 640 CURVE SMOOTH",
"510 625 OFFCURVE",
"513 605 OFFCURVE",
"513 588 CURVE",
"511 578 OFFCURVE",
"510 572 OFFCURVE",
"503 559 CURVE",
"513 555 OFFCURVE",
"513 555 OFFCURVE",
"517 555 CURVE SMOOTH",
"533 555 OFFCURVE",
"538 562 OFFCURVE",
"548 578 CURVE SMOOTH",
"552 585 OFFCURVE",
"557 598 OFFCURVE",
"561 605 CURVE SMOOTH",
"577 632 OFFCURVE",
"572 652 OFFCURVE",
"567 665 CURVE",
"562 672 OFFCURVE",
"558 679 OFFCURVE",
"552 683 CURVE",
"535 699 OFFCURVE",
"491 717 OFFCURVE",
"442 717 CURVE SMOOTH",
"351 717 OFFCURVE",
"264 673 OFFCURVE",
"197 594 CURVE SMOOTH",
"131 513 OFFCURVE",
"92 405 OFFCURVE",
"82 285 CURVE SMOOTH",
"81 273 OFFCURVE",
"81 256 OFFCURVE",
"81 244 CURVE SMOOTH",
"81 178 OFFCURVE",
"92 124 OFFCURVE",
"119 80 CURVE SMOOTH",
"149 27 OFFCURVE",
"193 1 OFFCURVE",
"251 1 CURVE SMOOTH",
"324 1 OFFCURVE",
"389 33 OFFCURVE",
"447 94 CURVE SMOOTH",
"481 129 OFFCURVE",
"498 163 OFFCURVE",
"503 185 CURVE SMOOTH",
"504 192 OFFCURVE",
"500 197 OFFCURVE",
"491 203 CURVE"
);
}
);
width = 608;
},
{
layerId = "98164D6F-6418-4A81-93B1-33F1F3344547";
paths = (
{
closed = 1;
nodes = (
"483 202 LINE",
"464 163 OFFCURVE",
"433 131 OFFCURVE",
"403 108 CURVE",
"371 81 OFFCURVE",
"335 71 OFFCURVE",
"301 71 CURVE SMOOTH",
"257 71 OFFCURVE",
"223 94 OFFCURVE",
"199 139 CURVE SMOOTH",
"178 178 OFFCURVE",
"168 226 OFFCURVE",
"168 284 CURVE SMOOTH",
"168 297 OFFCURVE",
"168 311 OFFCURVE",
"169 324 CURVE",
"176 425 OFFCURVE",
"202 507 OFFCURVE",
"246 569 CURVE SMOOTH",
"290 632 OFFCURVE",
"342 663 OFFCURVE",
"405 663 CURVE SMOOTH",
"435 663 OFFCURVE",
"462 653 OFFCURVE",
"483 640 CURVE SMOOTH",
"510 625 OFFCURVE",
"513 605 OFFCURVE",
"513 588 CURVE",
"511 578 OFFCURVE",
"510 572 OFFCURVE",
"503 559 CURVE",
"513 555 OFFCURVE",
"513 555 OFFCURVE",
"517 555 CURVE SMOOTH",
"533 555 OFFCURVE",
"538 562 OFFCURVE",
"548 578 CURVE SMOOTH",
"552 585 OFFCURVE",
"557 598 OFFCURVE",
"561 605 CURVE SMOOTH",
"577 632 OFFCURVE",
"572 652 OFFCURVE",
"567 665 CURVE",
"562 672 OFFCURVE",
"558 679 OFFCURVE",
"552 683 CURVE",
"535 699 OFFCURVE",
"491 717 OFFCURVE",
"442 717 CURVE SMOOTH",
"351 717 OFFCURVE",
"264 673 OFFCURVE",
"197 594 CURVE SMOOTH",
"131 513 OFFCURVE",
"92 405 OFFCURVE",
"82 285 CURVE SMOOTH",
"81 273 OFFCURVE",
"81 256 OFFCURVE",
"81 244 CURVE SMOOTH",
"81 178 OFFCURVE",
"92 124 OFFCURVE",
"119 80 CURVE SMOOTH",
"149 27 OFFCURVE",
"193 1 OFFCURVE",
"251 1 CURVE SMOOTH",
"324 1 OFFCURVE",
"389 33 OFFCURVE",
"447 94 CURVE SMOOTH",
"481 129 OFFCURVE",
"498 163 OFFCURVE",
"503 185 CURVE SMOOTH",
"504 192 OFFCURVE",
"500 197 OFFCURVE",
"491 203 CURVE"
);
}
);
width = 608;
}
);
note = C;
unicode = 0043;
},
{
color = 0;
glyphname = D;
lastChange = "2018-02-09 16:29:38 +0000";
layers = (
{
layerId = "0B1DFD06-3317-40CA-B510-4969A0718C16";
paths = (
{
closed = 1;
nodes = (
"291 717 OFFCURVE",
"199 690 OFFCURVE",
"133 638 CURVE",
"135 638 LINE",
"68 584 OFFCURVE",
"31 507 OFFCURVE",
"24 408 CURVE",
"20 378 OFFCURVE",
"24 345 OFFCURVE",
"30 321 CURVE",
"108 409 LINE",
"98 439 OFFCURVE",
"95 467 OFFCURVE",
"98 494 CURVE",
"102 581 OFFCURVE",
"186 663 OFFCURVE",
"359 663 CURVE SMOOTH",
"506 663 OFFCURVE",
"578 584 OFFCURVE",
"578 443 CURVE SMOOTH",
"578 354 OFFCURVE",
"557 261 OFFCURVE",
"524 186 CURVE",
"497 141 OFFCURVE",
"426 64 OFFCURVE",
"339 64 CURVE",
"304 62 OFFCURVE",
"267 67 OFFCURVE",
"240 72 CURVE",
"246 82 OFFCURVE",
"253 94 OFFCURVE",
"257 107 CURVE",
"337 567 LINE SMOOTH",
"338 574 OFFCURVE",
"339 582 OFFCURVE",
"342 589 CURVE",
"346 602 OFFCURVE",
"351 618 OFFCURVE",
"361 629 CURVE",
"365 639 OFFCURVE",
"348 640 OFFCURVE",
"331 635 CURVE",
"301 622 OFFCURVE",
"268 595 OFFCURVE",
"263 562 CURVE SMOOTH",
"240 422 OFFCURVE",
"214 280 OFFCURVE",
"192 138 CURVE",
"182 91 OFFCURVE",
"166 70 OFFCURVE",
"139 53 CURVE",
"125 45 OFFCURVE",
"109 1 OFFCURVE",
"118 1 CURVE SMOOTH",
"129 1 OFFCURVE",
"159 13 OFFCURVE",
"169 17 CURVE",
"173 17 OFFCURVE",
"266 3 OFFCURVE",
"280 3 CURVE SMOOTH",
"328 3 LINE SMOOTH",
"439 3 OFFCURVE",
"535 105 OFFCURVE",
"581 170 CURVE SMOOTH",
"635 247 OFFCURVE",
"663 364 OFFCURVE",
"670 462 CURVE SMOOTH",
"677 613 OFFCURVE",
"606 717 OFFCURVE",
"409 717 CURVE SMOOTH"
);
}
);
width = 710;
},
{
layerId = "98164D6F-6418-4A81-93B1-33F1F3344547";
paths = (
{
closed = 1;
nodes = (
"291 717 OFFCURVE",
"199 690 OFFCURVE",
"133 638 CURVE",
"135 638 LINE",
"68 584 OFFCURVE",
"31 507 OFFCURVE",
"24 408 CURVE",
"20 378 OFFCURVE",
"24 345 OFFCURVE",
"30 321 CURVE",
"108 409 LINE",
"98 439 OFFCURVE",
"95 467 OFFCURVE",
"98 494 CURVE",
"102 581 OFFCURVE",
"186 663 OFFCURVE",
"359 663 CURVE SMOOTH",
"506 663 OFFCURVE",
"578 584 OFFCURVE",
"578 443 CURVE SMOOTH",
"578 354 OFFCURVE",
"557 261 OFFCURVE",
"524 186 CURVE",
"497 141 OFFCURVE",
"426 64 OFFCURVE",
"339 64 CURVE",
"304 62 OFFCURVE",
"267 67 OFFCURVE",
"240 72 CURVE",
"246 82 OFFCURVE",
"253 94 OFFCURVE",
"257 107 CURVE",
"337 567 LINE SMOOTH",
"338 574 OFFCURVE",
"339 582 OFFCURVE",
"342 589 CURVE",
"346 602 OFFCURVE",
"351 618 OFFCURVE",
"361 629 CURVE",
"365 639 OFFCURVE",
"348 640 OFFCURVE",
"331 635 CURVE",
"301 622 OFFCURVE",
"268 595 OFFCURVE",
"263 562 CURVE SMOOTH",
"240 422 OFFCURVE",
"214 280 OFFCURVE",
"192 138 CURVE",
"182 91 OFFCURVE",
"166 70 OFFCURVE",
"139 53 CURVE",
"125 45 OFFCURVE",
"109 1 OFFCURVE",
"118 1 CURVE SMOOTH",
"129 1 OFFCURVE",
"159 13 OFFCURVE",
"169 17 CURVE",
"173 17 OFFCURVE",
"266 3 OFFCURVE",
"280 3 CURVE SMOOTH",
"328 3 LINE SMOOTH",
"439 3 OFFCURVE",
"535 105 OFFCURVE",
"581 170 CURVE SMOOTH",
"635 247 OFFCURVE",
"663 364 OFFCURVE",
"670 462 CURVE SMOOTH",
"677 613 OFFCURVE",
"606 717 OFFCURVE",
"409 717 CURVE SMOOTH"
);
}
);
width = 710;
}
);
note = D;
unicode = 0044;
},
{
color = 0;
glyphname = E;
lastChange = "2018-02-09 16:29:38 +0000";
layers = (
{
layerId = "0B1DFD06-3317-40CA-B510-4969A0718C16";
paths = (
{
closed = 1;
nodes = (
"609 709 LINE",
"598 704 OFFCURVE",
"585 700 OFFCURVE",
"569 699 CURVE",
"562 697 OFFCURVE",
"555 697 OFFCURVE",
"548 699 CURVE",
"328 697 LINE SMOOTH",
"247 697 OFFCURVE",
"182 676 OFFCURVE",
"135 635 CURVE SMOOTH",
"71 577 OFFCURVE",
"31 498 OFFCURVE",
"24 406 CURVE SMOOTH",
"23 379 OFFCURVE",
"24 351 OFFCURVE",
"30 318 CURVE",
"111 408 LINE",
"101 437 OFFCURVE",
"97 466 OFFCURVE",
"99 491 CURVE",
"102 533 OFFCURVE",
"118 568 OFFCURVE",
"148 596 CURVE",
"178 622 OFFCURVE",
"216 635 OFFCURVE",
"266 635 CURVE SMOOTH",
"271 635 LINE",
"256 533 OFFCURVE",
"241 425 OFFCURVE",
"196 168 CURVE SMOOTH",
"185 89 OFFCURVE",
"172 74 OFFCURVE",
"141 53 CURVE",
"131 43 OFFCURVE",
"109 3 OFFCURVE",
"122 3 CURVE SMOOTH",
"135 3 OFFCURVE",
"163 14 OFFCURVE",
"173 18 CURVE",
"180 18 OFFCURVE",
"267 4 OFFCURVE",
"281 4 CURVE",
"294 3 OFFCURVE",
"329 1 OFFCURVE",
"362 1 CURVE SMOOTH",
"385 1 OFFCURVE",
"405 3 OFFCURVE",
"415 3 CURVE",
"433 4 OFFCURVE",
"480 33 OFFCURVE",
"507 62 CURVE",
"530 89 OFFCURVE",
"511 95 OFFCURVE",
"501 89 CURVE",
"494 87 OFFCURVE",
"446 70 OFFCURVE",
"432 70 CURVE",
"405 68 OFFCURVE",
"382 67 OFFCURVE",
"361 67 CURVE SMOOTH",
"293 67 OFFCURVE",
"260 74 OFFCURVE",
"244 78 CURVE",
"247 82 LINE",
"251 87 OFFCURVE",
"258 99 OFFCURVE",
"260 112 CURVE",
"275 187 OFFCURVE",
"285 266 OFFCURVE",
"301 341 CURVE",
"341 339 OFFCURVE",
"348 341 OFFCURVE",
"378 337 CURVE SMOOTH",
"388 335 OFFCURVE",
"396 334 OFFCURVE",
"406 334 CURVE SMOOTH",
"439 334 OFFCURVE",
"476 361 OFFCURVE",
"515 416 CURVE",
"469 409 OFFCURVE",
"423 405 OFFCURVE",
"383 405 CURVE SMOOTH",
"312 405 LINE",
"348 635 LINE",
"527 629 LINE SMOOTH",
"562 628 OFFCURVE",
"594 660 OFFCURVE",
"612 683 CURVE",
"623 696 OFFCURVE",
"625 714 OFFCURVE",
"612 710 CURVE"
);
}
);
width = 601;
},
{
layerId = "98164D6F-6418-4A81-93B1-33F1F3344547";
paths = (
{
closed = 1;
nodes = (
"609 709 LINE",
"598 704 OFFCURVE",
"585 700 OFFCURVE",
"569 699 CURVE",
"562 697 OFFCURVE",
"555 697 OFFCURVE",
"548 699 CURVE",
"328 697 LINE SMOOTH",
"247 697 OFFCURVE",
"182 676 OFFCURVE",
"135 635 CURVE SMOOTH",
"71 577 OFFCURVE",
"31 498 OFFCURVE",
"24 406 CURVE SMOOTH",
"23 379 OFFCURVE",
"24 351 OFFCURVE",
"30 318 CURVE",
"111 408 LINE",
"101 437 OFFCURVE",
"97 466 OFFCURVE",
"99 491 CURVE",
"102 533 OFFCURVE",
"118 568 OFFCURVE",
"148 596 CURVE",
"178 622 OFFCURVE",
"216 635 OFFCURVE",
"266 635 CURVE SMOOTH",
"271 635 LINE",
"256 533 OFFCURVE",
"241 425 OFFCURVE",
"196 168 CURVE SMOOTH",
"185 89 OFFCURVE",
"172 74 OFFCURVE",
"141 53 CURVE",
"131 43 OFFCURVE",
"109 3 OFFCURVE",
"122 3 CURVE SMOOTH",
"135 3 OFFCURVE",
"163 14 OFFCURVE",
"173 18 CURVE",
"180 18 OFFCURVE",
"267 4 OFFCURVE",
"281 4 CURVE",
"294 3 OFFCURVE",
"329 1 OFFCURVE",
"362 1 CURVE SMOOTH",
"385 1 OFFCURVE",
"405 3 OFFCURVE",
"415 3 CURVE",
"433 4 OFFCURVE",
"480 33 OFFCURVE",
"507 62 CURVE",
"530 89 OFFCURVE",
"511 95 OFFCURVE",
"501 89 CURVE",
"494 87 OFFCURVE",
"446 70 OFFCURVE",
"432 70 CURVE",
"405 68 OFFCURVE",
"382 67 OFFCURVE",
"361 67 CURVE SMOOTH",
"293 67 OFFCURVE",
"260 74 OFFCURVE",
"244 78 CURVE",
"247 82 LINE",
"251 87 OFFCURVE",
"258 99 OFFCURVE",
"260 112 CURVE",
"275 187 OFFCURVE",
"285 266 OFFCURVE",
"301 341 CURVE",
"341 339 OFFCURVE",
"348 341 OFFCURVE",
"378 337 CURVE SMOOTH",
"388 335 OFFCURVE",
"396 334 OFFCURVE",
"406 334 CURVE SMOOTH",
"439 334 OFFCURVE",
"476 361 OFFCURVE",
"515 416 CURVE",
"469 409 OFFCURVE",
"423 405 OFFCURVE",
"383 405 CURVE SMOOTH",
"312 405 LINE",
"348 635 LINE",
"527 629 LINE SMOOTH",
"562 628 OFFCURVE",
"594 660 OFFCURVE",
"612 683 CURVE",
"623 696 OFFCURVE",
"625 714 OFFCURVE",
"612 710 CURVE"
);
}
);
width = 601;
}
);
note = E;
unicode = 0045;
},
{
color = 0;
glyphname = F;
lastChange = "2018-02-09 16:29:38 +0000";
layers = (
{
layerId = "0B1DFD06-3317-40CA-B510-4969A0718C16";
paths = (
{
closed = 1;
nodes = (
"612 709 LINE",
"601 704 OFFCURVE",
"588 700 OFFCURVE",
"572 699 CURVE",
"565 697 OFFCURVE",
"558 697 OFFCURVE",
"551 699 CURVE",
"329 697 LINE SMOOTH",
"246 697 OFFCURVE",
"179 676 OFFCURVE",
"132 635 CURVE SMOOTH",
"65 574 OFFCURVE",
"28 498 OFFCURVE",
"23 406 CURVE",
"23 389 OFFCURVE",
"23 345 OFFCURVE",
"30 318 CURVE",
"109 408 LINE",
"99 437 OFFCURVE",
"95 464 OFFCURVE",
"97 491 CURVE",
"101 535 OFFCURVE",
"116 569 OFFCURVE",
"145 596 CURVE",
"175 622 OFFCURVE",
"213 635 OFFCURVE",
"263 635 CURVE SMOOTH",
"270 635 LINE",
"246 474 OFFCURVE",
"222 317 OFFCURVE",
"195 158 CURVE SMOOTH",
"183 82 OFFCURVE",
"172 77 OFFCURVE",
"141 53 CURVE",
"129 41 OFFCURVE",
"111 1 OFFCURVE",
"122 1 CURVE SMOOTH",
"129 1 OFFCURVE",
"168 23 OFFCURVE",
"175 18 CURVE",
"195 14 OFFCURVE",
"239 3 OFFCURVE",
"246 3 CURVE",
"258 -1 OFFCURVE",
"283 6 OFFCURVE",
"317 44 CURVE SMOOTH",
"344 72 OFFCURVE",
"322 78 OFFCURVE",
"311 68 CURVE",
"307 64 OFFCURVE",
"290 61 OFFCURVE",
"284 61 CURVE SMOOTH",
"271 61 OFFCURVE",
"258 64 OFFCURVE",
"243 70 CURVE",
"249 80 OFFCURVE",
"256 89 OFFCURVE",
"260 102 CURVE",
"270 175 OFFCURVE",
"284 244 OFFCURVE",
"295 317 CURVE",
"332 317 LINE SMOOTH",
"354 317 OFFCURVE",
"369 317 OFFCURVE",
"385 315 CURVE",
"395 315 OFFCURVE",
"403 314 OFFCURVE",
"410 314 CURVE SMOOTH",
"442 314 OFFCURVE",
"477 341 OFFCURVE",
"515 393 CURVE",
"470 389 OFFCURVE",
"425 382 OFFCURVE",
"378 382 CURVE SMOOTH",
"307 382 LINE",
"346 635 LINE",
"530 629 LINE SMOOTH",
"564 628 OFFCURVE",
"596 660 OFFCURVE",
"615 683 CURVE",
"626 699 OFFCURVE",
"626 714 OFFCURVE",
"615 710 CURVE"
);
}
);
width = 581;
},
{
layerId = "98164D6F-6418-4A81-93B1-33F1F3344547";
paths = (
{
closed = 1;
nodes = (
"612 709 LINE",
"601 704 OFFCURVE",
"588 700 OFFCURVE",
"572 699 CURVE",
"565 697 OFFCURVE",
"558 697 OFFCURVE",
"551 699 CURVE",
"329 697 LINE SMOOTH",
"246 697 OFFCURVE",
"179 676 OFFCURVE",
"132 635 CURVE SMOOTH",
"65 574 OFFCURVE",
"28 498 OFFCURVE",
"23 406 CURVE",
"23 389 OFFCURVE",
"23 345 OFFCURVE",
"30 318 CURVE",
"109 408 LINE",
"99 437 OFFCURVE",
"95 464 OFFCURVE",
"97 491 CURVE",
"101 535 OFFCURVE",
"116 569 OFFCURVE",
"145 596 CURVE",
"175 622 OFFCURVE",
"213 635 OFFCURVE",
"263 635 CURVE SMOOTH",
"270 635 LINE",
"246 474 OFFCURVE",
"222 317 OFFCURVE",
"195 158 CURVE SMOOTH",
"183 82 OFFCURVE",
"172 77 OFFCURVE",
"141 53 CURVE",
"129 41 OFFCURVE",
"111 1 OFFCURVE",
"122 1 CURVE SMOOTH",
"129 1 OFFCURVE",
"168 23 OFFCURVE",
"175 18 CURVE",
"195 14 OFFCURVE",
"239 3 OFFCURVE",
"246 3 CURVE",
"258 -1 OFFCURVE",
"283 6 OFFCURVE",
"317 44 CURVE SMOOTH",
"344 72 OFFCURVE",
"322 78 OFFCURVE",
"311 68 CURVE",
"307 64 OFFCURVE",
"290 61 OFFCURVE",
"284 61 CURVE SMOOTH",
"271 61 OFFCURVE",
"258 64 OFFCURVE",
"243 70 CURVE",
"249 80 OFFCURVE",
"256 89 OFFCURVE",
"260 102 CURVE",
"270 175 OFFCURVE",
"284 244 OFFCURVE",
"295 317 CURVE",
"332 317 LINE SMOOTH",
"354 317 OFFCURVE",
"369 317 OFFCURVE",
"385 315 CURVE",
"395 315 OFFCURVE",
"403 314 OFFCURVE",
"410 314 CURVE SMOOTH",
"442 314 OFFCURVE",
"477 341 OFFCURVE",
"515 393 CURVE",
"470 389 OFFCURVE",
"425 382 OFFCURVE",
"378 382 CURVE SMOOTH",
"307 382 LINE",
"346 635 LINE",
"530 629 LINE SMOOTH",
"564 628 OFFCURVE",
"596 660 OFFCURVE",
"615 683 CURVE",
"626 699 OFFCURVE",
"626 714 OFFCURVE",
"615 710 CURVE"
);
}
);
width = 581;
}
);
note = F;
unicode = 0046;
},
{
color = 0;
glyphname = G;
lastChange = "2018-02-09 16:29:38 +0000";
layers = (
{
layerId = "0B1DFD06-3317-40CA-B510-4969A0718C16";
paths = (
{
closed = 1;
nodes = (
"400 -75 OFFCURVE",
"386 -135 OFFCURVE",
"368 -165 CURVE",
"348 -192 OFFCURVE",
"321 -206 OFFCURVE",
"285 -206 CURVE SMOOTH",
"239 -206 OFFCURVE",
"204 -175 OFFCURVE",
"183 -111 CURVE",
"111 -180 LINE",
"141 -233 OFFCURVE",
"185 -258 OFFCURVE",
"243 -258 CURVE SMOOTH",
"301 -258 OFFCURVE",
"361 -227 OFFCURVE",
"406 -172 CURVE SMOOTH",
"430 -142 OFFCURVE",
"449 -111 OFFCURVE",
"462 -77 CURVE",
"477 -41 OFFCURVE",
"486 10 OFFCURVE",
"496 72 CURVE SMOOTH",
"518 224 OFFCURVE",
"530 365 OFFCURVE",
"530 379 CURVE",
"399 379 LINE",
"366 378 OFFCURVE",
"344 375 OFFCURVE",
"331 365 CURVE SMOOTH",
"318 355 OFFCURVE",
"298 328 OFFCURVE",
"280 288 CURVE",
"317 304 OFFCURVE",
"356 311 OFFCURVE",
"400 311 CURVE SMOOTH",
"463 311 LINE",
"446 203 LINE",
"435 139 LINE",
"391 98 OFFCURVE",
"348 74 OFFCURVE",
"304 74 CURVE SMOOTH",
"257 74 OFFCURVE",
"222 95 OFFCURVE",
"199 138 CURVE",
"178 173 OFFCURVE",
"168 219 OFFCURVE",
"168 277 CURVE SMOOTH",
"168 290 OFFCURVE",
"168 304 OFFCURVE",
"169 317 CURVE",
"176 419 OFFCURVE",
"206 508 OFFCURVE",
"246 569 CURVE SMOOTH",
"288 632 OFFCURVE",
"341 663 OFFCURVE",
"405 663 CURVE SMOOTH",
"437 663 OFFCURVE",
"463 653 OFFCURVE",
"484 640 CURVE",
"506 625 OFFCURVE",
"513 605 OFFCURVE",
"511 586 CURVE",
"511 579 OFFCURVE",
"508 571 OFFCURVE",
"503 559 CURVE",
"514 555 OFFCURVE",
"514 555 OFFCURVE",
"518 555 CURVE SMOOTH",
"531 555 OFFCURVE",
"541 564 OFFCURVE",
"548 582 CURVE",
"552 589 OFFCURVE",
"554 595 OFFCURVE",
"555 599 CURVE",
"558 605 LINE",
"599 700 OFFCURVE",
"491 717 OFFCURVE",
"442 717 CURVE SMOOTH",
"346 717 OFFCURVE",
"264 676 OFFCURVE",
"197 594 CURVE SMOOTH",
"129 510 OFFCURVE",
"91 406 OFFCURVE",
"82 283 CURVE SMOOTH",
"77 200 OFFCURVE",
"89 132 OFFCURVE",
"121 80 CURVE SMOOTH",
"151 30 OFFCURVE",
"196 1 OFFCURVE",
"251 1 CURVE SMOOTH",
"307 1 OFFCURVE",
"364 24 OFFCURVE",
"423 70 CURVE",
"419 43 LINE",
"415 27 OFFCURVE",
"415 10 OFFCURVE",
"413 0 CURVE SMOOTH"
);
}
);
width = 611;
},
{
layerId = "98164D6F-6418-4A81-93B1-33F1F3344547";
paths = (
{
closed = 1;
nodes = (
"400 -75 OFFCURVE",
"386 -135 OFFCURVE",
"368 -165 CURVE",
"348 -192 OFFCURVE",
"321 -206 OFFCURVE",
"285 -206 CURVE SMOOTH",
"239 -206 OFFCURVE",
"204 -175 OFFCURVE",
"183 -111 CURVE",
"111 -180 LINE",
"141 -233 OFFCURVE",
"185 -258 OFFCURVE",
"243 -258 CURVE SMOOTH",
"301 -258 OFFCURVE",
"361 -227 OFFCURVE",
"406 -172 CURVE SMOOTH",
"430 -142 OFFCURVE",
"449 -111 OFFCURVE",
"462 -77 CURVE",
"477 -41 OFFCURVE",
"486 10 OFFCURVE",
"496 72 CURVE SMOOTH",
"518 224 OFFCURVE",
"530 365 OFFCURVE",
"530 379 CURVE",
"399 379 LINE",
"366 378 OFFCURVE",
"344 375 OFFCURVE",
"331 365 CURVE SMOOTH",
"318 355 OFFCURVE",
"298 328 OFFCURVE",
"280 288 CURVE",
"317 304 OFFCURVE",
"356 311 OFFCURVE",
"400 311 CURVE SMOOTH",
"463 311 LINE",
"446 203 LINE",
"435 139 LINE",
"391 98 OFFCURVE",
"348 74 OFFCURVE",
"304 74 CURVE SMOOTH",
"257 74 OFFCURVE",
"222 95 OFFCURVE",
"199 138 CURVE",
"178 173 OFFCURVE",
"168 219 OFFCURVE",
"168 277 CURVE SMOOTH",
"168 290 OFFCURVE",
"168 304 OFFCURVE",
"169 317 CURVE",
"176 419 OFFCURVE",
"206 508 OFFCURVE",
"246 569 CURVE SMOOTH",
"288 632 OFFCURVE",
"341 663 OFFCURVE",
"405 663 CURVE SMOOTH",
"437 663 OFFCURVE",
"463 653 OFFCURVE",
"484 640 CURVE",
"506 625 OFFCURVE",
"513 605 OFFCURVE",
"511 586 CURVE",
"511 579 OFFCURVE",
"508 571 OFFCURVE",
"503 559 CURVE",
"514 555 OFFCURVE",
"514 555 OFFCURVE",
"518 555 CURVE SMOOTH",
"531 555 OFFCURVE",
"541 564 OFFCURVE",
"548 582 CURVE",
"552 589 OFFCURVE",
"554 595 OFFCURVE",
"555 599 CURVE",
"558 605 LINE",
"599 700 OFFCURVE",
"491 717 OFFCURVE",
"442 717 CURVE SMOOTH",
"346 717 OFFCURVE",
"264 676 OFFCURVE",
"197 594 CURVE SMOOTH",
"129 510 OFFCURVE",
"91 406 OFFCURVE",
"82 283 CURVE SMOOTH",
"77 200 OFFCURVE",
"89 132 OFFCURVE",
"121 80 CURVE SMOOTH",
"151 30 OFFCURVE",
"196 1 OFFCURVE",
"251 1 CURVE SMOOTH",
"307 1 OFFCURVE",
"364 24 OFFCURVE",
"423 70 CURVE",
"419 43 LINE",
"415 27 OFFCURVE",
"415 10 OFFCURVE",
"413 0 CURVE SMOOTH"
);
}
);
width = 611;
}
);
note = G;
unicode = 0047;
},
{
color = 0;
glyphname = H;
lastChange = "2018-02-09 16:29:38 +0000";
layers = (
{
layerId = "0B1DFD06-3317-40CA-B510-4969A0718C16";
paths = (
{
closed = 1;
nodes = (
"889 941 LINE",
"876 936 OFFCURVE",
"862 936 OFFCURVE",
"845 936 CURVE SMOOTH",
"804 934 OFFCURVE",
"748 932 OFFCURVE",
"693 882 CURVE",
"602 794 OFFCURVE",
"569 675 OFFCURVE",
"554 589 CURVE",
"547 538 OFFCURVE",
"533 446 OFFCURVE",
"524 417 CURVE",
"312 417 LINE",
"339 574 LINE SMOOTH",
"345 604 OFFCURVE",
"352 652 OFFCURVE",
"371 707 CURVE",
"331 707 LINE SMOOTH",
"244 707 OFFCURVE",
"173 682 OFFCURVE",
"118 629 CURVE SMOOTH",
"62 574 OFFCURVE",
"31 504 OFFCURVE",
"27 420 CURVE",
"23 392 OFFCURVE",
"26 359 OFFCURVE",
"30 329 CURVE",
"112 419 LINE",
"99 449 OFFCURVE",
"95 479 OFFCURVE",
"98 507 CURVE",
"104 595 OFFCURVE",
"160 639 OFFCURVE",
"268 639 CURVE SMOOTH",
"274 639 LINE",
"197 166 LINE SMOOTH",
"186 87 OFFCURVE",
"173 74 OFFCURVE",
"143 51 CURVE",
"133 41 OFFCURVE",
"108 1 OFFCURVE",
"122 1 CURVE SMOOTH",
"128 1 OFFCURVE",
"132 3 OFFCURVE",
"142 7 CURVE",
"153 11 OFFCURVE",
"170 17 OFFCURVE",
"175 17 CURVE",
"192 16 OFFCURVE",
"217 9 OFFCURVE",
"234 4 CURVE SMOOTH",
"240 3 OFFCURVE",
"244 1 OFFCURVE",
"247 1 CURVE",
"260 -3 OFFCURVE",
"285 6 OFFCURVE",
"318 44 CURVE SMOOTH",
"341 71 OFFCURVE",
"322 75 OFFCURVE",
"311 68 CURVE SMOOTH",
"304 64 OFFCURVE",
"290 60 OFFCURVE",
"285 60 CURVE SMOOTH",
"273 60 OFFCURVE",
"260 62 OFFCURVE",
"244 68 CURVE",
"246 70 LINE SMOOTH",
"250 74 OFFCURVE",
"257 80 OFFCURVE",
"261 101 CURVE SMOOTH",
"277 185 OFFCURVE",
"288 267 OFFCURVE",
"304 348 CURVE",
"513 348 LINE",
"481 133 LINE",
"477 104 LINE SMOOTH",
"473 68 OFFCURVE",
"469 1 OFFCURVE",
"514 1 CURVE SMOOTH",
"524 1 OFFCURVE",
"541 10 OFFCURVE",
"558 20 CURVE",
"577 33 LINE",
"588 43 OFFCURVE",
"604 54 OFFCURVE",
"619 70 CURVE",
"635 87 OFFCURVE",
"639 92 OFFCURVE",
"640 108 CURVE",
"640 109 OFFCURVE",
"639 114 OFFCURVE",
"639 118 CURVE",
"638 121 OFFCURVE",
"638 124 OFFCURVE",
"638 126 CURVE",
"611 107 LINE",
"606 102 OFFCURVE",
"601 99 OFFCURVE",
"589 94 CURVE",
"572 87 OFFCURVE",
"550 80 OFFCURVE",
"561 133 CURVE",
"582 300 OFFCURVE",
"613 470 OFFCURVE",
"640 639 CURVE",
"648 700 OFFCURVE",
"684 791 OFFCURVE",
"719 843 CURVE",
"743 873 OFFCURVE",
"781 886 OFFCURVE",
"808 890 CURVE",
"812 892 OFFCURVE",
"818 892 OFFCURVE",
"824 892 CURVE SMOOTH",
"842 892 OFFCURVE",
"858 892 OFFCURVE",
"876 907 CURVE SMOOTH",
"906 932 OFFCURVE",
"897 946 OFFCURVE",
"890 941 CURVE"
);
}
);
width = 711;
},
{
layerId = "98164D6F-6418-4A81-93B1-33F1F3344547";
paths = (
{
closed = 1;
nodes = (
"889 941 LINE",
"876 936 OFFCURVE",
"862 936 OFFCURVE",
"845 936 CURVE SMOOTH",
"804 934 OFFCURVE",
"748 932 OFFCURVE",
"693 882 CURVE",
"602 794 OFFCURVE",
"569 675 OFFCURVE",
"554 589 CURVE",
"547 538 OFFCURVE",
"533 446 OFFCURVE",
"524 417 CURVE",
"312 417 LINE",
"339 574 LINE SMOOTH",
"345 604 OFFCURVE",
"352 652 OFFCURVE",
"371 707 CURVE",
"331 707 LINE SMOOTH",
"244 707 OFFCURVE",
"173 682 OFFCURVE",
"118 629 CURVE SMOOTH",
"62 574 OFFCURVE",
"31 504 OFFCURVE",
"27 420 CURVE",
"23 392 OFFCURVE",
"26 359 OFFCURVE",
"30 329 CURVE",
"112 419 LINE",
"99 449 OFFCURVE",
"95 479 OFFCURVE",
"98 507 CURVE",
"104 595 OFFCURVE",
"160 639 OFFCURVE",
"268 639 CURVE SMOOTH",
"274 639 LINE",
"197 166 LINE SMOOTH",
"186 87 OFFCURVE",
"173 74 OFFCURVE",
"143 51 CURVE",
"133 41 OFFCURVE",
"108 1 OFFCURVE",
"122 1 CURVE SMOOTH",
"128 1 OFFCURVE",
"132 3 OFFCURVE",
"142 7 CURVE",
"153 11 OFFCURVE",
"170 17 OFFCURVE",
"175 17 CURVE",
"192 16 OFFCURVE",
"217 9 OFFCURVE",
"234 4 CURVE SMOOTH",
"240 3 OFFCURVE",
"244 1 OFFCURVE",
"247 1 CURVE",
"260 -3 OFFCURVE",
"285 6 OFFCURVE",
"318 44 CURVE SMOOTH",
"341 71 OFFCURVE",
"322 75 OFFCURVE",
"311 68 CURVE SMOOTH",
"304 64 OFFCURVE",
"290 60 OFFCURVE",
"285 60 CURVE SMOOTH",
"273 60 OFFCURVE",
"260 62 OFFCURVE",
"244 68 CURVE",
"246 70 LINE SMOOTH",
"250 74 OFFCURVE",
"257 80 OFFCURVE",
"261 101 CURVE SMOOTH",
"277 185 OFFCURVE",
"288 267 OFFCURVE",
"304 348 CURVE",
"513 348 LINE",
"481 133 LINE",
"477 104 LINE SMOOTH",
"473 68 OFFCURVE",
"469 1 OFFCURVE",
"514 1 CURVE SMOOTH",
"524 1 OFFCURVE",
"541 10 OFFCURVE",
"558 20 CURVE",
"577 33 LINE",
"588 43 OFFCURVE",
"604 54 OFFCURVE",
"619 70 CURVE",
"635 87 OFFCURVE",
"639 92 OFFCURVE",
"640 108 CURVE",
"640 109 OFFCURVE",
"639 114 OFFCURVE",
"639 118 CURVE",
"638 121 OFFCURVE",
"638 124 OFFCURVE",
"638 126 CURVE",
"611 107 LINE",
"606 102 OFFCURVE",
"601 99 OFFCURVE",
"589 94 CURVE",
"572 87 OFFCURVE",
"550 80 OFFCURVE",
"561 133 CURVE",
"582 300 OFFCURVE",
"613 470 OFFCURVE",
"640 639 CURVE",
"648 700 OFFCURVE",
"684 791 OFFCURVE",
"719 843 CURVE",
"743 873 OFFCURVE",
"781 886 OFFCURVE",
"808 890 CURVE",
"812 892 OFFCURVE",
"818 892 OFFCURVE",
"824 892 CURVE SMOOTH",
"842 892 OFFCURVE",
"858 892 OFFCURVE",
"876 907 CURVE SMOOTH",
"906 932 OFFCURVE",
"897 946 OFFCURVE",
"890 941 CURVE"
);
}
);
width = 711;
}
);
note = H;
unicode = 0048;
},
{
color = 0;
glyphname = I;
lastChange = "2018-02-09 16:29:38 +0000";
layers = (
{
layerId = "0B1DFD06-3317-40CA-B510-4969A0718C16";
paths = (
{
closed = 1;
nodes = (
"339 679 LINE SMOOTH",
"332 686 OFFCURVE",
"315 701 OFFCURVE",
"291 700 CURVE",
"290 699 OFFCURVE",
"288 699 OFFCURVE",
"287 699 CURVE SMOOTH",
"283 699 OFFCURVE",
"278 697 OFFCURVE",
"273 697 CURVE",
"231 690 OFFCURVE",
"145 680 OFFCURVE",
"133 680 CURVE SMOOTH",
"129 680 OFFCURVE",
"114 679 OFFCURVE",
"107 683 CURVE",
"91 690 OFFCURVE",
"77 687 OFFCURVE",
"101 659 CURVE",
"128 621 OFFCURVE",
"141 621 OFFCURVE",
"153 621 CURVE SMOOTH",
"155 621 OFFCURVE",
"183 622 OFFCURVE",
"199 626 CURVE",
"132 166 LINE SMOOTH",
"125 115 OFFCURVE",
"119 91 OFFCURVE",
"104 75 CURVE SMOOTH",
"99 71 OFFCURVE",
"89 70 OFFCURVE",
"78 65 CURVE",
"68 61 OFFCURVE",
"60 61 OFFCURVE",
"53 55 CURVE",
"41 44 OFFCURVE",
"20 1 OFFCURVE",
"33 1 CURVE SMOOTH",
"38 1 OFFCURVE",
"50 3 OFFCURVE",
"61 7 CURVE",
"82 11 OFFCURVE",
"107 17 OFFCURVE",
"111 17 CURVE",
"131 13 OFFCURVE",
"190 1 OFFCURVE",
"195 1 CURVE",
"210 -3 OFFCURVE",
"231 6 OFFCURVE",
"267 44 CURVE SMOOTH",
"294 72 OFFCURVE",
"273 77 OFFCURVE",
"260 67 CURVE SMOOTH",
"254 62 OFFCURVE",
"240 60 OFFCURVE",
"234 60 CURVE SMOOTH",
"223 60 OFFCURVE",
"196 64 OFFCURVE",
"178 68 CURVE",
"182 75 OFFCURVE",
"189 87 OFFCURVE",
"190 99 CURVE",
"217 281 OFFCURVE",
"246 454 OFFCURVE",
"273 636 CURVE",
"288 640 OFFCURVE",
"311 640 OFFCURVE",
"318 640 CURVE",
"331 642 OFFCURVE",
"341 639 OFFCURVE",
"346 635 CURVE",
"351 633 OFFCURVE",
"352 632 OFFCURVE",
"354 630 CURVE SMOOTH",
"356 628 LINE",
"372 638 OFFCURVE",
"358 660 OFFCURVE",
"345 673 CURVE SMOOTH"
);
}
);
width = 364;
},
{
layerId = "98164D6F-6418-4A81-93B1-33F1F3344547";
paths = (
{
closed = 1;
nodes = (
"339 679 LINE SMOOTH",
"332 686 OFFCURVE",
"315 701 OFFCURVE",
"291 700 CURVE",
"290 699 OFFCURVE",
"288 699 OFFCURVE",
"287 699 CURVE SMOOTH",
"283 699 OFFCURVE",
"278 697 OFFCURVE",
"273 697 CURVE",
"231 690 OFFCURVE",
"145 680 OFFCURVE",
"133 680 CURVE SMOOTH",
"129 680 OFFCURVE",
"114 679 OFFCURVE",
"107 683 CURVE",
"91 690 OFFCURVE",
"77 687 OFFCURVE",
"101 659 CURVE",
"128 621 OFFCURVE",
"141 621 OFFCURVE",
"153 621 CURVE SMOOTH",
"155 621 OFFCURVE",
"183 622 OFFCURVE",
"199 626 CURVE",
"132 166 LINE SMOOTH",
"125 115 OFFCURVE",
"119 91 OFFCURVE",
"104 75 CURVE SMOOTH",
"99 71 OFFCURVE",
"89 70 OFFCURVE",
"78 65 CURVE",
"68 61 OFFCURVE",
"60 61 OFFCURVE",
"53 55 CURVE",
"41 44 OFFCURVE",
"20 1 OFFCURVE",
"33 1 CURVE SMOOTH",
"38 1 OFFCURVE",
"50 3 OFFCURVE",
"61 7 CURVE",
"82 11 OFFCURVE",
"107 17 OFFCURVE",
"111 17 CURVE",
"131 13 OFFCURVE",
"190 1 OFFCURVE",
"195 1 CURVE",
"210 -3 OFFCURVE",
"231 6 OFFCURVE",
"267 44 CURVE SMOOTH",
"294 72 OFFCURVE",
"273 77 OFFCURVE",
"260 67 CURVE SMOOTH",
"254 62 OFFCURVE",
"240 60 OFFCURVE",
"234 60 CURVE SMOOTH",
"223 60 OFFCURVE",
"196 64 OFFCURVE",
"178 68 CURVE",
"182 75 OFFCURVE",
"189 87 OFFCURVE",
"190 99 CURVE",
"217 281 OFFCURVE",
"246 454 OFFCURVE",
"273 636 CURVE",
"288 640 OFFCURVE",
"311 640 OFFCURVE",
"318 640 CURVE",
"331 642 OFFCURVE",
"341 639 OFFCURVE",
"346 635 CURVE",
"351 633 OFFCURVE",
"352 632 OFFCURVE",
"354 630 CURVE SMOOTH",
"356 628 LINE",
"372 638 OFFCURVE",
"358 660 OFFCURVE",
"345 673 CURVE SMOOTH"
);
}
);
width = 364;
}
);
note = I;
unicode = 0049;
},
{
color = 0;
glyphname = J;
lastChange = "2018-02-09 16:29:38 +0000";
layers = (
{
layerId = "0B1DFD06-3317-40CA-B510-4969A0718C16";
paths = (
{
closed = 1;
nodes = (
"162 410 LINE",
"151 443 OFFCURVE",
"145 471 OFFCURVE",
"146 497 CURVE SMOOTH",
"153 585 OFFCURVE",
"212 629 OFFCURVE",
"318 629 CURVE SMOOTH",
"324 629 LINE",
"236 85 LINE SMOOTH",
"224 -1 OFFCURVE",
"207 -61 OFFCURVE",
"186 -95 CURVE",
"166 -131 OFFCURVE",
"138 -148 OFFCURVE",
"102 -148 CURVE SMOOTH",
"44 -148 OFFCURVE",
"10 -104 OFFCURVE",
"3 -14 CURVE",
"-77 -85 LINE",
"-53 -163 OFFCURVE",
"-10 -202 OFFCURVE",
"54 -202 CURVE SMOOTH",
"121 -202 OFFCURVE",
"178 -173 OFFCURVE",
"229 -111 CURVE SMOOTH",
"274 -57 OFFCURVE",
"305 28 OFFCURVE",
"324 146 CURVE SMOOTH",
"385 540 LINE SMOOTH",
"389 567 OFFCURVE",
"398 621 OFFCURVE",
"419 699 CURVE",
"379 699 LINE SMOOTH",
"295 699 OFFCURVE",
"223 670 OFFCURVE",
"168 619 CURVE SMOOTH",
"115 568 OFFCURVE",
"82 494 OFFCURVE",
"77 410 CURVE",
"74 383 OFFCURVE",
"75 352 OFFCURVE",
"81 320 CURVE"
);
}
);
width = 464;
},
{
layerId = "98164D6F-6418-4A81-93B1-33F1F3344547";
paths = (
{
closed = 1;
nodes = (
"162 410 LINE",
"151 443 OFFCURVE",
"145 471 OFFCURVE",
"146 497 CURVE SMOOTH",
"153 585 OFFCURVE",
"212 629 OFFCURVE",
"318 629 CURVE SMOOTH",
"324 629 LINE",
"236 85 LINE SMOOTH",
"224 -1 OFFCURVE",
"207 -61 OFFCURVE",
"186 -95 CURVE",
"166 -131 OFFCURVE",
"138 -148 OFFCURVE",
"102 -148 CURVE SMOOTH",
"44 -148 OFFCURVE",
"10 -104 OFFCURVE",
"3 -14 CURVE",
"-77 -85 LINE",
"-53 -163 OFFCURVE",
"-10 -202 OFFCURVE",
"54 -202 CURVE SMOOTH",
"121 -202 OFFCURVE",
"178 -173 OFFCURVE",
"229 -111 CURVE SMOOTH",
"274 -57 OFFCURVE",
"305 28 OFFCURVE",
"324 146 CURVE SMOOTH",
"385 540 LINE SMOOTH",
"389 567 OFFCURVE",
"398 621 OFFCURVE",
"419 699 CURVE",
"379 699 LINE SMOOTH",
"295 699 OFFCURVE",
"223 670 OFFCURVE",
"168 619 CURVE SMOOTH",
"115 568 OFFCURVE",
"82 494 OFFCURVE",
"77 410 CURVE",
"74 383 OFFCURVE",
"75 352 OFFCURVE",
"81 320 CURVE"
);
}
);
width = 464;
}
);
note = J;
unicode = 004A;
},
{
color = 0;
glyphname = K;
lastChange = "2018-02-09 16:29:38 +0000";
layers = (
{
layerId = "0B1DFD06-3317-40CA-B510-4969A0718C16";
paths = (
{
closed = 1;
nodes = (
"588 623 OFFCURVE",
"605 618 OFFCURVE",
"621 605 CURVE",
"683 683 LINE",
"662 690 OFFCURVE",
"640 696 OFFCURVE",
"619 696 CURVE SMOOTH",
"538 696 OFFCURVE",
"432 602 OFFCURVE",
"300 415 CURVE",
"300 419 OFFCURVE",
"317 514 OFFCURVE",
"321 540 CURVE SMOOTH",
"331 591 OFFCURVE",
"339 652 OFFCURVE",
"355 699 CURVE",
"317 699 LINE SMOOTH",
"231 699 OFFCURVE",
"160 672 OFFCURVE",
"105 619 CURVE SMOOTH",
"50 567 OFFCURVE",
"20 497 OFFCURVE",
"14 410 CURVE SMOOTH",
"13 382 OFFCURVE",
"14 352 OFFCURVE",
"20 320 CURVE",
"101 410 LINE",
"89 443 OFFCURVE",
"84 471 OFFCURVE",
"85 497 CURVE SMOOTH",
"92 585 OFFCURVE",
"149 629 OFFCURVE",
"256 629 CURVE SMOOTH",
"261 629 LINE",
"186 166 LINE SMOOTH",
"175 87 OFFCURVE",
"163 75 OFFCURVE",
"132 53 CURVE",
"121 45 OFFCURVE",
"98 1 OFFCURVE",
"111 1 CURVE SMOOTH",
"121 1 OFFCURVE",
"155 18 OFFCURVE",
"162 18 CURVE",
"179 17 OFFCURVE",
"206 10 OFFCURVE",
"223 6 CURVE SMOOTH",
"229 4 OFFCURVE",
"233 3 OFFCURVE",
"236 3 CURVE",
"247 -1 OFFCURVE",
"274 6 OFFCURVE",
"307 44 CURVE SMOOTH",
"331 71 OFFCURVE",
"311 77 OFFCURVE",
"298 70 CURVE",
"294 65 OFFCURVE",
"280 61 OFFCURVE",
"275 61 CURVE SMOOTH",
"264 61 OFFCURVE",
"247 64 OFFCURVE",
"231 70 CURVE",
"234 71 LINE",
"239 75 OFFCURVE",
"244 85 OFFCURVE",
"249 102 CURVE",
"264 189 OFFCURVE",
"280 277 OFFCURVE",
"293 366 CURVE",
"293 366 OFFCURVE",
"372 182 OFFCURVE",
"383 159 CURVE SMOOTH",
"425 72 OFFCURVE",
"470 14 OFFCURVE",
"503 14 CURVE SMOOTH",
"520 14 OFFCURVE",
"541 28 OFFCURVE",
"568 58 CURVE SMOOTH",
"594 85 OFFCURVE",
"608 111 OFFCURVE",
"609 133 CURVE",
"609 141 OFFCURVE",
"604 151 OFFCURVE",
"592 162 CURVE",
"571 121 OFFCURVE",
"551 99 OFFCURVE",
"534 99 CURVE SMOOTH",
"518 99 OFFCURVE",
"498 122 OFFCURVE",
"474 166 CURVE SMOOTH",
"452 207 OFFCURVE",
"382 351 OFFCURVE",
"364 406 CURVE",
"392 467 OFFCURVE",
"426 525 OFFCURVE",
"464 564 CURVE SMOOTH",
"504 604 OFFCURVE",
"540 623 OFFCURVE",
"569 623 CURVE SMOOTH"
);
}
);
width = 665;
},
{
layerId = "98164D6F-6418-4A81-93B1-33F1F3344547";
paths = (
{
closed = 1;
nodes = (
"588 623 OFFCURVE",
"605 618 OFFCURVE",
"621 605 CURVE",
"683 683 LINE",
"662 690 OFFCURVE",
"640 696 OFFCURVE",
"619 696 CURVE SMOOTH",
"538 696 OFFCURVE",
"432 602 OFFCURVE",
"300 415 CURVE",
"300 419 OFFCURVE",
"317 514 OFFCURVE",
"321 540 CURVE SMOOTH",
"331 591 OFFCURVE",
"339 652 OFFCURVE",
"355 699 CURVE",
"317 699 LINE SMOOTH",
"231 699 OFFCURVE",
"160 672 OFFCURVE",
"105 619 CURVE SMOOTH",
"50 567 OFFCURVE",
"20 497 OFFCURVE",
"14 410 CURVE SMOOTH",
"13 382 OFFCURVE",
"14 352 OFFCURVE",
"20 320 CURVE",
"101 410 LINE",
"89 443 OFFCURVE",
"84 471 OFFCURVE",
"85 497 CURVE SMOOTH",
"92 585 OFFCURVE",
"149 629 OFFCURVE",
"256 629 CURVE SMOOTH",
"261 629 LINE",
"186 166 LINE SMOOTH",
"175 87 OFFCURVE",
"163 75 OFFCURVE",
"132 53 CURVE",
"121 45 OFFCURVE",
"98 1 OFFCURVE",
"111 1 CURVE SMOOTH",
"121 1 OFFCURVE",
"155 18 OFFCURVE",
"162 18 CURVE",
"179 17 OFFCURVE",
"206 10 OFFCURVE",
"223 6 CURVE SMOOTH",
"229 4 OFFCURVE",
"233 3 OFFCURVE",
"236 3 CURVE",
"247 -1 OFFCURVE",
"274 6 OFFCURVE",
"307 44 CURVE SMOOTH",
"331 71 OFFCURVE",
"311 77 OFFCURVE",
"298 70 CURVE",
"294 65 OFFCURVE",
"280 61 OFFCURVE",
"275 61 CURVE SMOOTH",
"264 61 OFFCURVE",
"247 64 OFFCURVE",
"231 70 CURVE",
"234 71 LINE",
"239 75 OFFCURVE",
"244 85 OFFCURVE",
"249 102 CURVE",
"264 189 OFFCURVE",
"280 277 OFFCURVE",
"293 366 CURVE",
"293 366 OFFCURVE",
"372 182 OFFCURVE",
"383 159 CURVE SMOOTH",
"425 72 OFFCURVE",
"470 14 OFFCURVE",
"503 14 CURVE SMOOTH",
"520 14 OFFCURVE",
"541 28 OFFCURVE",
"568 58 CURVE SMOOTH",
"594 85 OFFCURVE",
"608 111 OFFCURVE",
"609 133 CURVE",
"609 141 OFFCURVE",
"604 151 OFFCURVE",
"592 162 CURVE",
"571 121 OFFCURVE",
"551 99 OFFCURVE",
"534 99 CURVE SMOOTH",
"518 99 OFFCURVE",
"498 122 OFFCURVE",
"474 166 CURVE SMOOTH",
"452 207 OFFCURVE",
"382 351 OFFCURVE",
"364 406 CURVE",
"392 467 OFFCURVE",
"426 525 OFFCURVE",
"464 564 CURVE SMOOTH",
"504 604 OFFCURVE",
"540 623 OFFCURVE",
"569 623 CURVE SMOOTH"
);
}
);
width = 665;
}
);
note = K;
unicode = 004B;
},
{
color = 0;
glyphname = L;
lastChange = "2018-02-09 16:29:38 +0000";
layers = (
{
layerId = "0B1DFD06-3317-40CA-B510-4969A0718C16";
paths = (
{
closed = 1;
nodes = (
"206 186 LINE",
"209 196 OFFCURVE",
"213 214 OFFCURVE",
"217 241 CURVE",
"227 287 OFFCURVE",
"240 371 OFFCURVE",
"263 518 CURVE SMOOTH",
"274 582 OFFCURVE",
"302 669 OFFCURVE",
"379 669 CURVE SMOOTH",
"395 669 OFFCURVE",
"412 663 OFFCURVE",
"433 657 CURVE SMOOTH",
"439 656 OFFCURVE",
"446 657 OFFCURVE",
"453 659 CURVE SMOOTH",
"467 662 OFFCURVE",
"484 672 OFFCURVE",
"506 687 CURVE",
"477 709 OFFCURVE",
"442 717 OFFCURVE",
"420 717 CURVE SMOOTH",
"366 717 OFFCURVE",
"315 694 OFFCURVE",
"268 648 CURVE SMOOTH",
"257 636 LINE SMOOTH",
"223 602 OFFCURVE",
"193 569 OFFCURVE",
"183 497 CURVE SMOOTH",
"176 435 OFFCURVE",
"136 195 OFFCURVE",
"129 172 CURVE",
"122 143 OFFCURVE",
"107 109 OFFCURVE",
"95 98 CURVE",
"88 99 OFFCURVE",
"85 101 OFFCURVE",
"81 101 CURVE SMOOTH",
"78 101 LINE",
"65 99 OFFCURVE",
"54 98 OFFCURVE",
"37 80 CURVE SMOOTH",
"7 47 OFFCURVE",
"-10 7 OFFCURVE",
"6 7 CURVE SMOOTH",
"16 7 OFFCURVE",
"18 11 OFFCURVE",
"23 16 CURVE",
"28 20 OFFCURVE",
"33 23 OFFCURVE",
"43 24 CURVE",
"60 24 OFFCURVE",
"112 18 OFFCURVE",
"168 13 CURVE SMOOTH",
"223 7 OFFCURVE",
"278 1 OFFCURVE",
"297 1 CURVE SMOOTH",
"346 1 OFFCURVE",
"399 28 OFFCURVE",
"444 70 CURVE SMOOTH",
"471 94 OFFCURVE",
"487 118 OFFCURVE",
"487 129 CURVE SMOOTH",
"487 133 OFFCURVE",
"484 143 OFFCURVE",
"479 156 CURVE",
"437 104 OFFCURVE",
"383 77 OFFCURVE",
"318 77 CURVE SMOOTH",
"302 77 OFFCURVE",
"291 78 OFFCURVE",
"153 89 CURVE",
"172 114 OFFCURVE",
"193 143 OFFCURVE",
"206 187 CURVE"
);
}
);
width = 521;
},
{
layerId = "98164D6F-6418-4A81-93B1-33F1F3344547";
paths = (
{
closed = 1;
nodes = (
"206 186 LINE",
"209 196 OFFCURVE",
"213 214 OFFCURVE",
"217 241 CURVE",
"227 287 OFFCURVE",
"240 371 OFFCURVE",
"263 518 CURVE SMOOTH",
"274 582 OFFCURVE",
"302 669 OFFCURVE",
"379 669 CURVE SMOOTH",
"395 669 OFFCURVE",
"412 663 OFFCURVE",
"433 657 CURVE SMOOTH",
"439 656 OFFCURVE",
"446 657 OFFCURVE",
"453 659 CURVE SMOOTH",
"467 662 OFFCURVE",
"484 672 OFFCURVE",
"506 687 CURVE",
"477 709 OFFCURVE",
"442 717 OFFCURVE",
"420 717 CURVE SMOOTH",
"366 717 OFFCURVE",
"315 694 OFFCURVE",
"268 648 CURVE SMOOTH",
"257 636 LINE SMOOTH",
"223 602 OFFCURVE",
"193 569 OFFCURVE",
"183 497 CURVE SMOOTH",
"176 435 OFFCURVE",
"136 195 OFFCURVE",
"129 172 CURVE",
"122 143 OFFCURVE",
"107 109 OFFCURVE",
"95 98 CURVE",
"88 99 OFFCURVE",
"85 101 OFFCURVE",
"81 101 CURVE SMOOTH",
"78 101 LINE",
"65 99 OFFCURVE",
"54 98 OFFCURVE",
"37 80 CURVE SMOOTH",
"7 47 OFFCURVE",
"-10 7 OFFCURVE",
"6 7 CURVE SMOOTH",
"16 7 OFFCURVE",
"18 11 OFFCURVE",
"23 16 CURVE",
"28 20 OFFCURVE",
"33 23 OFFCURVE",
"43 24 CURVE",
"60 24 OFFCURVE",
"112 18 OFFCURVE",
"168 13 CURVE SMOOTH",
"223 7 OFFCURVE",
"278 1 OFFCURVE",
"297 1 CURVE SMOOTH",
"346 1 OFFCURVE",
"399 28 OFFCURVE",
"444 70 CURVE SMOOTH",
"471 94 OFFCURVE",
"487 118 OFFCURVE",
"487 129 CURVE SMOOTH",
"487 133 OFFCURVE",
"484 143 OFFCURVE",
"479 156 CURVE",
"437 104 OFFCURVE",
"383 77 OFFCURVE",
"318 77 CURVE SMOOTH",
"302 77 OFFCURVE",
"291 78 OFFCURVE",
"153 89 CURVE",
"172 114 OFFCURVE",
"193 143 OFFCURVE",
"206 187 CURVE"
);
}
);
width = 521;
}
);
note = L;
unicode = 004C;
},
{
color = 0;
glyphname = M;
lastChange = "2018-02-09 16:29:38 +0000";
layers = (
{
layerId = "0B1DFD06-3317-40CA-B510-4969A0718C16";
paths = (
{
closed = 1;
nodes = (
"744 62 OFFCURVE",
"723 61 OFFCURVE",
"717 61 CURVE SMOOTH",
"701 61 OFFCURVE",
"689 67 OFFCURVE",
"682 68 CURVE",
"684 71 LINE SMOOTH",
"690 77 OFFCURVE",
"697 87 OFFCURVE",
"699 104 CURVE SMOOTH",
"728 463 OFFCURVE",
"743 592 OFFCURVE",
"772 724 CURVE",
"677 655 LINE",
"655 609 LINE",
"449 210 LINE",
"444 237 OFFCURVE",
"442 254 OFFCURVE",
"436 281 CURVE SMOOTH",
"402 429 LINE SMOOTH",
"375 542 OFFCURVE",
"361 622 OFFCURVE",
"365 673 CURVE",
"365 677 OFFCURVE",
"364 680 OFFCURVE",
"368 699 CURVE",
"349 699 OFFCURVE",
"335 700 OFFCURVE",
"325 700 CURVE SMOOTH",
"311 700 LINE",
"233 704 OFFCURVE",
"169 675 OFFCURVE",
"114 619 CURVE SMOOTH",
"60 562 OFFCURVE",
"30 493 OFFCURVE",
"24 412 CURVE SMOOTH",
"23 383 OFFCURVE",
"24 354 OFFCURVE",
"30 320 CURVE",
"111 410 LINE",
"99 443 OFFCURVE",
"94 471 OFFCURVE",
"95 497 CURVE SMOOTH",
"102 585 OFFCURVE",
"159 629 OFFCURVE",
"266 629 CURVE SMOOTH",
"277 629 LINE",
"244 476 OFFCURVE",
"213 315 OFFCURVE",
"180 162 CURVE SMOOTH",
"165 94 OFFCURVE",
"148 74 OFFCURVE",
"119 53 CURVE",
"108 41 OFFCURVE",
"89 1 OFFCURVE",
"99 1 CURVE SMOOTH",
"107 1 OFFCURVE",
"146 21 OFFCURVE",
"153 18 CURVE",
"175 14 OFFCURVE",
"197 9 OFFCURVE",
"213 3 CURVE",
"229 3 OFFCURVE",
"257 11 OFFCURVE",
"287 44 CURVE",
"310 71 OFFCURVE",
"290 77 OFFCURVE",
"278 70 CURVE",
"274 65 OFFCURVE",
"258 61 OFFCURVE",
"254 61 CURVE SMOOTH",
"241 61 OFFCURVE",
"227 64 OFFCURVE",
"210 68 CURVE",
"216 78 OFFCURVE",
"223 89 OFFCURVE",
"227 102 CURVE",
"307 507 LINE",
"311 466 OFFCURVE",
"320 447 OFFCURVE",
"331 395 CURVE SMOOTH",
"335 376 OFFCURVE",
"339 351 OFFCURVE",
"349 318 CURVE",
"376 210 OFFCURVE",
"392 109 OFFCURVE",
"391 41 CURVE",
"463 128 LINE",
"486 186 OFFCURVE",
"518 257 OFFCURVE",
"585 382 CURVE",
"602 417 OFFCURVE",
"628 462 OFFCURVE",
"662 518 CURVE",
"643 395 OFFCURVE",
"628 257 OFFCURVE",
"618 104 CURVE",
"616 94 OFFCURVE",
"613 87 OFFCURVE",
"609 82 CURVE",
"601 72 OFFCURVE",
"589 64 OFFCURVE",
"574 54 CURVE SMOOTH",
"555 43 OFFCURVE",
"538 4 OFFCURVE",
"551 4 CURVE SMOOTH",
"558 4 OFFCURVE",
"565 6 OFFCURVE",
"575 10 CURVE",
"588 14 OFFCURVE",
"605 20 OFFCURVE",
"611 18 CURVE",
"633 17 OFFCURVE",
"648 11 OFFCURVE",
"659 7 CURVE",
"663 6 OFFCURVE",
"673 3 OFFCURVE",
"675 3 CURVE SMOOTH",
"693 3 OFFCURVE",
"728 11 OFFCURVE",
"763 44 CURVE SMOOTH",
"790 71 OFFCURVE",
"764 75 OFFCURVE",
"750 67 CURVE"
);
}
);
width = 826;
},
{
layerId = "98164D6F-6418-4A81-93B1-33F1F3344547";
paths = (
{
closed = 1;
nodes = (
"744 62 OFFCURVE",
"723 61 OFFCURVE",
"717 61 CURVE SMOOTH",
"701 61 OFFCURVE",
"689 67 OFFCURVE",
"682 68 CURVE",
"684 71 LINE SMOOTH",
"690 77 OFFCURVE",
"697 87 OFFCURVE",
"699 104 CURVE SMOOTH",
"728 463 OFFCURVE",
"743 592 OFFCURVE",
"772 724 CURVE",
"677 655 LINE",
"655 609 LINE",
"449 210 LINE",
"444 237 OFFCURVE",
"442 254 OFFCURVE",
"436 281 CURVE SMOOTH",
"402 429 LINE SMOOTH",
"375 542 OFFCURVE",
"361 622 OFFCURVE",
"365 673 CURVE",
"365 677 OFFCURVE",
"364 680 OFFCURVE",
"368 699 CURVE",
"349 699 OFFCURVE",
"335 700 OFFCURVE",
"325 700 CURVE SMOOTH",
"311 700 LINE",
"233 704 OFFCURVE",
"169 675 OFFCURVE",
"114 619 CURVE SMOOTH",
"60 562 OFFCURVE",
"30 493 OFFCURVE",
"24 412 CURVE SMOOTH",
"23 383 OFFCURVE",
"24 354 OFFCURVE",
"30 320 CURVE",
"111 410 LINE",
"99 443 OFFCURVE",
"94 471 OFFCURVE",
"95 497 CURVE SMOOTH",
"102 585 OFFCURVE",
"159 629 OFFCURVE",
"266 629 CURVE SMOOTH",
"277 629 LINE",
"244 476 OFFCURVE",
"213 315 OFFCURVE",
"180 162 CURVE SMOOTH",
"165 94 OFFCURVE",
"148 74 OFFCURVE",
"119 53 CURVE",
"108 41 OFFCURVE",
"89 1 OFFCURVE",
"99 1 CURVE SMOOTH",
"107 1 OFFCURVE",
"146 21 OFFCURVE",
"153 18 CURVE",
"175 14 OFFCURVE",
"197 9 OFFCURVE",
"213 3 CURVE",
"229 3 OFFCURVE",
"257 11 OFFCURVE",
"287 44 CURVE",
"310 71 OFFCURVE",
"290 77 OFFCURVE",
"278 70 CURVE",
"274 65 OFFCURVE",
"258 61 OFFCURVE",
"254 61 CURVE SMOOTH",
"241 61 OFFCURVE",
"227 64 OFFCURVE",
"210 68 CURVE",
"216 78 OFFCURVE",
"223 89 OFFCURVE",
"227 102 CURVE",
"307 507 LINE",
"311 466 OFFCURVE",
"320 447 OFFCURVE",
"331 395 CURVE SMOOTH",
"335 376 OFFCURVE",
"339 351 OFFCURVE",
"349 318 CURVE",
"376 210 OFFCURVE",
"392 109 OFFCURVE",
"391 41 CURVE",
"463 128 LINE",
"486 186 OFFCURVE",
"518 257 OFFCURVE",
"585 382 CURVE",
"602 417 OFFCURVE",
"628 462 OFFCURVE",
"662 518 CURVE",
"643 395 OFFCURVE",
"628 257 OFFCURVE",
"618 104 CURVE",
"616 94 OFFCURVE",
"613 87 OFFCURVE",
"609 82 CURVE",
"601 72 OFFCURVE",
"589 64 OFFCURVE",
"574 54 CURVE SMOOTH",
"555 43 OFFCURVE",
"538 4 OFFCURVE",
"551 4 CURVE SMOOTH",
"558 4 OFFCURVE",
"565 6 OFFCURVE",
"575 10 CURVE",
"588 14 OFFCURVE",
"605 20 OFFCURVE",
"611 18 CURVE",
"633 17 OFFCURVE",
"648 11 OFFCURVE",
"659 7 CURVE",
"663 6 OFFCURVE",
"673 3 OFFCURVE",
"675 3 CURVE SMOOTH",
"693 3 OFFCURVE",
"728 11 OFFCURVE",
"763 44 CURVE SMOOTH",
"790 71 OFFCURVE",
"764 75 OFFCURVE",
"750 67 CURVE"
);
}
);
width = 826;
}
);
note = M;
unicode = 004D;
},
{
color = 0;
glyphname = N;
lastChange = "2018-02-09 16:29:38 +0000";
layers = (
{
layerId = "0B1DFD06-3317-40CA-B510-4969A0718C16";
paths = (
{
closed = 1;
nodes = (
"826 944 OFFCURVE",
"767 906 OFFCURVE",
"709 828 CURVE SMOOTH",
"659 761 OFFCURVE",
"621 640 OFFCURVE",
"592 481 CURVE SMOOTH",
"577 398 OFFCURVE",
"564 315 OFFCURVE",
"551 231 CURVE",
"535 266 OFFCURVE",
"523 287 OFFCURVE",
"498 328 CURVE SMOOTH",
"483 355 OFFCURVE",
"463 385 OFFCURVE",
"447 412 CURVE SMOOTH",
"391 510 OFFCURVE",
"356 602 OFFCURVE",
"361 669 CURVE",
"361 670 OFFCURVE",
"362 673 OFFCURVE",
"362 677 CURVE SMOOTH",
"362 680 OFFCURVE",
"364 687 OFFCURVE",
"366 699 CURVE",
"345 699 OFFCURVE",
"331 700 OFFCURVE",
"321 700 CURVE SMOOTH",
"307 700 LINE",
"231 704 OFFCURVE",
"168 673 OFFCURVE",
"112 618 CURVE SMOOTH",
"57 562 OFFCURVE",
"28 491 OFFCURVE",
"24 412 CURVE SMOOTH",
"23 379 OFFCURVE",
"23 352 OFFCURVE",
"28 320 CURVE",
"109 410 LINE",
"97 440 OFFCURVE",
"92 470 OFFCURVE",
"95 497 CURVE",
"101 585 OFFCURVE",
"158 629 OFFCURVE",
"266 629 CURVE SMOOTH",
"278 629 LINE",
"251 471 OFFCURVE",
"229 321 OFFCURVE",
"202 166 CURVE SMOOTH",
"187 88 OFFCURVE",
"178 75 OFFCURVE",
"148 53 CURVE",
"136 41 OFFCURVE",
"119 1 OFFCURVE",
"126 1 CURVE SMOOTH",
"136 1 OFFCURVE",
"169 18 OFFCURVE",
"179 18 CURVE",
"200 17 OFFCURVE",
"224 7 OFFCURVE",
"243 3 CURVE",
"256 3 OFFCURVE",
"284 11 OFFCURVE",
"312 44 CURVE SMOOTH",
"337 71 OFFCURVE",
"317 77 OFFCURVE",
"305 70 CURVE",
"301 65 OFFCURVE",
"285 61 OFFCURVE",
"281 61 CURVE SMOOTH",
"270 61 OFFCURVE",
"253 64 OFFCURVE",
"237 70 CURVE",
"241 80 OFFCURVE",
"250 89 OFFCURVE",
"254 102 CURVE",
"275 237 OFFCURVE",
"300 365 OFFCURVE",
"321 500 CURVE",
"337 449 OFFCURVE",
"358 402 OFFCURVE",
"402 332 CURVE SMOOTH",
"429 287 LINE SMOOTH",
"462 229 OFFCURVE",
"488 182 OFFCURVE",
"500 149 CURVE SMOOTH",
"507 131 OFFCURVE",
"508 101 OFFCURVE",
"506 62 CURVE",
"506 60 OFFCURVE",
"506 57 OFFCURVE",
"504 54 CURVE",
"503 47 OFFCURVE",
"501 41 OFFCURVE",
"501 38 CURVE",
"497 21 OFFCURVE",
"493 1 OFFCURVE",
"510 1 CURVE SMOOTH",
"533 1 OFFCURVE",
"567 58 OFFCURVE",
"574 72 CURVE SMOOTH",
"584 94 OFFCURVE",
"588 102 OFFCURVE",
"594 124 CURVE",
"605 186 LINE SMOOTH",
"616 243 OFFCURVE",
"633 352 OFFCURVE",
"672 559 CURVE SMOOTH",
"690 672 OFFCURVE",
"711 754 OFFCURVE",
"738 804 CURVE SMOOTH",
"761 849 OFFCURVE",
"791 872 OFFCURVE",
"829 872 CURVE SMOOTH",
"848 872 OFFCURVE",
"868 862 OFFCURVE",
"892 842 CURVE",
"964 927 LINE",
"937 937 OFFCURVE",
"916 944 OFFCURVE",
"889 944 CURVE SMOOTH"
);
}
);
width = 750;
},
{
layerId = "98164D6F-6418-4A81-93B1-33F1F3344547";
paths = (
{
closed = 1;
nodes = (
"826 944 OFFCURVE",
"767 906 OFFCURVE",
"709 828 CURVE SMOOTH",
"659 761 OFFCURVE",
"621 640 OFFCURVE",
"592 481 CURVE SMOOTH",
"577 398 OFFCURVE",
"564 315 OFFCURVE",
"551 231 CURVE",
"535 266 OFFCURVE",
"523 287 OFFCURVE",
"498 328 CURVE SMOOTH",
"483 355 OFFCURVE",
"463 385 OFFCURVE",
"447 412 CURVE SMOOTH",
"391 510 OFFCURVE",
"356 602 OFFCURVE",
"361 669 CURVE",
"361 670 OFFCURVE",
"362 673 OFFCURVE",
"362 677 CURVE SMOOTH",
"362 680 OFFCURVE",
"364 687 OFFCURVE",
"366 699 CURVE",
"345 699 OFFCURVE",
"331 700 OFFCURVE",
"321 700 CURVE SMOOTH",
"307 700 LINE",
"231 704 OFFCURVE",
"168 673 OFFCURVE",
"112 618 CURVE SMOOTH",
"57 562 OFFCURVE",
"28 491 OFFCURVE",
"24 412 CURVE SMOOTH",
"23 379 OFFCURVE",
"23 352 OFFCURVE",
"28 320 CURVE",
"109 410 LINE",
"97 440 OFFCURVE",
"92 470 OFFCURVE",
"95 497 CURVE",
"101 585 OFFCURVE",
"158 629 OFFCURVE",
"266 629 CURVE SMOOTH",
"278 629 LINE",
"251 471 OFFCURVE",
"229 321 OFFCURVE",
"202 166 CURVE SMOOTH",
"187 88 OFFCURVE",
"178 75 OFFCURVE",
"148 53 CURVE",
"136 41 OFFCURVE",
"119 1 OFFCURVE",
"126 1 CURVE SMOOTH",
"136 1 OFFCURVE",
"169 18 OFFCURVE",
"179 18 CURVE",
"200 17 OFFCURVE",
"224 7 OFFCURVE",
"243 3 CURVE",
"256 3 OFFCURVE",
"284 11 OFFCURVE",
"312 44 CURVE SMOOTH",
"337 71 OFFCURVE",
"317 77 OFFCURVE",
"305 70 CURVE",
"301 65 OFFCURVE",
"285 61 OFFCURVE",
"281 61 CURVE SMOOTH",
"270 61 OFFCURVE",
"253 64 OFFCURVE",
"237 70 CURVE",
"241 80 OFFCURVE",
"250 89 OFFCURVE",
"254 102 CURVE",
"275 237 OFFCURVE",
"300 365 OFFCURVE",
"321 500 CURVE",
"337 449 OFFCURVE",
"358 402 OFFCURVE",
"402 332 CURVE SMOOTH",
"429 287 LINE SMOOTH",
"462 229 OFFCURVE",
"488 182 OFFCURVE",
"500 149 CURVE SMOOTH",
"507 131 OFFCURVE",
"508 101 OFFCURVE",
"506 62 CURVE",
"506 60 OFFCURVE",
"506 57 OFFCURVE",
"504 54 CURVE",
"503 47 OFFCURVE",
"501 41 OFFCURVE",
"501 38 CURVE",
"497 21 OFFCURVE",
"493 1 OFFCURVE",
"510 1 CURVE SMOOTH",
"533 1 OFFCURVE",
"567 58 OFFCURVE",
"574 72 CURVE SMOOTH",
"584 94 OFFCURVE",
"588 102 OFFCURVE",
"594 124 CURVE",
"605 186 LINE SMOOTH",
"616 243 OFFCURVE",
"633 352 OFFCURVE",
"672 559 CURVE SMOOTH",
"690 672 OFFCURVE",
"711 754 OFFCURVE",
"738 804 CURVE SMOOTH",
"761 849 OFFCURVE",
"791 872 OFFCURVE",
"829 872 CURVE SMOOTH",
"848 872 OFFCURVE",
"868 862 OFFCURVE",
"892 842 CURVE",
"964 927 LINE",
"937 937 OFFCURVE",
"916 944 OFFCURVE",
"889 944 CURVE SMOOTH"
);
}
);
width = 750;
}
);
note = N;
unicode = 004E;
},
{
color = 0;
glyphname = O;
lastChange = "2018-02-09 16:29:38 +0000";
layers = (
{
layerId = "0B1DFD06-3317-40CA-B510-4969A0718C16";
paths = (
{
closed = 1;
nodes = (
"146 169 OFFCURVE",
"136 219 OFFCURVE",
"136 278 CURVE SMOOTH",
"136 294 OFFCURVE",
"136 311 OFFCURVE",
"138 328 CURVE SMOOTH",
"145 425 OFFCURVE",
"168 494 OFFCURVE",
"206 558 CURVE",
"246 619 OFFCURVE",
"300 662 OFFCURVE",
"352 662 CURVE SMOOTH",
"392 662 OFFCURVE",
"419 640 OFFCURVE",
"443 589 CURVE SMOOTH",
"463 547 OFFCURVE",
"473 496 OFFCURVE",
"473 435 CURVE SMOOTH",
"473 419 OFFCURVE",
"473 405 OFFCURVE",
"471 389 CURVE SMOOTH",
"464 293 OFFCURVE",
"444 229 OFFCURVE",
"405 165 CURVE SMOOTH",
"364 101 OFFCURVE",
"315 54 OFFCURVE",
"263 54 CURVE SMOOTH",
"222 54 OFFCURVE",
"189 75 OFFCURVE",
"165 128 CURVE SMOOTH"
);
},
{
closed = 1;
nodes = (
"513 217 OFFCURVE",
"552 321 OFFCURVE",
"561 439 CURVE SMOOTH",
"567 521 OFFCURVE",
"554 588 OFFCURVE",
"523 640 CURVE SMOOTH",
"490 692 OFFCURVE",
"453 719 OFFCURVE",
"398 719 CURVE SMOOTH",
"314 719 OFFCURVE",
"236 675 OFFCURVE",
"166 588 CURVE SMOOTH",
"97 501 OFFCURVE",
"57 398 OFFCURVE",
"48 280 CURVE SMOOTH",
"43 199 OFFCURVE",
"55 132 OFFCURVE",
"85 80 CURVE",
"118 28 OFFCURVE",
"153 0 OFFCURVE",
"209 0 CURVE SMOOTH",
"298 0 OFFCURVE",
"371 44 OFFCURVE",
"443 131 CURVE SMOOTH"
);
}
);
width = 605;
},
{
layerId = "98164D6F-6418-4A81-93B1-33F1F3344547";
paths = (
{
closed = 1;
nodes = (
"146 169 OFFCURVE",
"136 219 OFFCURVE",
"136 278 CURVE SMOOTH",
"136 294 OFFCURVE",
"136 311 OFFCURVE",
"138 328 CURVE SMOOTH",
"145 425 OFFCURVE",
"168 494 OFFCURVE",
"206 558 CURVE",
"246 619 OFFCURVE",
"300 662 OFFCURVE",
"352 662 CURVE SMOOTH",
"392 662 OFFCURVE",
"419 640 OFFCURVE",
"443 589 CURVE SMOOTH",
"463 547 OFFCURVE",
"473 496 OFFCURVE",
"473 435 CURVE SMOOTH",
"473 419 OFFCURVE",
"473 405 OFFCURVE",
"471 389 CURVE SMOOTH",
"464 293 OFFCURVE",
"444 229 OFFCURVE",
"405 165 CURVE SMOOTH",
"364 101 OFFCURVE",
"315 54 OFFCURVE",
"263 54 CURVE SMOOTH",
"222 54 OFFCURVE",
"189 75 OFFCURVE",
"165 128 CURVE SMOOTH"
);
},
{
closed = 1;
nodes = (
"513 217 OFFCURVE",
"552 321 OFFCURVE",
"561 439 CURVE SMOOTH",
"567 521 OFFCURVE",
"554 588 OFFCURVE",
"523 640 CURVE SMOOTH",
"490 692 OFFCURVE",
"453 719 OFFCURVE",
"398 719 CURVE SMOOTH",
"314 719 OFFCURVE",
"236 675 OFFCURVE",
"166 588 CURVE SMOOTH",
"97 501 OFFCURVE",
"57 398 OFFCURVE",
"48 280 CURVE SMOOTH",
"43 199 OFFCURVE",
"55 132 OFFCURVE",
"85 80 CURVE",
"118 28 OFFCURVE",
"153 0 OFFCURVE",
"209 0 CURVE SMOOTH",
"298 0 OFFCURVE",
"371 44 OFFCURVE",
"443 131 CURVE SMOOTH"
);
}
);
width = 605;
}
);
note = O;
unicode = 004F;
},
{
color = 0;
glyphname = P;
lastChange = "2018-02-09 16:29:38 +0000";
layers = (
{
layerId = "0B1DFD06-3317-40CA-B510-4969A0718C16";
paths = (
{
closed = 1;
nodes = (
"487 406 OFFCURVE",
"435 352 OFFCURVE",
"338 352 CURVE SMOOTH",
"329 352 OFFCURVE",
"320 354 OFFCURVE",
"307 356 CURVE",
"322 460 OFFCURVE",
"339 558 OFFCURVE",
"355 665 CURVE",
"456 663 OFFCURVE",
"503 612 OFFCURVE",
"496 514 CURVE SMOOTH"
);
},
{
closed = 1;
nodes = (
"284 720 OFFCURVE",
"200 689 OFFCURVE",
"133 633 CURVE",
"68 575 OFFCURVE",
"31 500 OFFCURVE",
"24 409 CURVE SMOOTH",
"23 379 OFFCURVE",
"24 349 OFFCURVE",
"30 318 CURVE",
"111 402 LINE",
"98 429 OFFCURVE",
"95 460 OFFCURVE",
"97 493 CURVE",
"104 574 OFFCURVE",
"158 629 OFFCURVE",
"277 657 CURVE",
"197 166 LINE SMOOTH",
"186 88 OFFCURVE",
"173 72 OFFCURVE",
"142 51 CURVE",
"132 41 OFFCURVE",
"109 1 OFFCURVE",
"122 1 CURVE SMOOTH",
"126 1 OFFCURVE",
"133 3 OFFCURVE",
"143 7 CURVE",
"156 11 OFFCURVE",
"172 17 OFFCURVE",
"176 17 CURVE",
"196 13 OFFCURVE",
"240 1 OFFCURVE",
"246 1 CURVE",
"258 -3 OFFCURVE",
"287 9 OFFCURVE",
"320 44 CURVE SMOOTH",
"341 68 OFFCURVE",
"322 78 OFFCURVE",
"311 68 CURVE",
"307 64 OFFCURVE",
"291 60 OFFCURVE",
"287 60 CURVE SMOOTH",
"274 60 OFFCURVE",
"260 62 OFFCURVE",
"243 67 CURVE",
"249 77 OFFCURVE",
"256 89 OFFCURVE",
"260 102 CURVE",
"271 166 OFFCURVE",
"285 231 OFFCURVE",
"297 295 CURVE",
"371 301 OFFCURVE",
"433 328 OFFCURVE",
"484 376 CURVE SMOOTH",
"538 427 OFFCURVE",
"567 487 OFFCURVE",
"571 555 CURVE SMOOTH",
"575 662 OFFCURVE",
"513 720 OFFCURVE",
"381 720 CURVE SMOOTH"
);
}
);
width = 577;
},
{
layerId = "98164D6F-6418-4A81-93B1-33F1F3344547";
paths = (
{
closed = 1;
nodes = (
"487 406 OFFCURVE",
"435 352 OFFCURVE",
"338 352 CURVE SMOOTH",
"329 352 OFFCURVE",
"320 354 OFFCURVE",
"307 356 CURVE",
"322 460 OFFCURVE",
"339 558 OFFCURVE",
"355 665 CURVE",
"456 663 OFFCURVE",
"503 612 OFFCURVE",
"496 514 CURVE SMOOTH"
);
},
{
closed = 1;
nodes = (
"284 720 OFFCURVE",
"200 689 OFFCURVE",
"133 633 CURVE",
"68 575 OFFCURVE",
"31 500 OFFCURVE",
"24 409 CURVE SMOOTH",
"23 379 OFFCURVE",
"24 349 OFFCURVE",
"30 318 CURVE",
"111 402 LINE",
"98 429 OFFCURVE",
"95 460 OFFCURVE",
"97 493 CURVE",
"104 574 OFFCURVE",
"158 629 OFFCURVE",
"277 657 CURVE",
"197 166 LINE SMOOTH",
"186 88 OFFCURVE",
"173 72 OFFCURVE",
"142 51 CURVE",
"132 41 OFFCURVE",
"109 1 OFFCURVE",
"122 1 CURVE SMOOTH",
"126 1 OFFCURVE",
"133 3 OFFCURVE",
"143 7 CURVE",
"156 11 OFFCURVE",
"172 17 OFFCURVE",
"176 17 CURVE",
"196 13 OFFCURVE",
"240 1 OFFCURVE",
"246 1 CURVE",
"258 -3 OFFCURVE",
"287 9 OFFCURVE",
"320 44 CURVE SMOOTH",
"341 68 OFFCURVE",
"322 78 OFFCURVE",
"311 68 CURVE",
"307 64 OFFCURVE",
"291 60 OFFCURVE",
"287 60 CURVE SMOOTH",
"274 60 OFFCURVE",
"260 62 OFFCURVE",
"243 67 CURVE",
"249 77 OFFCURVE",
"256 89 OFFCURVE",
"260 102 CURVE",
"271 166 OFFCURVE",
"285 231 OFFCURVE",
"297 295 CURVE",
"371 301 OFFCURVE",
"433 328 OFFCURVE",
"484 376 CURVE SMOOTH",
"538 427 OFFCURVE",
"567 487 OFFCURVE",
"571 555 CURVE SMOOTH",
"575 662 OFFCURVE",
"513 720 OFFCURVE",
"381 720 CURVE SMOOTH"
);
}
);
width = 577;
}
);
note = P;
unicode = 0050;
},
{
color = 0;
glyphname = Q;
lastChange = "2018-02-09 16:29:38 +0000";
layers = (
{
layerId = "0B1DFD06-3317-40CA-B510-4969A0718C16";
paths = (
{
closed = 1;
nodes = (
"287 102 OFFCURVE",
"300 88 OFFCURVE",
"305 67 CURVE",
"307 62 OFFCURVE",
"310 62 OFFCURVE",
"311 58 CURVE",
"302 55 OFFCURVE",
"295 54 OFFCURVE",
"288 54 CURVE SMOOTH",
"256 54 OFFCURVE",
"230 64 OFFCURVE",
"209 92 CURVE",
"230 98 OFFCURVE",
"246 102 OFFCURVE",
"258 102 CURVE SMOOTH"
);
},
{
closed = 1;
nodes = (
"170 426 OFFCURVE",
"192 494 OFFCURVE",
"230 558 CURVE",
"271 619 OFFCURVE",
"325 662 OFFCURVE",
"376 662 CURVE SMOOTH",
"416 662 OFFCURVE",
"447 638 OFFCURVE",
"469 591 CURVE",
"490 550 OFFCURVE",
"497 496 OFFCURVE",
"497 439 CURVE SMOOTH",
"497 423 OFFCURVE",
"497 408 OFFCURVE",
"496 391 CURVE SMOOTH",
"488 294 OFFCURVE",
"469 227 OFFCURVE",
"430 165 CURVE SMOOTH",
"415 141 OFFCURVE",
"392 114 OFFCURVE",
"373 95 CURVE",
"369 111 OFFCURVE",
"361 131 OFFCURVE",
"355 141 CURVE",
"342 156 OFFCURVE",
"325 165 OFFCURVE",
"304 165 CURVE SMOOTH",
"268 165 OFFCURVE",
"219 142 OFFCURVE",
"192 121 CURVE",
"170 170 OFFCURVE",
"162 219 OFFCURVE",
"162 280 CURVE SMOOTH",
"162 297 OFFCURVE",
"162 311 OFFCURVE",
"163 329 CURVE SMOOTH"
);
},
{
closed = 1;
nodes = (
"710 -65 OFFCURVE",
"709 -60 OFFCURVE",
"706 -55 CURVE",
"701 -45 OFFCURVE",
"694 -37 OFFCURVE",
"682 -31 CURVE",
"665 -23 OFFCURVE",
"629 -84 OFFCURVE",
"629 -88 CURVE",
"645 -94 OFFCURVE",
"650 -108 OFFCURVE",
"650 -124 CURVE SMOOTH",
"650 -151 OFFCURVE",
"608 -165 OFFCURVE",
"577 -156 CURVE",
"514 -149 OFFCURVE",
"413 18 OFFCURVE",
"391 57 CURVE",
"417 75 OFFCURVE",
"443 99 OFFCURVE",
"467 131 CURVE",
"540 217 OFFCURVE",
"575 320 OFFCURVE",
"585 439 CURVE SMOOTH",
"591 523 OFFCURVE",
"577 588 OFFCURVE",
"548 640 CURVE",
"515 690 OFFCURVE",
"477 719 OFFCURVE",
"425 719 CURVE SMOOTH",
"338 719 OFFCURVE",
"261 675 OFFCURVE",
"192 588 CURVE SMOOTH",
"121 503 OFFCURVE",
"81 400 OFFCURVE",
"74 280 CURVE SMOOTH",
"68 199 OFFCURVE",
"80 132 OFFCURVE",
"109 80 CURVE",
"142 27 OFFCURVE",
"183 0 OFFCURVE",
"233 0 CURVE SMOOTH",
"267 0 OFFCURVE",
"298 7 OFFCURVE",
"328 20 CURVE",
"342 0 LINE SMOOTH",
"413 -102 OFFCURVE",
"442 -142 OFFCURVE",
"479 -168 CURVE SMOOTH",
"511 -189 OFFCURVE",
"547 -200 OFFCURVE",
"577 -200 CURVE SMOOTH",
"612 -200 OFFCURVE",
"640 -187 OFFCURVE",
"665 -163 CURVE",
"682 -145 OFFCURVE",
"710 -107 OFFCURVE",
"710 -72 CURVE SMOOTH"
);
}
);
width = 653;
},
{
layerId = "98164D6F-6418-4A81-93B1-33F1F3344547";
paths = (
{
closed = 1;
nodes = (
"287 102 OFFCURVE",
"300 88 OFFCURVE",
"305 67 CURVE",
"307 62 OFFCURVE",
"310 62 OFFCURVE",
"311 58 CURVE",
"302 55 OFFCURVE",
"295 54 OFFCURVE",
"288 54 CURVE SMOOTH",
"256 54 OFFCURVE",
"230 64 OFFCURVE",
"209 92 CURVE",
"230 98 OFFCURVE",
"246 102 OFFCURVE",
"258 102 CURVE SMOOTH"
);
},
{
closed = 1;
nodes = (
"170 426 OFFCURVE",
"192 494 OFFCURVE",
"230 558 CURVE",
"271 619 OFFCURVE",
"325 662 OFFCURVE",
"376 662 CURVE SMOOTH",
"416 662 OFFCURVE",
"447 638 OFFCURVE",
"469 591 CURVE",
"490 550 OFFCURVE",
"497 496 OFFCURVE",
"497 439 CURVE SMOOTH",
"497 423 OFFCURVE",
"497 408 OFFCURVE",
"496 391 CURVE SMOOTH",
"488 294 OFFCURVE",
"469 227 OFFCURVE",
"430 165 CURVE SMOOTH",
"415 141 OFFCURVE",
"392 114 OFFCURVE",
"373 95 CURVE",
"369 111 OFFCURVE",
"361 131 OFFCURVE",
"355 141 CURVE",
"342 156 OFFCURVE",
"325 165 OFFCURVE",
"304 165 CURVE SMOOTH",
"268 165 OFFCURVE",
"219 142 OFFCURVE",
"192 121 CURVE",
"170 170 OFFCURVE",
"162 219 OFFCURVE",
"162 280 CURVE SMOOTH",
"162 297 OFFCURVE",
"162 311 OFFCURVE",
"163 329 CURVE SMOOTH"
);
},
{
closed = 1;
nodes = (
"710 -65 OFFCURVE",
"709 -60 OFFCURVE",
"706 -55 CURVE",
"701 -45 OFFCURVE",
"694 -37 OFFCURVE",
"682 -31 CURVE",
"665 -23 OFFCURVE",
"629 -84 OFFCURVE",
"629 -88 CURVE",
"645 -94 OFFCURVE",
"650 -108 OFFCURVE",
"650 -124 CURVE SMOOTH",
"650 -151 OFFCURVE",
"608 -165 OFFCURVE",
"577 -156 CURVE",
"514 -149 OFFCURVE",
"413 18 OFFCURVE",
"391 57 CURVE",
"417 75 OFFCURVE",
"443 99 OFFCURVE",
"467 131 CURVE",
"540 217 OFFCURVE",
"575 320 OFFCURVE",
"585 439 CURVE SMOOTH",
"591 523 OFFCURVE",
"577 588 OFFCURVE",
"548 640 CURVE",
"515 690 OFFCURVE",
"477 719 OFFCURVE",
"425 719 CURVE SMOOTH",
"338 719 OFFCURVE",
"261 675 OFFCURVE",
"192 588 CURVE SMOOTH",
"121 503 OFFCURVE",
"81 400 OFFCURVE",
"74 280 CURVE SMOOTH",
"68 199 OFFCURVE",
"80 132 OFFCURVE",
"109 80 CURVE",
"142 27 OFFCURVE",
"183 0 OFFCURVE",
"233 0 CURVE SMOOTH",
"267 0 OFFCURVE",
"298 7 OFFCURVE",
"328 20 CURVE",
"342 0 LINE SMOOTH",
"413 -102 OFFCURVE",
"442 -142 OFFCURVE",
"479 -168 CURVE SMOOTH",
"511 -189 OFFCURVE",
"547 -200 OFFCURVE",
"577 -200 CURVE SMOOTH",
"612 -200 OFFCURVE",
"640 -187 OFFCURVE",
"665 -163 CURVE",
"682 -145 OFFCURVE",
"710 -107 OFFCURVE",
"710 -72 CURVE SMOOTH"
);
}
);
width = 653;
}
);
note = Q;
unicode = 0051;
},
{
color = 0;
glyphname = R;
lastChange = "2018-02-09 16:29:38 +0000";
layers = (
{
layerId = "0B1DFD06-3317-40CA-B510-4969A0718C16";
paths = (
{
closed = 1;
nodes = (
"344 376 OFFCURVE",
"327 378 OFFCURVE",
"308 382 CURVE",
"352 662 LINE",
"449 660 OFFCURVE",
"498 618 OFFCURVE",
"491 533 CURVE SMOOTH",
"488 483 OFFCURVE",
"469 439 OFFCURVE",
"432 402 CURVE SMOOTH",
"425 395 OFFCURVE",
"399 375 OFFCURVE",
"361 376 CURVE"
);
},
{
closed = 1;
nodes = (
"621 153 LINE",
"605 108 OFFCURVE",
"586 87 OFFCURVE",
"565 88 CURVE",
"552 89 OFFCURVE",
"538 105 OFFCURVE",
"524 135 CURVE SMOOTH",
"508 169 OFFCURVE",
"486 231 OFFCURVE",
"457 311 CURVE",
"453 321 OFFCURVE",
"433 327 OFFCURVE",
"415 334 CURVE",
"391 334 LINE",
"412 339 OFFCURVE",
"436 358 OFFCURVE",
"446 362 CURVE",
"524 420 OFFCURVE",
"565 486 OFFCURVE",
"571 558 CURVE SMOOTH",
"578 665 OFFCURVE",
"514 719 OFFCURVE",
"381 719 CURVE SMOOTH",
"280 719 OFFCURVE",
"197 690 OFFCURVE",
"133 632 CURVE SMOOTH",
"67 575 OFFCURVE",
"30 498 OFFCURVE",
"24 409 CURVE SMOOTH",
"21 379 OFFCURVE",
"23 348 OFFCURVE",
"28 318 CURVE",
"109 400 LINE",
"99 430 OFFCURVE",
"94 459 OFFCURVE",
"95 493 CURVE",
"102 572 OFFCURVE",
"156 629 OFFCURVE",
"275 656 CURVE",
"196 166 LINE SMOOTH",
"185 87 OFFCURVE",
"172 74 OFFCURVE",
"142 51 CURVE",
"132 41 OFFCURVE",
"107 1 OFFCURVE",
"121 1 CURVE SMOOTH",
"126 1 OFFCURVE",
"169 17 OFFCURVE",
"173 17 CURVE",
"192 16 OFFCURVE",
"229 7 OFFCURVE",
"241 3 CURVE",
"243 3 OFFCURVE",
"246 1 OFFCURVE",
"247 1 CURVE SMOOTH",
"263 1 OFFCURVE",
"288 11 OFFCURVE",
"318 44 CURVE",
"345 71 OFFCURVE",
"321 75 OFFCURVE",
"310 68 CURVE",
"305 64 OFFCURVE",
"290 60 OFFCURVE",
"285 60 CURVE SMOOTH",
"274 60 OFFCURVE",
"260 62 OFFCURVE",
"243 67 CURVE",
"250 77 OFFCURVE",
"256 89 OFFCURVE",
"260 102 CURVE",
"271 178 OFFCURVE",
"287 251 OFFCURVE",
"300 325 CURVE",
"315 325 LINE SMOOTH",
"321 325 OFFCURVE",
"328 325 OFFCURVE",
"334 324 CURVE SMOOTH",
"351 320 OFFCURVE",
"369 312 OFFCURVE",
"373 307 CURVE",
"398 220 OFFCURVE",
"425 149 OFFCURVE",
"453 94 CURVE SMOOTH",
"486 33 OFFCURVE",
"514 1 OFFCURVE",
"538 1 CURVE SMOOTH",
"554 1 OFFCURVE",
"575 17 OFFCURVE",
"602 50 CURVE SMOOTH",
"628 80 OFFCURVE",
"642 107 OFFCURVE",
"643 131 CURVE",
"643 141 OFFCURVE",
"639 149 OFFCURVE",
"630 156 CURVE"
);
}
);
width = 643;
},
{
layerId = "98164D6F-6418-4A81-93B1-33F1F3344547";
paths = (
{
closed = 1;
nodes = (
"344 376 OFFCURVE",
"327 378 OFFCURVE",
"308 382 CURVE",
"352 662 LINE",
"449 660 OFFCURVE",
"498 618 OFFCURVE",
"491 533 CURVE SMOOTH",
"488 483 OFFCURVE",
"469 439 OFFCURVE",
"432 402 CURVE SMOOTH",
"425 395 OFFCURVE",
"399 375 OFFCURVE",
"361 376 CURVE"
);
},
{
closed = 1;
nodes = (
"621 153 LINE",
"605 108 OFFCURVE",
"586 87 OFFCURVE",
"565 88 CURVE",
"552 89 OFFCURVE",
"538 105 OFFCURVE",
"524 135 CURVE SMOOTH",
"508 169 OFFCURVE",
"486 231 OFFCURVE",
"457 311 CURVE",
"453 321 OFFCURVE",
"433 327 OFFCURVE",
"415 334 CURVE",
"391 334 LINE",
"412 339 OFFCURVE",
"436 358 OFFCURVE",
"446 362 CURVE",
"524 420 OFFCURVE",
"565 486 OFFCURVE",
"571 558 CURVE SMOOTH",
"578 665 OFFCURVE",
"514 719 OFFCURVE",
"381 719 CURVE SMOOTH",
"280 719 OFFCURVE",
"197 690 OFFCURVE",
"133 632 CURVE SMOOTH",
"67 575 OFFCURVE",
"30 498 OFFCURVE",
"24 409 CURVE SMOOTH",
"21 379 OFFCURVE",
"23 348 OFFCURVE",
"28 318 CURVE",
"109 400 LINE",
"99 430 OFFCURVE",
"94 459 OFFCURVE",
"95 493 CURVE",
"102 572 OFFCURVE",
"156 629 OFFCURVE",
"275 656 CURVE",
"196 166 LINE SMOOTH",
"185 87 OFFCURVE",
"172 74 OFFCURVE",
"142 51 CURVE",
"132 41 OFFCURVE",
"107 1 OFFCURVE",
"121 1 CURVE SMOOTH",
"126 1 OFFCURVE",
"169 17 OFFCURVE",
"173 17 CURVE",
"192 16 OFFCURVE",
"229 7 OFFCURVE",
"241 3 CURVE",
"243 3 OFFCURVE",
"246 1 OFFCURVE",
"247 1 CURVE SMOOTH",
"263 1 OFFCURVE",
"288 11 OFFCURVE",
"318 44 CURVE",
"345 71 OFFCURVE",
"321 75 OFFCURVE",
"310 68 CURVE",
"305 64 OFFCURVE",
"290 60 OFFCURVE",
"285 60 CURVE SMOOTH",
"274 60 OFFCURVE",
"260 62 OFFCURVE",
"243 67 CURVE",
"250 77 OFFCURVE",
"256 89 OFFCURVE",
"260 102 CURVE",
"271 178 OFFCURVE",
"287 251 OFFCURVE",
"300 325 CURVE",
"315 325 LINE SMOOTH",
"321 325 OFFCURVE",
"328 325 OFFCURVE",
"334 324 CURVE SMOOTH",
"351 320 OFFCURVE",
"369 312 OFFCURVE",
"373 307 CURVE",
"398 220 OFFCURVE",
"425 149 OFFCURVE",
"453 94 CURVE SMOOTH",
"486 33 OFFCURVE",
"514 1 OFFCURVE",
"538 1 CURVE SMOOTH",
"554 1 OFFCURVE",
"575 17 OFFCURVE",
"602 50 CURVE SMOOTH",
"628 80 OFFCURVE",
"642 107 OFFCURVE",
"643 131 CURVE",
"643 141 OFFCURVE",
"639 149 OFFCURVE",
"630 156 CURVE"
);
}
);
width = 643;
}
);
note = R;
unicode = 0052;
},
{
color = 0;
glyphname = S;
lastChange = "2018-02-09 16:29:38 +0000";
layers = (
{
layerId = "0B1DFD06-3317-40CA-B510-4969A0718C16";
paths = (
{
closed = 1;
nodes = (
"28 114 LINE",
"44 38 OFFCURVE",
"91 0 OFFCURVE",
"169 0 CURVE SMOOTH",
"230 0 OFFCURVE",
"284 21 OFFCURVE",
"328 62 CURVE SMOOTH",
"372 104 OFFCURVE",
"398 155 OFFCURVE",
"402 216 CURVE SMOOTH",
"406 271 OFFCURVE",
"382 327 OFFCURVE",
"338 376 CURVE SMOOTH",
"260 462 OFFCURVE",
"234 496 OFFCURVE",
"223 514 CURVE SMOOTH",
"182 586 OFFCURVE",
"224 670 OFFCURVE",
"304 670 CURVE SMOOTH",
"328 670 OFFCURVE",
"356 662 OFFCURVE",
"372 649 CURVE SMOOTH",
"391 633 OFFCURVE",
"399 618 OFFCURVE",
"398 599 CURVE",
"396 589 OFFCURVE",
"393 577 OFFCURVE",
"386 558 CURVE",
"398 547 OFFCURVE",
"403 551 OFFCURVE",
"408 552 CURVE",
"432 571 OFFCURVE",
"450 611 OFFCURVE",
"454 621 CURVE",
"459 635 OFFCURVE",
"467 677 OFFCURVE",
"423 700 CURVE",
"399 711 OFFCURVE",
"371 717 OFFCURVE",
"341 717 CURVE SMOOTH",
"285 717 OFFCURVE",
"240 700 OFFCURVE",
"202 665 CURVE",
"166 626 OFFCURVE",
"143 582 OFFCURVE",
"139 525 CURVE SMOOTH",
"138 496 OFFCURVE",
"143 466 OFFCURVE",
"153 444 CURVE",
"165 423 OFFCURVE",
"192 386 OFFCURVE",
"271 301 CURVE SMOOTH",
"312 254 OFFCURVE",
"331 209 OFFCURVE",
"328 163 CURVE SMOOTH",
"325 131 OFFCURVE",
"314 104 OFFCURVE",
"293 81 CURVE",
"270 60 OFFCURVE",
"243 50 OFFCURVE",
"213 50 CURVE SMOOTH",
"149 50 OFFCURVE",
"99 114 OFFCURVE",
"94 199 CURVE"
);
}
);
width = 487;
},
{
layerId = "98164D6F-6418-4A81-93B1-33F1F3344547";
paths = (
{
closed = 1;
nodes = (
"28 114 LINE",
"44 38 OFFCURVE",
"91 0 OFFCURVE",
"169 0 CURVE SMOOTH",
"230 0 OFFCURVE",
"284 21 OFFCURVE",
"328 62 CURVE SMOOTH",
"372 104 OFFCURVE",
"398 155 OFFCURVE",
"402 216 CURVE SMOOTH",
"406 271 OFFCURVE",
"382 327 OFFCURVE",
"338 376 CURVE SMOOTH",
"260 462 OFFCURVE",
"234 496 OFFCURVE",
"223 514 CURVE SMOOTH",
"182 586 OFFCURVE",
"224 670 OFFCURVE",
"304 670 CURVE SMOOTH",
"328 670 OFFCURVE",
"356 662 OFFCURVE",
"372 649 CURVE SMOOTH",
"391 633 OFFCURVE",
"399 618 OFFCURVE",
"398 599 CURVE",
"396 589 OFFCURVE",
"393 577 OFFCURVE",
"386 558 CURVE",
"398 547 OFFCURVE",
"403 551 OFFCURVE",
"408 552 CURVE",
"432 571 OFFCURVE",
"450 611 OFFCURVE",
"454 621 CURVE",
"459 635 OFFCURVE",
"467 677 OFFCURVE",
"423 700 CURVE",
"399 711 OFFCURVE",
"371 717 OFFCURVE",
"341 717 CURVE SMOOTH",
"285 717 OFFCURVE",
"240 700 OFFCURVE",
"202 665 CURVE",
"166 626 OFFCURVE",
"143 582 OFFCURVE",
"139 525 CURVE SMOOTH",
"138 496 OFFCURVE",
"143 466 OFFCURVE",
"153 444 CURVE",
"165 423 OFFCURVE",
"192 386 OFFCURVE",
"271 301 CURVE SMOOTH",
"312 254 OFFCURVE",
"331 209 OFFCURVE",
"328 163 CURVE SMOOTH",
"325 131 OFFCURVE",
"314 104 OFFCURVE",
"293 81 CURVE",
"270 60 OFFCURVE",
"243 50 OFFCURVE",
"213 50 CURVE SMOOTH",
"149 50 OFFCURVE",
"99 114 OFFCURVE",
"94 199 CURVE"
);
}
);
width = 487;
}
);
note = S;
unicode = 0053;
},
{
color = 0;
glyphname = T;
lastChange = "2018-02-09 16:29:38 +0000";
layers = (
{
layerId = "0B1DFD06-3317-40CA-B510-4969A0718C16";
paths = (
{
closed = 1;
nodes = (
"615 882 LINE",
"630 858 OFFCURVE",
"636 834 OFFCURVE",
"633 808 CURVE SMOOTH",
"628 736 OFFCURVE",
"578 699 OFFCURVE",
"484 699 CURVE SMOOTH",
"320 699 LINE SMOOTH",
"239 699 OFFCURVE",
"192 676 OFFCURVE",
"145 635 CURVE SMOOTH",
"81 577 OFFCURVE",
"44 501 OFFCURVE",
"37 409 CURVE SMOOTH",
"36 382 OFFCURVE",
"37 352 OFFCURVE",
"43 320 CURVE",
"124 410 LINE",
"112 443 OFFCURVE",
"107 471 OFFCURVE",
"108 497 CURVE SMOOTH",
"115 586 OFFCURVE",
"152 630 OFFCURVE",
"260 630 CURVE SMOOTH",
"320 630 LINE",
"295 471 OFFCURVE",
"271 324 OFFCURVE",
"244 166 CURVE SMOOTH",
"229 85 OFFCURVE",
"220 77 OFFCURVE",
"189 53 CURVE",
"176 44 OFFCURVE",
"159 1 OFFCURVE",
"169 1 CURVE SMOOTH",
"179 1 OFFCURVE",
"214 17 OFFCURVE",
"220 17 CURVE",
"237 16 OFFCURVE",
"257 10 OFFCURVE",
"274 6 CURVE SMOOTH",
"280 4 OFFCURVE",
"290 1 OFFCURVE",
"294 1 CURVE",
"304 -3 OFFCURVE",
"332 6 OFFCURVE",
"365 44 CURVE",
"386 67 OFFCURVE",
"369 78 OFFCURVE",
"356 68 CURVE",
"352 64 OFFCURVE",
"337 60 OFFCURVE",
"332 60 CURVE SMOOTH",
"321 60 OFFCURVE",
"305 62 OFFCURVE",
"290 68 CURVE",
"297 74 OFFCURVE",
"302 85 OFFCURVE",
"305 102 CURVE SMOOTH",
"396 630 LINE",
"427 630 LINE SMOOTH",
"497 630 OFFCURVE",
"558 652 OFFCURVE",
"611 696 CURVE SMOOTH",
"660 740 OFFCURVE",
"689 797 OFFCURVE",
"693 865 CURVE SMOOTH",
"694 893 OFFCURVE",
"689 927 OFFCURVE",
"676 950 CURVE"
);
}
);
width = 581;
},
{
layerId = "98164D6F-6418-4A81-93B1-33F1F3344547";
paths = (
{
closed = 1;
nodes = (
"615 882 LINE",
"630 858 OFFCURVE",
"636 834 OFFCURVE",
"633 808 CURVE SMOOTH",
"628 736 OFFCURVE",
"578 699 OFFCURVE",
"484 699 CURVE SMOOTH",
"320 699 LINE SMOOTH",
"239 699 OFFCURVE",
"192 676 OFFCURVE",
"145 635 CURVE SMOOTH",
"81 577 OFFCURVE",
"44 501 OFFCURVE",
"37 409 CURVE SMOOTH",
"36 382 OFFCURVE",
"37 352 OFFCURVE",
"43 320 CURVE",
"124 410 LINE",
"112 443 OFFCURVE",
"107 471 OFFCURVE",
"108 497 CURVE SMOOTH",
"115 586 OFFCURVE",
"152 630 OFFCURVE",
"260 630 CURVE SMOOTH",
"320 630 LINE",
"295 471 OFFCURVE",
"271 324 OFFCURVE",
"244 166 CURVE SMOOTH",
"229 85 OFFCURVE",
"220 77 OFFCURVE",
"189 53 CURVE",
"176 44 OFFCURVE",
"159 1 OFFCURVE",
"169 1 CURVE SMOOTH",
"179 1 OFFCURVE",
"214 17 OFFCURVE",
"220 17 CURVE",
"237 16 OFFCURVE",
"257 10 OFFCURVE",
"274 6 CURVE SMOOTH",
"280 4 OFFCURVE",
"290 1 OFFCURVE",
"294 1 CURVE",
"304 -3 OFFCURVE",
"332 6 OFFCURVE",
"365 44 CURVE",
"386 67 OFFCURVE",
"369 78 OFFCURVE",
"356 68 CURVE",
"352 64 OFFCURVE",
"337 60 OFFCURVE",
"332 60 CURVE SMOOTH",
"321 60 OFFCURVE",
"305 62 OFFCURVE",
"290 68 CURVE",
"297 74 OFFCURVE",
"302 85 OFFCURVE",
"305 102 CURVE SMOOTH",
"396 630 LINE",
"427 630 LINE SMOOTH",
"497 630 OFFCURVE",
"558 652 OFFCURVE",
"611 696 CURVE SMOOTH",
"660 740 OFFCURVE",
"689 797 OFFCURVE",
"693 865 CURVE SMOOTH",
"694 893 OFFCURVE",
"689 927 OFFCURVE",
"676 950 CURVE"
);
}
);
width = 581;
}
);
note = T;
unicode = 0054;
},
{
color = 0;
glyphname = U;
lastChange = "2018-02-09 16:29:38 +0000";
layers = (
{
layerId = "0B1DFD06-3317-40CA-B510-4969A0718C16";
paths = (
{
closed = 1;
nodes = (
"187 244 OFFCURVE",
"183 217 OFFCURVE",
"183 187 CURVE SMOOTH",
"183 91 OFFCURVE",
"222 0 OFFCURVE",
"301 0 CURVE SMOOTH",
"364 0 OFFCURVE",
"430 57 OFFCURVE",
"486 142 CURVE",
"462 -6 LINE",
"618 85 LINE",
"633 95 OFFCURVE",
"642 105 OFFCURVE",
"643 114 CURVE",
"643 124 LINE SMOOTH",
"643 129 OFFCURVE",
"645 135 OFFCURVE",
"645 139 CURVE",
"618 124 OFFCURVE",
"596 115 OFFCURVE",
"584 115 CURVE SMOOTH",
"567 115 OFFCURVE",
"559 129 OFFCURVE",
"562 159 CURVE SMOOTH",
"564 178 OFFCURVE",
"567 197 OFFCURVE",
"571 226 CURVE SMOOTH",
"615 510 LINE SMOOTH",
"630 608 OFFCURVE",
"630 653 OFFCURVE",
"665 706 CURVE",
"669 717 OFFCURVE",
"652 720 OFFCURVE",
"635 714 CURVE",
"601 701 OFFCURVE",
"565 677 OFFCURVE",
"559 645 CURVE SMOOTH",
"525 442 OFFCURVE",
"518 386 OFFCURVE",
"518 382 CURVE",
"501 280 OFFCURVE",
"480 206 OFFCURVE",
"450 151 CURVE",
"436 118 OFFCURVE",
"381 64 OFFCURVE",
"339 64 CURVE SMOOTH",
"293 64 OFFCURVE",
"267 115 OFFCURVE",
"267 193 CURVE SMOOTH",
"267 216 OFFCURVE",
"268 237 OFFCURVE",
"273 270 CURVE SMOOTH",
"280 324 OFFCURVE",
"321 508 OFFCURVE",
"328 538 CURVE SMOOTH",
"345 611 OFFCURVE",
"361 672 OFFCURVE",
"376 699 CURVE",
"307 699 LINE SMOOTH",
"222 699 OFFCURVE",
"172 676 OFFCURVE",
"116 621 CURVE SMOOTH",
"61 568 OFFCURVE",
"30 497 OFFCURVE",
"24 410 CURVE SMOOTH",
"23 382 OFFCURVE",
"24 352 OFFCURVE",
"30 320 CURVE",
"111 410 LINE",
"99 443 OFFCURVE",
"94 471 OFFCURVE",
"95 497 CURVE SMOOTH",
"102 584 OFFCURVE",
"138 630 OFFCURVE",
"244 630 CURVE SMOOTH",
"270 630 LINE",
"260 598 OFFCURVE",
"246 523 OFFCURVE",
"230 443 CURVE SMOOTH",
"217 376 OFFCURVE",
"203 311 OFFCURVE",
"193 271 CURVE"
);
}
);
width = 694;
},
{
layerId = "98164D6F-6418-4A81-93B1-33F1F3344547";
paths = (
{
closed = 1;
nodes = (
"187 244 OFFCURVE",
"183 217 OFFCURVE",
"183 187 CURVE SMOOTH",
"183 91 OFFCURVE",
"222 0 OFFCURVE",
"301 0 CURVE SMOOTH",
"364 0 OFFCURVE",
"430 57 OFFCURVE",
"486 142 CURVE",
"462 -6 LINE",
"618 85 LINE",
"633 95 OFFCURVE",
"642 105 OFFCURVE",
"643 114 CURVE",
"643 124 LINE SMOOTH",
"643 129 OFFCURVE",
"645 135 OFFCURVE",
"645 139 CURVE",
"618 124 OFFCURVE",
"596 115 OFFCURVE",
"584 115 CURVE SMOOTH",
"567 115 OFFCURVE",
"559 129 OFFCURVE",
"562 159 CURVE SMOOTH",
"564 178 OFFCURVE",
"567 197 OFFCURVE",
"571 226 CURVE SMOOTH",
"615 510 LINE SMOOTH",
"630 608 OFFCURVE",
"630 653 OFFCURVE",
"665 706 CURVE",
"669 717 OFFCURVE",
"652 720 OFFCURVE",
"635 714 CURVE",
"601 701 OFFCURVE",
"565 677 OFFCURVE",
"559 645 CURVE SMOOTH",
"525 442 OFFCURVE",
"518 386 OFFCURVE",
"518 382 CURVE",
"501 280 OFFCURVE",
"480 206 OFFCURVE",
"450 151 CURVE",
"436 118 OFFCURVE",
"381 64 OFFCURVE",
"339 64 CURVE SMOOTH",
"293 64 OFFCURVE",
"267 115 OFFCURVE",
"267 193 CURVE SMOOTH",
"267 216 OFFCURVE",
"268 237 OFFCURVE",
"273 270 CURVE SMOOTH",
"280 324 OFFCURVE",
"321 508 OFFCURVE",
"328 538 CURVE SMOOTH",
"345 611 OFFCURVE",
"361 672 OFFCURVE",
"376 699 CURVE",
"307 699 LINE SMOOTH",
"222 699 OFFCURVE",
"172 676 OFFCURVE",
"116 621 CURVE SMOOTH",
"61 568 OFFCURVE",
"30 497 OFFCURVE",
"24 410 CURVE SMOOTH",
"23 382 OFFCURVE",
"24 352 OFFCURVE",
"30 320 CURVE",
"111 410 LINE",
"99 443 OFFCURVE",
"94 471 OFFCURVE",
"95 497 CURVE SMOOTH",
"102 584 OFFCURVE",
"138 630 OFFCURVE",
"244 630 CURVE SMOOTH",
"270 630 LINE",
"260 598 OFFCURVE",
"246 523 OFFCURVE",
"230 443 CURVE SMOOTH",
"217 376 OFFCURVE",
"203 311 OFFCURVE",
"193 271 CURVE"
);
}
);
width = 694;
}
);
note = U;
unicode = 0055;
},
{
color = 0;
glyphname = V;
lastChange = "2018-02-09 16:29:38 +0000";
layers = (
{
layerId = "0B1DFD06-3317-40CA-B510-4969A0718C16";
paths = (
{
closed = 1;
nodes = (
"308 87 LINE",
"318 109 OFFCURVE",
"322 125 OFFCURVE",
"327 129 CURVE",
"457 361 LINE SMOOTH",
"530 491 OFFCURVE",
"569 578 OFFCURVE",
"574 628 CURVE",
"575 667 OFFCURVE",
"562 699 OFFCURVE",
"533 720 CURVE",
"463 632 LINE",
"481 615 OFFCURVE",
"490 592 OFFCURVE",
"488 564 CURVE SMOOTH",
"483 486 OFFCURVE",
"419 351 OFFCURVE",
"295 159 CURVE",
"288 246 OFFCURVE",
"277 344 OFFCURVE",
"261 456 CURVE SMOOTH",
"246 558 OFFCURVE",
"233 632 OFFCURVE",
"220 666 CURVE",
"204 699 OFFCURVE",
"180 719 OFFCURVE",
"148 719 CURVE SMOOTH",
"112 719 OFFCURVE",
"80 690 OFFCURVE",
"51 646 CURVE",
"28 608 OFFCURVE",
"14 577 OFFCURVE",
"13 555 CURVE SMOOTH",
"11 541 OFFCURVE",
"20 533 OFFCURVE",
"36 528 CURVE",
"55 595 OFFCURVE",
"81 629 OFFCURVE",
"112 629 CURVE SMOOTH",
"129 629 OFFCURVE",
"143 613 OFFCURVE",
"153 582 CURVE SMOOTH",
"163 550 OFFCURVE",
"176 469 OFFCURVE",
"192 362 CURVE SMOOTH",
"207 237 OFFCURVE",
"219 105 OFFCURVE",
"223 -9 CURVE"
);
}
);
width = 586;
},
{
layerId = "98164D6F-6418-4A81-93B1-33F1F3344547";
paths = (
{
closed = 1;
nodes = (
"308 87 LINE",
"318 109 OFFCURVE",
"322 125 OFFCURVE",
"327 129 CURVE",
"457 361 LINE SMOOTH",
"530 491 OFFCURVE",
"569 578 OFFCURVE",
"574 628 CURVE",
"575 667 OFFCURVE",
"562 699 OFFCURVE",
"533 720 CURVE",
"463 632 LINE",
"481 615 OFFCURVE",
"490 592 OFFCURVE",
"488 564 CURVE SMOOTH",
"483 486 OFFCURVE",
"419 351 OFFCURVE",
"295 159 CURVE",
"288 246 OFFCURVE",
"277 344 OFFCURVE",
"261 456 CURVE SMOOTH",
"246 558 OFFCURVE",
"233 632 OFFCURVE",
"220 666 CURVE",
"204 699 OFFCURVE",
"180 719 OFFCURVE",
"148 719 CURVE SMOOTH",
"112 719 OFFCURVE",
"80 690 OFFCURVE",
"51 646 CURVE",
"28 608 OFFCURVE",
"14 577 OFFCURVE",
"13 555 CURVE SMOOTH",
"11 541 OFFCURVE",
"20 533 OFFCURVE",
"36 528 CURVE",
"55 595 OFFCURVE",
"81 629 OFFCURVE",
"112 629 CURVE SMOOTH",
"129 629 OFFCURVE",
"143 613 OFFCURVE",
"153 582 CURVE SMOOTH",
"163 550 OFFCURVE",
"176 469 OFFCURVE",
"192 362 CURVE SMOOTH",
"207 237 OFFCURVE",
"219 105 OFFCURVE",
"223 -9 CURVE"
);
}
);
width = 586;
}
);
note = V;
unicode = 0056;
},
{
color = 0;
glyphname = W;
lastChange = "2018-02-09 16:29:38 +0000";
layers = (
{
layerId = "0B1DFD06-3317-40CA-B510-4969A0718C16";
paths = (
{
closed = 1;
nodes = (
"169 1 LINE",
"241 84 LINE",
"247 99 OFFCURVE",
"258 124 OFFCURVE",
"274 159 CURVE SMOOTH",
"301 220 OFFCURVE",
"348 320 OFFCURVE",
"429 494 CURVE",
"429 493 OFFCURVE",
"429 484 OFFCURVE",
"430 469 CURVE",
"432 442 OFFCURVE",
"435 386 OFFCURVE",
"444 273 CURVE SMOOTH",
"452 176 OFFCURVE",
"457 95 OFFCURVE",
"457 26 CURVE SMOOTH",
"457 -11 LINE",
"534 84 LINE",
"544 107 OFFCURVE",
"550 119 OFFCURVE",
"550 122 CURVE",
"599 230 OFFCURVE",
"623 291 OFFCURVE",
"639 324 CURVE SMOOTH",
"648 342 OFFCURVE",
"653 356 OFFCURVE",
"657 364 CURVE",
"719 500 OFFCURVE",
"755 586 OFFCURVE",
"760 633 CURVE SMOOTH",
"763 666 OFFCURVE",
"750 694 OFFCURVE",
"720 721 CURVE",
"650 632 LINE",
"670 615 OFFCURVE",
"680 591 OFFCURVE",
"679 559 CURVE",
"675 515 OFFCURVE",
"653 452 OFFCURVE",
"615 368 CURVE SMOOTH",
"528 186 OFFCURVE",
"527 179 OFFCURVE",
"524 172 CURVE",
"523 178 OFFCURVE",
"523 187 OFFCURVE",
"521 202 CURVE SMOOTH",
"510 346 LINE SMOOTH",
"503 432 OFFCURVE",
"500 504 OFFCURVE",
"500 557 CURVE SMOOTH",
"500 578 OFFCURVE",
"500 598 OFFCURVE",
"501 621 CURVE SMOOTH",
"503 638 OFFCURVE",
"507 676 OFFCURVE",
"511 697 CURVE",
"433 611 LINE",
"423 578 OFFCURVE",
"408 538 OFFCURVE",
"381 487 CURVE SMOOTH",
"337 398 OFFCURVE",
"298 311 OFFCURVE",
"254 222 CURVE",
"258 294 OFFCURVE",
"261 355 OFFCURVE",
"261 413 CURVE SMOOTH",
"261 460 OFFCURVE",
"260 508 OFFCURVE",
"256 550 CURVE SMOOTH",
"250 612 OFFCURVE",
"243 657 OFFCURVE",
"231 682 CURVE",
"217 706 OFFCURVE",
"197 719 OFFCURVE",
"173 719 CURVE SMOOTH",
"149 719 OFFCURVE",
"121 700 OFFCURVE",
"89 663 CURVE",
"60 625 OFFCURVE",
"44 588 OFFCURVE",
"41 552 CURVE",
"41 540 OFFCURVE",
"50 533 OFFCURVE",
"68 528 CURVE",
"75 561 OFFCURVE",
"85 586 OFFCURVE",
"99 605 CURVE",
"115 623 OFFCURVE",
"129 633 OFFCURVE",
"143 633 CURVE SMOOTH",
"165 633 OFFCURVE",
"179 599 OFFCURVE",
"185 530 CURVE SMOOTH",
"187 503 OFFCURVE",
"189 470 OFFCURVE",
"189 433 CURVE SMOOTH",
"189 366 OFFCURVE",
"185 283 OFFCURVE",
"178 185 CURVE SMOOTH",
"172 107 OFFCURVE",
"166 51 OFFCURVE",
"159 7 CURVE"
);
}
);
width = 788;
},
{
layerId = "98164D6F-6418-4A81-93B1-33F1F3344547";
paths = (
{
closed = 1;
nodes = (
"169 1 LINE",
"241 84 LINE",
"247 99 OFFCURVE",
"258 124 OFFCURVE",
"274 159 CURVE SMOOTH",
"301 220 OFFCURVE",
"348 320 OFFCURVE",
"429 494 CURVE",
"429 493 OFFCURVE",
"429 484 OFFCURVE",
"430 469 CURVE",
"432 442 OFFCURVE",
"435 386 OFFCURVE",
"444 273 CURVE SMOOTH",
"452 176 OFFCURVE",
"457 95 OFFCURVE",
"457 26 CURVE SMOOTH",
"457 -11 LINE",
"534 84 LINE",
"544 107 OFFCURVE",
"550 119 OFFCURVE",
"550 122 CURVE",
"599 230 OFFCURVE",
"623 291 OFFCURVE",
"639 324 CURVE SMOOTH",
"648 342 OFFCURVE",
"653 356 OFFCURVE",
"657 364 CURVE",
"719 500 OFFCURVE",
"755 586 OFFCURVE",
"760 633 CURVE SMOOTH",
"763 666 OFFCURVE",
"750 694 OFFCURVE",
"720 721 CURVE",
"650 632 LINE",
"670 615 OFFCURVE",
"680 591 OFFCURVE",
"679 559 CURVE",
"675 515 OFFCURVE",
"653 452 OFFCURVE",
"615 368 CURVE SMOOTH",
"528 186 OFFCURVE",
"527 179 OFFCURVE",
"524 172 CURVE",
"523 178 OFFCURVE",
"523 187 OFFCURVE",
"521 202 CURVE SMOOTH",
"510 346 LINE SMOOTH",
"503 432 OFFCURVE",
"500 504 OFFCURVE",
"500 557 CURVE SMOOTH",
"500 578 OFFCURVE",
"500 598 OFFCURVE",
"501 621 CURVE SMOOTH",
"503 638 OFFCURVE",
"507 676 OFFCURVE",
"511 697 CURVE",
"433 611 LINE",
"423 578 OFFCURVE",
"408 538 OFFCURVE",
"381 487 CURVE SMOOTH",
"337 398 OFFCURVE",
"298 311 OFFCURVE",
"254 222 CURVE",
"258 294 OFFCURVE",
"261 355 OFFCURVE",
"261 413 CURVE SMOOTH",
"261 460 OFFCURVE",
"260 508 OFFCURVE",
"256 550 CURVE SMOOTH",
"250 612 OFFCURVE",
"243 657 OFFCURVE",
"231 682 CURVE",
"217 706 OFFCURVE",
"197 719 OFFCURVE",
"173 719 CURVE SMOOTH",
"149 719 OFFCURVE",
"121 700 OFFCURVE",
"89 663 CURVE",
"60 625 OFFCURVE",
"44 588 OFFCURVE",
"41 552 CURVE",
"41 540 OFFCURVE",
"50 533 OFFCURVE",
"68 528 CURVE",
"75 561 OFFCURVE",
"85 586 OFFCURVE",
"99 605 CURVE",
"115 623 OFFCURVE",
"129 633 OFFCURVE",
"143 633 CURVE SMOOTH",
"165 633 OFFCURVE",
"179 599 OFFCURVE",
"185 530 CURVE SMOOTH",
"187 503 OFFCURVE",
"189 470 OFFCURVE",
"189 433 CURVE SMOOTH",
"189 366 OFFCURVE",
"185 283 OFFCURVE",
"178 185 CURVE SMOOTH",
"172 107 OFFCURVE",
"166 51 OFFCURVE",
"159 7 CURVE"
);
}
);
width = 788;
}
);
note = W;
unicode = 0057;
},
{
color = 0;
glyphname = X;
lastChange = "2018-02-09 16:29:38 +0000";
layers = (
{
layerId = "0B1DFD06-3317-40CA-B510-4969A0718C16";
paths = (
{
closed = 1;
nodes = (
"275 329 LINE",
"241 264 OFFCURVE",
"160 88 OFFCURVE",
"85 88 CURVE SMOOTH",
"72 88 OFFCURVE",
"60 92 OFFCURVE",
"50 99 CURVE",
"-18 23 LINE",
"6 7 OFFCURVE",
"26 0 OFFCURVE",
"41 0 CURVE SMOOTH",
"125 0 OFFCURVE",
"212 89 OFFCURVE",
"298 277 CURVE",
"298 278 OFFCURVE",
"301 281 OFFCURVE",
"301 283 CURVE",
"339 141 OFFCURVE",
"359 77 OFFCURVE",
"375 48 CURVE SMOOTH",
"391 20 OFFCURVE",
"410 0 OFFCURVE",
"435 0 CURVE SMOOTH",
"464 0 OFFCURVE",
"497 28 OFFCURVE",
"524 72 CURVE",
"542 105 OFFCURVE",
"554 128 OFFCURVE",
"554 143 CURVE SMOOTH",
"554 156 OFFCURVE",
"547 168 OFFCURVE",
"531 175 CURVE",
"514 115 OFFCURVE",
"491 85 OFFCURVE",
"464 85 CURVE SMOOTH",
"449 85 OFFCURVE",
"430 119 OFFCURVE",
"412 186 CURVE SMOOTH",
"395 250 OFFCURVE",
"376 312 OFFCURVE",
"361 379 CURVE",
"366 391 LINE",
"371 396 OFFCURVE",
"372 402 OFFCURVE",
"373 406 CURVE",
"417 493 OFFCURVE",
"456 554 OFFCURVE",
"479 584 CURVE SMOOTH",
"507 622 OFFCURVE",
"525 630 OFFCURVE",
"548 630 CURVE SMOOTH",
"558 630 OFFCURVE",
"568 626 OFFCURVE",
"579 618 CURVE",
"648 696 LINE",
"626 711 OFFCURVE",
"605 719 OFFCURVE",
"584 719 CURVE SMOOTH",
"517 719 OFFCURVE",
"453 650 OFFCURVE",
"379 515 CURVE SMOOTH",
"372 503 OFFCURVE",
"354 467 OFFCURVE",
"341 440 CURVE",
"341 443 OFFCURVE",
"284 656 OFFCURVE",
"273 679 CURVE SMOOTH",
"260 706 OFFCURVE",
"246 719 OFFCURVE",
"223 719 CURVE SMOOTH",
"202 719 OFFCURVE",
"175 700 OFFCURVE",
"145 662 CURVE SMOOTH",
"118 626 OFFCURVE",
"104 591 OFFCURVE",
"101 558 CURVE",
"101 542 OFFCURVE",
"108 534 OFFCURVE",
"122 531 CURVE",
"143 594 OFFCURVE",
"166 621 OFFCURVE",
"190 625 CURVE SMOOTH",
"210 628 OFFCURVE",
"229 564 OFFCURVE",
"236 531 CURVE SMOOTH",
"240 508 OFFCURVE",
"284 348 OFFCURVE",
"283 348 CURVE"
);
}
);
width = 615;
},
{
layerId = "98164D6F-6418-4A81-93B1-33F1F3344547";
paths = (
{
closed = 1;
nodes = (
"275 329 LINE",
"241 264 OFFCURVE",
"160 88 OFFCURVE",
"85 88 CURVE SMOOTH",
"72 88 OFFCURVE",
"60 92 OFFCURVE",
"50 99 CURVE",
"-18 23 LINE",
"6 7 OFFCURVE",
"26 0 OFFCURVE",
"41 0 CURVE SMOOTH",
"125 0 OFFCURVE",
"212 89 OFFCURVE",
"298 277 CURVE",
"298 278 OFFCURVE",
"301 281 OFFCURVE",
"301 283 CURVE",
"339 141 OFFCURVE",
"359 77 OFFCURVE",
"375 48 CURVE SMOOTH",
"391 20 OFFCURVE",
"410 0 OFFCURVE",
"435 0 CURVE SMOOTH",
"464 0 OFFCURVE",
"497 28 OFFCURVE",
"524 72 CURVE",
"542 105 OFFCURVE",
"554 128 OFFCURVE",
"554 143 CURVE SMOOTH",
"554 156 OFFCURVE",
"547 168 OFFCURVE",
"531 175 CURVE",
"514 115 OFFCURVE",
"491 85 OFFCURVE",
"464 85 CURVE SMOOTH",
"449 85 OFFCURVE",
"430 119 OFFCURVE",
"412 186 CURVE SMOOTH",
"395 250 OFFCURVE",
"376 312 OFFCURVE",
"361 379 CURVE",
"366 391 LINE",
"371 396 OFFCURVE",
"372 402 OFFCURVE",
"373 406 CURVE",
"417 493 OFFCURVE",
"456 554 OFFCURVE",
"479 584 CURVE SMOOTH",
"507 622 OFFCURVE",
"525 630 OFFCURVE",
"548 630 CURVE SMOOTH",
"558 630 OFFCURVE",
"568 626 OFFCURVE",
"579 618 CURVE",
"648 696 LINE",
"626 711 OFFCURVE",
"605 719 OFFCURVE",
"584 719 CURVE SMOOTH",
"517 719 OFFCURVE",
"453 650 OFFCURVE",
"379 515 CURVE SMOOTH",
"372 503 OFFCURVE",
"354 467 OFFCURVE",
"341 440 CURVE",
"341 443 OFFCURVE",
"284 656 OFFCURVE",
"273 679 CURVE SMOOTH",
"260 706 OFFCURVE",
"246 719 OFFCURVE",
"223 719 CURVE SMOOTH",
"202 719 OFFCURVE",
"175 700 OFFCURVE",
"145 662 CURVE SMOOTH",
"118 626 OFFCURVE",
"104 591 OFFCURVE",
"101 558 CURVE",
"101 542 OFFCURVE",
"108 534 OFFCURVE",
"122 531 CURVE",
"143 594 OFFCURVE",
"166 621 OFFCURVE",
"190 625 CURVE SMOOTH",
"210 628 OFFCURVE",
"229 564 OFFCURVE",
"236 531 CURVE SMOOTH",
"240 508 OFFCURVE",
"284 348 OFFCURVE",
"283 348 CURVE"
);
}
);
width = 615;
}
);
note = X;
unicode = 0058;
},
{
color = 0;
glyphname = Y;
lastChange = "2018-02-09 16:29:38 +0000";
layers = (
{
layerId = "0B1DFD06-3317-40CA-B510-4969A0718C16";
paths = (
{
closed = 1;
nodes = (
"500 719 OFFCURVE",
"453 683 OFFCURVE",
"402 613 CURVE SMOOTH",
"358 552 OFFCURVE",
"321 477 OFFCURVE",
"293 393 CURVE",
"287 480 OFFCURVE",
"273 552 OFFCURVE",
"251 612 CURVE SMOOTH",
"224 683 OFFCURVE",
"190 719 OFFCURVE",
"151 719 CURVE SMOOTH",
"133 719 OFFCURVE",
"112 706 OFFCURVE",
"87 679 CURVE SMOOTH",
"62 652 OFFCURVE",
"50 628 OFFCURVE",
"48 606 CURVE",
"47 595 OFFCURVE",
"54 586 OFFCURVE",
"70 579 CURVE",
"88 622 OFFCURVE",
"107 643 OFFCURVE",
"125 643 CURVE SMOOTH",
"149 643 OFFCURVE",
"173 606 OFFCURVE",
"195 533 CURVE SMOOTH",
"213 471 OFFCURVE",
"220 412 OFFCURVE",
"220 349 CURVE SMOOTH",
"220 322 OFFCURVE",
"220 295 OFFCURVE",
"216 268 CURVE SMOOTH",
"197 166 LINE SMOOTH",
"186 88 OFFCURVE",
"173 72 OFFCURVE",
"135 45 CURVE",
"125 36 OFFCURVE",
"111 1 OFFCURVE",
"124 1 CURVE SMOOTH",
"135 1 OFFCURVE",
"169 17 OFFCURVE",
"175 17 CURVE",
"192 16 OFFCURVE",
"219 9 OFFCURVE",
"236 4 CURVE SMOOTH",
"241 3 OFFCURVE",
"246 1 OFFCURVE",
"249 1 CURVE",
"260 -3 OFFCURVE",
"287 6 OFFCURVE",
"320 44 CURVE",
"341 67 OFFCURVE",
"324 78 OFFCURVE",
"311 68 CURVE",
"307 64 OFFCURVE",
"291 60 OFFCURVE",
"287 60 CURVE SMOOTH",
"275 60 OFFCURVE",
"260 62 OFFCURVE",
"244 68 CURVE",
"250 75 OFFCURVE",
"256 87 OFFCURVE",
"260 102 CURVE",
"294 285 LINE SMOOTH",
"310 365 OFFCURVE",
"337 433 OFFCURVE",
"381 506 CURVE SMOOTH",
"425 584 OFFCURVE",
"467 623 OFFCURVE",
"506 623 CURVE SMOOTH",
"517 623 OFFCURVE",
"528 618 OFFCURVE",
"541 606 CURVE",
"599 693 LINE",
"579 710 OFFCURVE",
"561 719 OFFCURVE",
"544 719 CURVE SMOOTH"
);
}
);
width = 581;
},
{
layerId = "98164D6F-6418-4A81-93B1-33F1F3344547";
paths = (
{
closed = 1;
nodes = (
"500 719 OFFCURVE",
"453 683 OFFCURVE",
"402 613 CURVE SMOOTH",
"358 552 OFFCURVE",
"321 477 OFFCURVE",
"293 393 CURVE",
"287 480 OFFCURVE",
"273 552 OFFCURVE",
"251 612 CURVE SMOOTH",
"224 683 OFFCURVE",
"190 719 OFFCURVE",
"151 719 CURVE SMOOTH",
"133 719 OFFCURVE",
"112 706 OFFCURVE",
"87 679 CURVE SMOOTH",
"62 652 OFFCURVE",
"50 628 OFFCURVE",
"48 606 CURVE",
"47 595 OFFCURVE",
"54 586 OFFCURVE",
"70 579 CURVE",
"88 622 OFFCURVE",
"107 643 OFFCURVE",
"125 643 CURVE SMOOTH",
"149 643 OFFCURVE",
"173 606 OFFCURVE",
"195 533 CURVE SMOOTH",
"213 471 OFFCURVE",
"220 412 OFFCURVE",
"220 349 CURVE SMOOTH",
"220 322 OFFCURVE",
"220 295 OFFCURVE",
"216 268 CURVE SMOOTH",
"197 166 LINE SMOOTH",
"186 88 OFFCURVE",
"173 72 OFFCURVE",
"135 45 CURVE",
"125 36 OFFCURVE",
"111 1 OFFCURVE",
"124 1 CURVE SMOOTH",
"135 1 OFFCURVE",
"169 17 OFFCURVE",
"175 17 CURVE",
"192 16 OFFCURVE",
"219 9 OFFCURVE",
"236 4 CURVE SMOOTH",
"241 3 OFFCURVE",
"246 1 OFFCURVE",
"249 1 CURVE",
"260 -3 OFFCURVE",
"287 6 OFFCURVE",
"320 44 CURVE",
"341 67 OFFCURVE",
"324 78 OFFCURVE",
"311 68 CURVE",
"307 64 OFFCURVE",
"291 60 OFFCURVE",
"287 60 CURVE SMOOTH",
"275 60 OFFCURVE",
"260 62 OFFCURVE",
"244 68 CURVE",
"250 75 OFFCURVE",
"256 87 OFFCURVE",
"260 102 CURVE",
"294 285 LINE SMOOTH",
"310 365 OFFCURVE",
"337 433 OFFCURVE",
"381 506 CURVE SMOOTH",
"425 584 OFFCURVE",
"467 623 OFFCURVE",
"506 623 CURVE SMOOTH",
"517 623 OFFCURVE",
"528 618 OFFCURVE",
"541 606 CURVE",
"599 693 LINE",
"579 710 OFFCURVE",
"561 719 OFFCURVE",
"544 719 CURVE SMOOTH"
);
}
);
width = 581;
}
);
note = Y;
unicode = 0059;
},
{
color = 0;
glyphname = Z;
lastChange = "2018-02-09 16:29:38 +0000";
layers = (
{
layerId = "0B1DFD06-3317-40CA-B510-4969A0718C16";
paths = (
{
closed = 1;
nodes = (
"30 0 LINE",
"36 1 OFFCURVE",
"54 16 OFFCURVE",
"70 26 CURVE",
"91 41 OFFCURVE",
"119 58 OFFCURVE",
"143 58 CURVE SMOOTH",
"155 58 OFFCURVE",
"216 37 OFFCURVE",
"271 21 CURVE SMOOTH",
"310 10 OFFCURVE",
"339 0 OFFCURVE",
"346 0 CURVE SMOOTH",
"385 0 OFFCURVE",
"417 21 OFFCURVE",
"447 65 CURVE",
"466 97 OFFCURVE",
"474 118 OFFCURVE",
"476 129 CURVE",
"476 138 OFFCURVE",
"469 146 OFFCURVE",
"454 153 CURVE",
"439 107 OFFCURVE",
"408 82 OFFCURVE",
"362 82 CURVE SMOOTH",
"352 82 OFFCURVE",
"301 99 OFFCURVE",
"251 116 CURVE SMOOTH",
"207 132 OFFCURVE",
"169 145 OFFCURVE",
"159 145 CURVE SMOOTH",
"153 145 OFFCURVE",
"146 142 OFFCURVE",
"136 135 CURVE",
"317 383 OFFCURVE",
"412 513 OFFCURVE",
"462 577 CURVE SMOOTH",
"513 645 LINE",
"520 656 OFFCURVE",
"534 677 OFFCURVE",
"538 690 CURVE SMOOTH",
"541 699 OFFCURVE",
"537 709 OFFCURVE",
"524 721 CURVE",
"506 699 OFFCURVE",
"479 687 OFFCURVE",
"446 687 CURVE SMOOTH",
"408 687 OFFCURVE",
"396 694 OFFCURVE",
"369 704 CURVE",
"346 714 OFFCURVE",
"321 719 OFFCURVE",
"304 719 CURVE SMOOTH",
"253 719 OFFCURVE",
"209 693 OFFCURVE",
"169 648 CURVE",
"133 601 OFFCURVE",
"107 541 OFFCURVE",
"102 479 CURVE",
"102 473 OFFCURVE",
"99 452 OFFCURVE",
"99 446 CURVE",
"180 508 LINE",
"169 578 OFFCURVE",
"196 652 OFFCURVE",
"240 652 CURVE SMOOTH",
"267 652 OFFCURVE",
"291 639 OFFCURVE",
"314 628 CURVE SMOOTH",
"348 611 OFFCURVE",
"381 602 OFFCURVE",
"410 602 CURVE SMOOTH",
"417 602 OFFCURVE",
"423 602 OFFCURVE",
"427 604 CURVE",
"58 104 LINE SMOOTH",
"34 71 OFFCURVE",
"24 54 OFFCURVE",
"18 43 CURVE",
"14 36 OFFCURVE",
"13 31 OFFCURVE",
"13 28 CURVE SMOOTH",
"13 21 OFFCURVE",
"16 13 OFFCURVE",
"23 3 CURVE"
);
}
);
width = 551;
},
{
layerId = "98164D6F-6418-4A81-93B1-33F1F3344547";
paths = (
{
closed = 1;
nodes = (
"30 0 LINE",
"36 1 OFFCURVE",
"54 16 OFFCURVE",
"70 26 CURVE",
"91 41 OFFCURVE",
"119 58 OFFCURVE",
"143 58 CURVE SMOOTH",
"155 58 OFFCURVE",
"216 37 OFFCURVE",
"271 21 CURVE SMOOTH",
"310 10 OFFCURVE",
"339 0 OFFCURVE",
"346 0 CURVE SMOOTH",
"385 0 OFFCURVE",
"417 21 OFFCURVE",
"447 65 CURVE",
"466 97 OFFCURVE",
"474 118 OFFCURVE",
"476 129 CURVE",
"476 138 OFFCURVE",
"469 146 OFFCURVE",
"454 153 CURVE",
"439 107 OFFCURVE",
"408 82 OFFCURVE",
"362 82 CURVE SMOOTH",
"352 82 OFFCURVE",
"301 99 OFFCURVE",
"251 116 CURVE SMOOTH",
"207 132 OFFCURVE",
"169 145 OFFCURVE",
"159 145 CURVE SMOOTH",
"153 145 OFFCURVE",
"146 142 OFFCURVE",
"136 135 CURVE",
"317 383 OFFCURVE",
"412 513 OFFCURVE",
"462 577 CURVE SMOOTH",
"513 645 LINE",
"520 656 OFFCURVE",
"534 677 OFFCURVE",
"538 690 CURVE SMOOTH",
"541 699 OFFCURVE",
"537 709 OFFCURVE",
"524 721 CURVE",
"506 699 OFFCURVE",
"479 687 OFFCURVE",
"446 687 CURVE SMOOTH",
"408 687 OFFCURVE",
"396 694 OFFCURVE",
"369 704 CURVE",
"346 714 OFFCURVE",
"321 719 OFFCURVE",
"304 719 CURVE SMOOTH",
"253 719 OFFCURVE",
"209 693 OFFCURVE",
"169 648 CURVE",
"133 601 OFFCURVE",
"107 541 OFFCURVE",
"102 479 CURVE",
"102 473 OFFCURVE",
"99 452 OFFCURVE",
"99 446 CURVE",
"180 508 LINE",
"169 578 OFFCURVE",
"196 652 OFFCURVE",
"240 652 CURVE SMOOTH",
"267 652 OFFCURVE",
"291 639 OFFCURVE",
"314 628 CURVE SMOOTH",
"348 611 OFFCURVE",
"381 602 OFFCURVE",
"410 602 CURVE SMOOTH",
"417 602 OFFCURVE",
"423 602 OFFCURVE",
"427 604 CURVE",
"58 104 LINE SMOOTH",
"34 71 OFFCURVE",
"24 54 OFFCURVE",
"18 43 CURVE",
"14 36 OFFCURVE",
"13 31 OFFCURVE",
"13 28 CURVE SMOOTH",
"13 21 OFFCURVE",
"16 13 OFFCURVE",
"23 3 CURVE"
);
}
);
width = 551;
}
);
note = Z;
unicode = 005A;
},
{
color = 0;
glyphname = a;
lastChange = "2018-02-09 16:29:38 +0000";
layers = (
{
layerId = "0B1DFD06-3317-40CA-B510-4969A0718C16";
paths = (
{
closed = 1;
nodes = (
"321 359 LINE SMOOTH",
"305 284 OFFCURVE",
"273 206 OFFCURVE",
"226 151 CURVE SMOOTH",
"190 107 OFFCURVE",
"162 84 OFFCURVE",
"141 84 CURVE SMOOTH",
"124 84 OFFCURVE",
"116 104 OFFCURVE",
"119 143 CURVE SMOOTH",
"125 223 OFFCURVE",
"142 294 OFFCURVE",
"172 349 CURVE SMOOTH",
"199 402 OFFCURVE",
"230 432 OFFCURVE",
"266 432 CURVE SMOOTH",
"291 432 OFFCURVE",
"314 425 OFFCURVE",
"334 412 CURVE"
);
},
{
closed = 1;
nodes = (
"273 97 LINE",
"268 81 OFFCURVE",
"267 60 OFFCURVE",
"267 53 CURVE SMOOTH",
"267 26 OFFCURVE",
"277 0 OFFCURVE",
"298 0 CURVE SMOOTH",
"325 0 OFFCURVE",
"358 27 OFFCURVE",
"393 74 CURVE SMOOTH",
"419 109 OFFCURVE",
"432 133 OFFCURVE",
"433 148 CURVE",
"433 153 OFFCURVE",
"427 162 OFFCURVE",
"416 172 CURVE",
"386 108 OFFCURVE",
"362 75 OFFCURVE",
"344 75 CURVE SMOOTH",
"339 75 OFFCURVE",
"339 81 OFFCURVE",
"341 91 CURVE",
"341 94 OFFCURVE",
"341 99 OFFCURVE",
"342 107 CURVE",
"344 116 OFFCURVE",
"348 143 OFFCURVE",
"356 185 CURVE SMOOTH",
"398 403 LINE SMOOTH",
"408 456 OFFCURVE",
"416 476 OFFCURVE",
"416 477 CURVE",
"395 487 OFFCURVE",
"368 491 OFFCURVE",
"339 491 CURVE SMOOTH",
"266 491 OFFCURVE",
"199 454 OFFCURVE",
"141 379 CURVE SMOOTH",
"82 304 OFFCURVE",
"50 216 OFFCURVE",
"43 115 CURVE SMOOTH",
"38 43 OFFCURVE",
"54 0 OFFCURVE",
"94 0 CURVE SMOOTH",
"124 0 OFFCURVE",
"156 20 OFFCURVE",
"195 61 CURVE SMOOTH",
"229 99 OFFCURVE",
"281 173 OFFCURVE",
"290 185 CURVE"
);
}
);
width = 480;
},
{
layerId = "98164D6F-6418-4A81-93B1-33F1F3344547";
paths = (
{
closed = 1;
nodes = (
"321 359 LINE SMOOTH",
"305 284 OFFCURVE",
"273 206 OFFCURVE",
"226 151 CURVE SMOOTH",
"190 107 OFFCURVE",
"162 84 OFFCURVE",
"141 84 CURVE SMOOTH",
"124 84 OFFCURVE",
"116 104 OFFCURVE",
"119 143 CURVE SMOOTH",
"125 223 OFFCURVE",
"142 294 OFFCURVE",
"172 349 CURVE SMOOTH",
"199 402 OFFCURVE",
"230 432 OFFCURVE",
"266 432 CURVE SMOOTH",
"291 432 OFFCURVE",
"314 425 OFFCURVE",
"334 412 CURVE"
);
},
{
closed = 1;
nodes = (
"273 97 LINE",
"268 81 OFFCURVE",
"267 60 OFFCURVE",
"267 53 CURVE SMOOTH",
"267 26 OFFCURVE",
"277 0 OFFCURVE",
"298 0 CURVE SMOOTH",
"325 0 OFFCURVE",
"358 27 OFFCURVE",
"393 74 CURVE SMOOTH",
"419 109 OFFCURVE",
"432 133 OFFCURVE",
"433 148 CURVE",
"433 153 OFFCURVE",
"427 162 OFFCURVE",
"416 172 CURVE",
"386 108 OFFCURVE",
"362 75 OFFCURVE",
"344 75 CURVE SMOOTH",
"339 75 OFFCURVE",
"339 81 OFFCURVE",
"341 91 CURVE",
"341 94 OFFCURVE",
"341 99 OFFCURVE",
"342 107 CURVE",
"344 116 OFFCURVE",
"348 143 OFFCURVE",
"356 185 CURVE SMOOTH",
"398 403 LINE SMOOTH",
"408 456 OFFCURVE",
"416 476 OFFCURVE",
"416 477 CURVE",
"395 487 OFFCURVE",
"368 491 OFFCURVE",
"339 491 CURVE SMOOTH",
"266 491 OFFCURVE",
"199 454 OFFCURVE",
"141 379 CURVE SMOOTH",
"82 304 OFFCURVE",
"50 216 OFFCURVE",
"43 115 CURVE SMOOTH",
"38 43 OFFCURVE",
"54 0 OFFCURVE",
"94 0 CURVE SMOOTH",
"124 0 OFFCURVE",
"156 20 OFFCURVE",
"195 61 CURVE SMOOTH",
"229 99 OFFCURVE",
"281 173 OFFCURVE",
"290 185 CURVE"
);
}
);
width = 480;
}
);
note = a;
unicode = 0061;
},
{
color = 0;
glyphname = b;
lastChange = "2018-02-09 16:29:38 +0000";
layers = (
{
layerId = "0B1DFD06-3317-40CA-B510-4969A0718C16";
paths = (
{
closed = 1;
nodes = (
"314 409 OFFCURVE",
"324 381 OFFCURVE",
"320 335 CURVE SMOOTH",
"314 251 OFFCURVE",
"297 189 OFFCURVE",
"270 138 CURVE SMOOTH",
"243 85 OFFCURVE",
"213 60 OFFCURVE",
"180 60 CURVE SMOOTH",
"159 60 OFFCURVE",
"138 67 OFFCURVE",
"116 81 CURVE",
"124 132 LINE SMOOTH",
"136 216 OFFCURVE",
"166 285 OFFCURVE",
"213 344 CURVE SMOOTH",
"247 388 OFFCURVE",
"275 409 OFFCURVE",
"297 409 CURVE SMOOTH"
);
},
{
closed = 1;
nodes = (
"415 888 OFFCURVE",
"413 886 OFFCURVE",
"409 885 CURVE",
"403 883 OFFCURVE",
"395 880 OFFCURVE",
"379 880 CURVE",
"344 876 OFFCURVE",
"298 875 OFFCURVE",
"249 819 CURVE SMOOTH",
"142 701 OFFCURVE",
"118 534 OFFCURVE",
"107 457 CURVE SMOOTH",
"60 165 LINE SMOOTH",
"55 141 OFFCURVE",
"53 111 OFFCURVE",
"48 92 CURVE",
"44 65 OFFCURVE",
"40 40 OFFCURVE",
"28 7 CURVE",
"33 7 OFFCURVE",
"44 6 OFFCURVE",
"48 6 CURVE",
"98 1 OFFCURVE",
"102 0 OFFCURVE",
"108 0 CURVE SMOOTH",
"180 0 OFFCURVE",
"244 36 OFFCURVE",
"300 108 CURVE SMOOTH",
"358 180 OFFCURVE",
"389 267 OFFCURVE",
"396 365 CURVE SMOOTH",
"402 450 OFFCURVE",
"383 493 OFFCURVE",
"342 493 CURVE SMOOTH",
"314 493 OFFCURVE",
"280 473 OFFCURVE",
"241 432 CURVE",
"209 399 OFFCURVE",
"180 359 OFFCURVE",
"153 310 CURVE",
"178 464 LINE SMOOTH",
"189 535 OFFCURVE",
"214 692 OFFCURVE",
"271 782 CURVE",
"298 821 OFFCURVE",
"328 835 OFFCURVE",
"361 835 CURVE",
"376 836 OFFCURVE",
"391 836 OFFCURVE",
"408 852 CURVE",
"437 882 OFFCURVE",
"423 890 OFFCURVE",
"416 889 CURVE"
);
}
);
width = 413;
},
{
layerId = "98164D6F-6418-4A81-93B1-33F1F3344547";
paths = (
{
closed = 1;
nodes = (
"314 409 OFFCURVE",
"324 381 OFFCURVE",
"320 335 CURVE SMOOTH",
"314 251 OFFCURVE",
"297 189 OFFCURVE",
"270 138 CURVE SMOOTH",
"243 85 OFFCURVE",
"213 60 OFFCURVE",
"180 60 CURVE SMOOTH",
"159 60 OFFCURVE",
"138 67 OFFCURVE",
"116 81 CURVE",
"124 132 LINE SMOOTH",
"136 216 OFFCURVE",
"166 285 OFFCURVE",
"213 344 CURVE SMOOTH",
"247 388 OFFCURVE",
"275 409 OFFCURVE",
"297 409 CURVE SMOOTH"
);
},
{
closed = 1;
nodes = (
"415 888 OFFCURVE",
"413 886 OFFCURVE",
"409 885 CURVE",
"403 883 OFFCURVE",
"395 880 OFFCURVE",
"379 880 CURVE",
"344 876 OFFCURVE",
"298 875 OFFCURVE",
"249 819 CURVE SMOOTH",
"142 701 OFFCURVE",
"118 534 OFFCURVE",
"107 457 CURVE SMOOTH",
"60 165 LINE SMOOTH",
"55 141 OFFCURVE",
"53 111 OFFCURVE",
"48 92 CURVE",
"44 65 OFFCURVE",
"40 40 OFFCURVE",
"28 7 CURVE",
"33 7 OFFCURVE",
"44 6 OFFCURVE",
"48 6 CURVE",
"98 1 OFFCURVE",
"102 0 OFFCURVE",
"108 0 CURVE SMOOTH",
"180 0 OFFCURVE",
"244 36 OFFCURVE",
"300 108 CURVE SMOOTH",
"358 180 OFFCURVE",
"389 267 OFFCURVE",
"396 365 CURVE SMOOTH",
"402 450 OFFCURVE",
"383 493 OFFCURVE",
"342 493 CURVE SMOOTH",
"314 493 OFFCURVE",
"280 473 OFFCURVE",
"241 432 CURVE",
"209 399 OFFCURVE",
"180 359 OFFCURVE",
"153 310 CURVE",
"178 464 LINE SMOOTH",
"189 535 OFFCURVE",
"214 692 OFFCURVE",
"271 782 CURVE",
"298 821 OFFCURVE",
"328 835 OFFCURVE",
"361 835 CURVE",
"376 836 OFFCURVE",
"391 836 OFFCURVE",
"408 852 CURVE",
"437 882 OFFCURVE",
"423 890 OFFCURVE",
"416 889 CURVE"
);
}
);
width = 413;
}
);
note = b;
unicode = 0062;
},
{
color = 0;
glyphname = c;
lastChange = "2018-02-09 16:29:38 +0000";
layers = (
{
layerId = "0B1DFD06-3317-40CA-B510-4969A0718C16";
paths = (
{
closed = 1;
nodes = (
"354 483 LINE",
"335 494 OFFCURVE",
"315 500 OFFCURVE",
"294 500 CURVE SMOOTH",
"239 500 OFFCURVE",
"179 459 OFFCURVE",
"129 392 CURVE SMOOTH",
"78 320 OFFCURVE",
"47 241 OFFCURVE",
"40 156 CURVE SMOOTH",
"36 91 OFFCURVE",
"57 1 OFFCURVE",
"129 1 CURVE SMOOTH",
"159 1 OFFCURVE",
"193 16 OFFCURVE",
"231 54 CURVE SMOOTH",
"258 81 OFFCURVE",
"290 133 OFFCURVE",
"290 149 CURVE SMOOTH",
"290 155 OFFCURVE",
"287 166 OFFCURVE",
"275 182 CURVE",
"247 114 OFFCURVE",
"214 80 OFFCURVE",
"176 80 CURVE SMOOTH",
"116 80 OFFCURVE",
"115 172 OFFCURVE",
"115 223 CURVE",
"119 285 OFFCURVE",
"132 338 OFFCURVE",
"153 372 CURVE SMOOTH",
"175 408 OFFCURVE",
"202 425 OFFCURVE",
"236 425 CURVE SMOOTH",
"256 425 OFFCURVE",
"275 419 OFFCURVE",
"297 406 CURVE"
);
}
);
width = 348;
},
{
layerId = "98164D6F-6418-4A81-93B1-33F1F3344547";
paths = (
{
closed = 1;
nodes = (
"354 483 LINE",
"335 494 OFFCURVE",
"315 500 OFFCURVE",
"294 500 CURVE SMOOTH",
"239 500 OFFCURVE",
"179 459 OFFCURVE",
"129 392 CURVE SMOOTH",
"78 320 OFFCURVE",
"47 241 OFFCURVE",
"40 156 CURVE SMOOTH",
"36 91 OFFCURVE",
"57 1 OFFCURVE",
"129 1 CURVE SMOOTH",
"159 1 OFFCURVE",
"193 16 OFFCURVE",
"231 54 CURVE SMOOTH",
"258 81 OFFCURVE",
"290 133 OFFCURVE",
"290 149 CURVE SMOOTH",
"290 155 OFFCURVE",
"287 166 OFFCURVE",
"275 182 CURVE",
"247 114 OFFCURVE",
"214 80 OFFCURVE",
"176 80 CURVE SMOOTH",
"116 80 OFFCURVE",
"115 172 OFFCURVE",
"115 223 CURVE",
"119 285 OFFCURVE",
"132 338 OFFCURVE",
"153 372 CURVE SMOOTH",
"175 408 OFFCURVE",
"202 425 OFFCURVE",
"236 425 CURVE SMOOTH",
"256 425 OFFCURVE",
"275 419 OFFCURVE",
"297 406 CURVE"
);
}
);
width = 348;
}
);
note = c;
unicode = 0063;
},
{
color = 0;
glyphname = d;
lastChange = "2018-02-09 16:29:38 +0000";
layers = (
{
layerId = "0B1DFD06-3317-40CA-B510-4969A0718C16";
paths = (
{
closed = 1;
nodes = (
"267 203 OFFCURVE",
"200 85 OFFCURVE",
"142 85 CURVE SMOOTH",
"126 85 OFFCURVE",
"119 105 OFFCURVE",
"122 145 CURVE SMOOTH",
"128 227 OFFCURVE",
"145 297 OFFCURVE",
"175 352 CURVE SMOOTH",
"202 406 OFFCURVE",
"233 433 OFFCURVE",
"271 433 CURVE SMOOTH",
"290 433 OFFCURVE",
"307 427 OFFCURVE",
"325 415 CURVE",
"315 361 LINE SMOOTH",
"304 302 OFFCURVE",
"295 266 OFFCURVE",
"274 226 CURVE"
);
},
{
closed = 1;
nodes = (
"642 895 OFFCURVE",
"640 893 OFFCURVE",
"636 892 CURVE",
"629 888 OFFCURVE",
"618 886 OFFCURVE",
"604 886 CURVE",
"569 882 OFFCURVE",
"515 870 OFFCURVE",
"469 824 CURVE",
"389 737 OFFCURVE",
"358 613 OFFCURVE",
"344 533 CURVE SMOOTH",
"337 493 LINE",
"327 493 LINE SMOOTH",
"261 493 OFFCURVE",
"199 454 OFFCURVE",
"141 376 CURVE SMOOTH",
"84 301 OFFCURVE",
"51 212 OFFCURVE",
"44 116 CURVE SMOOTH",
"40 44 OFFCURVE",
"58 1 OFFCURVE",
"98 1 CURVE SMOOTH",
"128 1 OFFCURVE",
"162 26 OFFCURVE",
"206 70 CURVE",
"239 105 OFFCURVE",
"267 139 OFFCURVE",
"285 178 CURVE",
"274 85 OFFCURVE",
"271 72 OFFCURVE",
"271 60 CURVE",
"268 21 OFFCURVE",
"278 1 OFFCURVE",
"302 1 CURVE SMOOTH",
"331 1 OFFCURVE",
"362 28 OFFCURVE",
"398 75 CURVE",
"419 108 OFFCURVE",
"433 132 OFFCURVE",
"435 148 CURVE",
"436 153 OFFCURVE",
"430 162 OFFCURVE",
"416 173 CURVE",
"391 109 OFFCURVE",
"368 77 OFFCURVE",
"348 77 CURVE SMOOTH",
"345 77 OFFCURVE",
"344 82 OFFCURVE",
"345 95 CURVE SMOOTH",
"346 108 OFFCURVE",
"348 136 OFFCURVE",
"352 155 CURVE",
"364 229 OFFCURVE",
"386 356 OFFCURVE",
"402 450 CURVE SMOOTH",
"417 541 OFFCURVE",
"427 684 OFFCURVE",
"491 787 CURVE SMOOTH",
"514 822 OFFCURVE",
"554 842 OFFCURVE",
"586 842 CURVE",
"602 843 OFFCURVE",
"616 843 OFFCURVE",
"633 859 CURVE SMOOTH",
"663 888 OFFCURVE",
"650 900 OFFCURVE",
"643 896 CURVE"
);
}
);
width = 473;
},
{
layerId = "98164D6F-6418-4A81-93B1-33F1F3344547";
paths = (
{
closed = 1;
nodes = (
"267 203 OFFCURVE",
"200 85 OFFCURVE",
"142 85 CURVE SMOOTH",
"126 85 OFFCURVE",
"119 105 OFFCURVE",
"122 145 CURVE SMOOTH",
"128 227 OFFCURVE",
"145 297 OFFCURVE",
"175 352 CURVE SMOOTH",
"202 406 OFFCURVE",
"233 433 OFFCURVE",
"271 433 CURVE SMOOTH",
"290 433 OFFCURVE",
"307 427 OFFCURVE",
"325 415 CURVE",
"315 361 LINE SMOOTH",
"304 302 OFFCURVE",
"295 266 OFFCURVE",
"274 226 CURVE"
);
},
{
closed = 1;
nodes = (
"642 895 OFFCURVE",
"640 893 OFFCURVE",
"636 892 CURVE",
"629 888 OFFCURVE",
"618 886 OFFCURVE",
"604 886 CURVE",
"569 882 OFFCURVE",
"515 870 OFFCURVE",
"469 824 CURVE",
"389 737 OFFCURVE",
"358 613 OFFCURVE",
"344 533 CURVE SMOOTH",
"337 493 LINE",
"327 493 LINE SMOOTH",
"261 493 OFFCURVE",
"199 454 OFFCURVE",
"141 376 CURVE SMOOTH",
"84 301 OFFCURVE",
"51 212 OFFCURVE",
"44 116 CURVE SMOOTH",
"40 44 OFFCURVE",
"58 1 OFFCURVE",
"98 1 CURVE SMOOTH",
"128 1 OFFCURVE",
"162 26 OFFCURVE",
"206 70 CURVE",
"239 105 OFFCURVE",
"267 139 OFFCURVE",
"285 178 CURVE",
"274 85 OFFCURVE",
"271 72 OFFCURVE",
"271 60 CURVE",
"268 21 OFFCURVE",
"278 1 OFFCURVE",
"302 1 CURVE SMOOTH",
"331 1 OFFCURVE",
"362 28 OFFCURVE",
"398 75 CURVE",
"419 108 OFFCURVE",
"433 132 OFFCURVE",
"435 148 CURVE",
"436 153 OFFCURVE",
"430 162 OFFCURVE",
"416 173 CURVE",
"391 109 OFFCURVE",
"368 77 OFFCURVE",
"348 77 CURVE SMOOTH",
"345 77 OFFCURVE",
"344 82 OFFCURVE",
"345 95 CURVE SMOOTH",
"346 108 OFFCURVE",
"348 136 OFFCURVE",
"352 155 CURVE",
"364 229 OFFCURVE",
"386 356 OFFCURVE",
"402 450 CURVE SMOOTH",
"417 541 OFFCURVE",
"427 684 OFFCURVE",
"491 787 CURVE SMOOTH",
"514 822 OFFCURVE",
"554 842 OFFCURVE",
"586 842 CURVE",
"602 843 OFFCURVE",
"616 843 OFFCURVE",
"633 859 CURVE SMOOTH",
"663 888 OFFCURVE",
"650 900 OFFCURVE",
"643 896 CURVE"
);
}
);
width = 473;
}
);
note = d;
unicode = 0064;
},
{
color = 0;
glyphname = e;
lastChange = "2018-02-09 16:29:38 +0000";
layers = (
{
layerId = "0B1DFD06-3317-40CA-B510-4969A0718C16";
paths = (
{
closed = 1;
nodes = (
"182 409 OFFCURVE",
"203 425 OFFCURVE",
"224 425 CURVE SMOOTH",
"251 425 OFFCURVE",
"264 408 OFFCURVE",
"261 372 CURVE",
"257 338 OFFCURVE",
"241 310 OFFCURVE",
"220 288 CURVE",
"193 264 OFFCURVE",
"165 251 OFFCURVE",
"133 251 CURVE SMOOTH",
"128 251 OFFCURVE",
"124 253 OFFCURVE",
"119 254 CURVE",
"126 304 OFFCURVE",
"143 344 OFFCURVE",
"162 376 CURVE SMOOTH"
);
},
{
closed = 1;
nodes = (
"135 77 OFFCURVE",
"115 114 OFFCURVE",
"115 186 CURVE",
"168 204 OFFCURVE",
"220 237 OFFCURVE",
"258 281 CURVE SMOOTH",
"297 325 OFFCURVE",
"322 381 OFFCURVE",
"327 430 CURVE SMOOTH",
"329 477 OFFCURVE",
"312 500 OFFCURVE",
"275 500 CURVE SMOOTH",
"231 500 OFFCURVE",
"183 460 OFFCURVE",
"128 381 CURVE SMOOTH",
"77 302 OFFCURVE",
"48 224 OFFCURVE",
"43 149 CURVE SMOOTH",
"38 108 OFFCURVE",
"45 71 OFFCURVE",
"62 44 CURVE SMOOTH",
"80 17 OFFCURVE",
"104 1 OFFCURVE",
"131 1 CURVE SMOOTH",
"178 1 OFFCURVE",
"226 34 OFFCURVE",
"275 101 CURVE SMOOTH",
"291 122 OFFCURVE",
"302 142 OFFCURVE",
"307 158 CURVE",
"308 165 OFFCURVE",
"302 175 OFFCURVE",
"290 186 CURVE",
"254 114 OFFCURVE",
"220 77 OFFCURVE",
"176 77 CURVE SMOOTH"
);
}
);
width = 364;
},
{
layerId = "98164D6F-6418-4A81-93B1-33F1F3344547";
paths = (
{
closed = 1;
nodes = (
"182 409 OFFCURVE",
"203 425 OFFCURVE",
"224 425 CURVE SMOOTH",
"251 425 OFFCURVE",
"264 408 OFFCURVE",
"261 372 CURVE",
"257 338 OFFCURVE",
"241 310 OFFCURVE",
"220 288 CURVE",
"193 264 OFFCURVE",
"165 251 OFFCURVE",
"133 251 CURVE SMOOTH",
"128 251 OFFCURVE",
"124 253 OFFCURVE",
"119 254 CURVE",
"126 304 OFFCURVE",
"143 344 OFFCURVE",
"162 376 CURVE SMOOTH"
);
},
{
closed = 1;
nodes = (
"135 77 OFFCURVE",
"115 114 OFFCURVE",
"115 186 CURVE",
"168 204 OFFCURVE",
"220 237 OFFCURVE",
"258 281 CURVE SMOOTH",
"297 325 OFFCURVE",
"322 381 OFFCURVE",
"327 430 CURVE SMOOTH",
"329 477 OFFCURVE",
"312 500 OFFCURVE",
"275 500 CURVE SMOOTH",
"231 500 OFFCURVE",
"183 460 OFFCURVE",
"128 381 CURVE SMOOTH",
"77 302 OFFCURVE",
"48 224 OFFCURVE",
"43 149 CURVE SMOOTH",
"38 108 OFFCURVE",
"45 71 OFFCURVE",
"62 44 CURVE SMOOTH",
"80 17 OFFCURVE",
"104 1 OFFCURVE",
"131 1 CURVE SMOOTH",
"178 1 OFFCURVE",
"226 34 OFFCURVE",
"275 101 CURVE SMOOTH",
"291 122 OFFCURVE",
"302 142 OFFCURVE",
"307 158 CURVE",
"308 165 OFFCURVE",
"302 175 OFFCURVE",
"290 186 CURVE",
"254 114 OFFCURVE",
"220 77 OFFCURVE",
"176 77 CURVE SMOOTH"
);
}
);
width = 364;
}
);
note = e;
unicode = 0065;
},
{
color = 0;
glyphname = f;
lastChange = "2018-02-09 16:29:38 +0000";
layers = (
{
layerId = "0B1DFD06-3317-40CA-B510-4969A0718C16";
paths = (
{
closed = 1;
nodes = (
"437 892 LINE",
"432 888 OFFCURVE",
"423 886 OFFCURVE",
"408 888 CURVE",
"375 883 OFFCURVE",
"324 870 OFFCURVE",
"280 826 CURVE",
"189 720 OFFCURVE",
"158 562 OFFCURVE",
"146 484 CURVE",
"105 484 LINE SMOOTH",
"64 484 OFFCURVE",
"40 456 OFFCURVE",
"23 423 CURVE",
"18 413 OFFCURVE",
"17 405 OFFCURVE",
"33 405 CURVE",
"43 410 OFFCURVE",
"54 413 OFFCURVE",
"70 417 CURVE",
"95 422 LINE",
"138 422 LINE",
"133 396 LINE SMOOTH",
"107 230 OFFCURVE",
"82 51 OFFCURVE",
"58 -115 CURVE SMOOTH",
"37 -257 OFFCURVE",
"-14 -332 OFFCURVE",
"-87 -332 CURVE SMOOTH",
"-104 -332 OFFCURVE",
"-125 -328 OFFCURVE",
"-149 -317 CURVE",
"-213 -388 LINE",
"-189 -398 OFFCURVE",
"-172 -403 OFFCURVE",
"-159 -403 CURVE",
"1 -396 OFFCURVE",
"80 -233 OFFCURVE",
"99 -186 CURVE SMOOTH",
"118 -139 OFFCURVE",
"132 -70 OFFCURVE",
"148 21 CURVE SMOOTH",
"207 422 LINE",
"249 422 LINE SMOOTH",
"288 422 OFFCURVE",
"315 443 OFFCURVE",
"331 470 CURVE",
"341 486 OFFCURVE",
"337 500 OFFCURVE",
"325 500 CURVE",
"310 493 OFFCURVE",
"293 491 OFFCURVE",
"277 487 CURVE",
"268 486 OFFCURVE",
"260 484 OFFCURVE",
"251 484 CURVE SMOOTH",
"216 484 LINE",
"223 524 LINE SMOOTH",
"227 545 OFFCURVE",
"229 564 OFFCURVE",
"230 568 CURVE",
"243 642 OFFCURVE",
"264 728 OFFCURVE",
"302 790 CURVE SMOOTH",
"324 825 OFFCURVE",
"364 842 OFFCURVE",
"392 842 CURVE",
"408 843 OFFCURVE",
"420 843 OFFCURVE",
"436 859 CURVE SMOOTH",
"464 886 OFFCURVE",
"456 900 OFFCURVE",
"446 896 CURVE"
);
}
);
width = 328;
},
{
layerId = "98164D6F-6418-4A81-93B1-33F1F3344547";
paths = (
{
closed = 1;
nodes = (
"437 892 LINE",
"432 888 OFFCURVE",
"423 886 OFFCURVE",
"408 888 CURVE",
"375 883 OFFCURVE",
"324 870 OFFCURVE",
"280 826 CURVE",
"189 720 OFFCURVE",
"158 562 OFFCURVE",
"146 484 CURVE",
"105 484 LINE SMOOTH",
"64 484 OFFCURVE",
"40 456 OFFCURVE",
"23 423 CURVE",
"18 413 OFFCURVE",
"17 405 OFFCURVE",
"33 405 CURVE",
"43 410 OFFCURVE",
"54 413 OFFCURVE",
"70 417 CURVE",
"95 422 LINE",
"138 422 LINE",
"133 396 LINE SMOOTH",
"107 230 OFFCURVE",
"82 51 OFFCURVE",
"58 -115 CURVE SMOOTH",
"37 -257 OFFCURVE",
"-14 -332 OFFCURVE",
"-87 -332 CURVE SMOOTH",
"-104 -332 OFFCURVE",
"-125 -328 OFFCURVE",
"-149 -317 CURVE",
"-213 -388 LINE",
"-189 -398 OFFCURVE",
"-172 -403 OFFCURVE",
"-159 -403 CURVE",
"1 -396 OFFCURVE",
"80 -233 OFFCURVE",
"99 -186 CURVE SMOOTH",
"118 -139 OFFCURVE",
"132 -70 OFFCURVE",
"148 21 CURVE SMOOTH",
"207 422 LINE",
"249 422 LINE SMOOTH",
"288 422 OFFCURVE",
"315 443 OFFCURVE",
"331 470 CURVE",
"341 486 OFFCURVE",
"337 500 OFFCURVE",
"325 500 CURVE",
"310 493 OFFCURVE",
"293 491 OFFCURVE",
"277 487 CURVE",
"268 486 OFFCURVE",
"260 484 OFFCURVE",
"251 484 CURVE SMOOTH",
"216 484 LINE",
"223 524 LINE SMOOTH",
"227 545 OFFCURVE",
"229 564 OFFCURVE",
"230 568 CURVE",
"243 642 OFFCURVE",
"264 728 OFFCURVE",
"302 790 CURVE SMOOTH",
"324 825 OFFCURVE",
"364 842 OFFCURVE",
"392 842 CURVE",
"408 843 OFFCURVE",
"420 843 OFFCURVE",
"436 859 CURVE SMOOTH",
"464 886 OFFCURVE",
"456 900 OFFCURVE",
"446 896 CURVE"
);
}
);
width = 328;
}
);
note = f;
unicode = 0066;
},
{
color = 0;
glyphname = g;
lastChange = "2018-02-09 16:29:38 +0000";
layers = (
{
layerId = "0B1DFD06-3317-40CA-B510-4969A0718C16";
paths = (
{
closed = 1;
nodes = (
"301 359 LINE SMOOTH",
"288 280 OFFCURVE",
"256 207 OFFCURVE",
"206 149 CURVE",
"170 104 OFFCURVE",
"142 81 OFFCURVE",
"119 81 CURVE SMOOTH",
"104 81 OFFCURVE",
"97 97 OFFCURVE",
"97 136 CURVE SMOOTH",
"97 204 OFFCURVE",
"119 293 OFFCURVE",
"152 349 CURVE SMOOTH",
"182 402 OFFCURVE",
"210 433 OFFCURVE",
"244 433 CURVE SMOOTH",
"271 433 OFFCURVE",
"293 426 OFFCURVE",
"310 410 CURVE"
);
},
{
closed = 1;
nodes = (
"-126 -240 LINE",
"-129 -287 OFFCURVE",
"-119 -325 OFFCURVE",
"-98 -355 CURVE",
"-74 -386 OFFCURVE",
"-45 -402 OFFCURVE",
"-11 -402 CURVE SMOOTH",
"61 -402 OFFCURVE",
"133 -359 OFFCURVE",
"203 -275 CURVE SMOOTH",
"231 -240 OFFCURVE",
"256 -193 OFFCURVE",
"271 -149 CURVE SMOOTH",
"287 -105 OFFCURVE",
"298 -11 OFFCURVE",
"310 70 CURVE SMOOTH",
"314 108 OFFCURVE",
"331 258 OFFCURVE",
"381 429 CURVE",
"392 477 LINE",
"373 487 OFFCURVE",
"349 493 OFFCURVE",
"318 493 CURVE SMOOTH",
"246 493 OFFCURVE",
"180 454 OFFCURVE",
"121 379 CURVE SMOOTH",
"65 307 OFFCURVE",
"30 217 OFFCURVE",
"23 116 CURVE SMOOTH",
"18 71 OFFCURVE",
"26 36 OFFCURVE",
"43 18 CURVE",
"48 11 OFFCURVE",
"55 7 OFFCURVE",
"62 6 CURVE",
"67 4 OFFCURVE",
"70 4 OFFCURVE",
"74 4 CURVE SMOOTH",
"129 4 OFFCURVE",
"193 62 OFFCURVE",
"268 179 CURVE",
"268 168 OFFCURVE",
"244 99 OFFCURVE",
"240 70 CURVE SMOOTH",
"217 -91 OFFCURVE",
"195 -207 OFFCURVE",
"173 -251 CURVE",
"141 -308 OFFCURVE",
"99 -337 OFFCURVE",
"48 -337 CURVE SMOOTH",
"14 -337 OFFCURVE",
"-13 -324 OFFCURVE",
"-34 -298 CURVE",
"-51 -271 OFFCURVE",
"-62 -234 OFFCURVE",
"-58 -185 CURVE"
);
}
);
width = 392;
},
{
layerId = "98164D6F-6418-4A81-93B1-33F1F3344547";
paths = (
{
closed = 1;
nodes = (
"301 359 LINE SMOOTH",
"288 280 OFFCURVE",
"256 207 OFFCURVE",
"206 149 CURVE",
"170 104 OFFCURVE",
"142 81 OFFCURVE",
"119 81 CURVE SMOOTH",
"104 81 OFFCURVE",
"97 97 OFFCURVE",
"97 136 CURVE SMOOTH",
"97 204 OFFCURVE",
"119 293 OFFCURVE",
"152 349 CURVE SMOOTH",
"182 402 OFFCURVE",
"210 433 OFFCURVE",
"244 433 CURVE SMOOTH",
"271 433 OFFCURVE",
"293 426 OFFCURVE",
"310 410 CURVE"
);
},
{
closed = 1;
nodes = (
"-126 -240 LINE",
"-129 -287 OFFCURVE",
"-119 -325 OFFCURVE",
"-98 -355 CURVE",
"-74 -386 OFFCURVE",
"-45 -402 OFFCURVE",
"-11 -402 CURVE SMOOTH",
"61 -402 OFFCURVE",
"133 -359 OFFCURVE",
"203 -275 CURVE SMOOTH",
"231 -240 OFFCURVE",
"256 -193 OFFCURVE",
"271 -149 CURVE SMOOTH",
"287 -105 OFFCURVE",
"298 -11 OFFCURVE",
"310 70 CURVE SMOOTH",
"314 108 OFFCURVE",
"331 258 OFFCURVE",
"381 429 CURVE",
"392 477 LINE",
"373 487 OFFCURVE",
"349 493 OFFCURVE",
"318 493 CURVE SMOOTH",
"246 493 OFFCURVE",
"180 454 OFFCURVE",
"121 379 CURVE SMOOTH",
"65 307 OFFCURVE",
"30 217 OFFCURVE",
"23 116 CURVE SMOOTH",
"18 71 OFFCURVE",
"26 36 OFFCURVE",
"43 18 CURVE",
"48 11 OFFCURVE",
"55 7 OFFCURVE",
"62 6 CURVE",
"67 4 OFFCURVE",
"70 4 OFFCURVE",
"74 4 CURVE SMOOTH",
"129 4 OFFCURVE",
"193 62 OFFCURVE",
"268 179 CURVE",
"268 168 OFFCURVE",
"244 99 OFFCURVE",
"240 70 CURVE SMOOTH",
"217 -91 OFFCURVE",
"195 -207 OFFCURVE",
"173 -251 CURVE",
"141 -308 OFFCURVE",
"99 -337 OFFCURVE",
"48 -337 CURVE SMOOTH",
"14 -337 OFFCURVE",
"-13 -324 OFFCURVE",
"-34 -298 CURVE",
"-51 -271 OFFCURVE",
"-62 -234 OFFCURVE",
"-58 -185 CURVE"
);
}
);
width = 392;
}
);
note = g;
unicode = 0067;
},
{
color = 0;
glyphname = h;
lastChange = "2018-02-09 16:29:38 +0000";
layers = (
{
layerId = "0B1DFD06-3317-40CA-B510-4969A0718C16";
paths = (
{
closed = 1;
nodes = (
"426 162 LINE",
"398 104 OFFCURVE",
"375 74 OFFCURVE",
"358 74 CURVE SMOOTH",
"354 74 OFFCURVE",
"352 81 OFFCURVE",
"354 94 CURVE",
"355 115 OFFCURVE",
"361 143 OFFCURVE",
"366 182 CURVE",
"378 240 OFFCURVE",
"389 304 OFFCURVE",
"399 362 CURVE SMOOTH",
"408 409 OFFCURVE",
"425 500 OFFCURVE",
"371 500 CURVE SMOOTH",
"344 500 OFFCURVE",
"308 480 OFFCURVE",
"267 440 CURVE SMOOTH",
"234 410 OFFCURVE",
"202 369 OFFCURVE",
"169 318 CURVE",
"179 376 OFFCURVE",
"183 415 OFFCURVE",
"193 471 CURVE SMOOTH",
"204 544 OFFCURVE",
"234 694 OFFCURVE",
"287 790 CURVE",
"310 822 OFFCURVE",
"346 842 OFFCURVE",
"376 842 CURVE",
"392 843 OFFCURVE",
"406 843 OFFCURVE",
"423 859 CURVE",
"453 889 OFFCURVE",
"449 906 OFFCURVE",
"443 902 CURVE",
"422 889 OFFCURVE",
"412 889 OFFCURVE",
"395 888 CURVE",
"362 883 OFFCURVE",
"310 872 OFFCURVE",
"264 826 CURVE",
"176 724 OFFCURVE",
"142 562 OFFCURVE",
"126 484 CURVE",
"126 477 OFFCURVE",
"125 470 OFFCURVE",
"72 141 CURVE SMOOTH",
"68 118 OFFCURVE",
"64 84 OFFCURVE",
"62 71 CURVE",
"57 48 LINE",
"53 36 OFFCURVE",
"48 20 OFFCURVE",
"41 9 CURVE",
"37 -1 OFFCURVE",
"53 -3 OFFCURVE",
"65 4 CURVE",
"88 20 OFFCURVE",
"115 44 OFFCURVE",
"131 74 CURVE",
"148 183 LINE",
"159 236 OFFCURVE",
"185 294 OFFCURVE",
"214 338 CURVE SMOOTH",
"250 391 OFFCURVE",
"287 422 OFFCURVE",
"320 422 CURVE SMOOTH",
"329 422 OFFCURVE",
"334 410 OFFCURVE",
"332 389 CURVE",
"332 382 OFFCURVE",
"331 371 OFFCURVE",
"328 354 CURVE SMOOTH",
"324 324 OFFCURVE",
"314 273 OFFCURVE",
"298 178 CURVE SMOOTH",
"290 128 OFFCURVE",
"284 89 OFFCURVE",
"281 62 CURVE",
"278 21 OFFCURVE",
"288 1 OFFCURVE",
"312 1 CURVE SMOOTH",
"335 1 OFFCURVE",
"362 20 OFFCURVE",
"395 55 CURVE SMOOTH",
"426 89 OFFCURVE",
"443 118 OFFCURVE",
"446 142 CURVE",
"446 152 OFFCURVE",
"442 159 OFFCURVE",
"433 163 CURVE"
);
}
);
width = 476;
},
{
layerId = "98164D6F-6418-4A81-93B1-33F1F3344547";
paths = (
{
closed = 1;
nodes = (
"426 162 LINE",
"398 104 OFFCURVE",
"375 74 OFFCURVE",
"358 74 CURVE SMOOTH",
"354 74 OFFCURVE",
"352 81 OFFCURVE",
"354 94 CURVE",
"355 115 OFFCURVE",
"361 143 OFFCURVE",
"366 182 CURVE",
"378 240 OFFCURVE",
"389 304 OFFCURVE",
"399 362 CURVE SMOOTH",
"408 409 OFFCURVE",
"425 500 OFFCURVE",
"371 500 CURVE SMOOTH",
"344 500 OFFCURVE",
"308 480 OFFCURVE",
"267 440 CURVE SMOOTH",
"234 410 OFFCURVE",
"202 369 OFFCURVE",
"169 318 CURVE",
"179 376 OFFCURVE",
"183 415 OFFCURVE",
"193 471 CURVE SMOOTH",
"204 544 OFFCURVE",
"234 694 OFFCURVE",
"287 790 CURVE",
"310 822 OFFCURVE",
"346 842 OFFCURVE",
"376 842 CURVE",
"392 843 OFFCURVE",
"406 843 OFFCURVE",
"423 859 CURVE",
"453 889 OFFCURVE",
"449 906 OFFCURVE",
"443 902 CURVE",
"422 889 OFFCURVE",
"412 889 OFFCURVE",
"395 888 CURVE",
"362 883 OFFCURVE",
"310 872 OFFCURVE",
"264 826 CURVE",
"176 724 OFFCURVE",
"142 562 OFFCURVE",
"126 484 CURVE",
"126 477 OFFCURVE",
"125 470 OFFCURVE",
"72 141 CURVE SMOOTH",
"68 118 OFFCURVE",
"64 84 OFFCURVE",
"62 71 CURVE",
"57 48 LINE",
"53 36 OFFCURVE",
"48 20 OFFCURVE",
"41 9 CURVE",
"37 -1 OFFCURVE",
"53 -3 OFFCURVE",
"65 4 CURVE",
"88 20 OFFCURVE",
"115 44 OFFCURVE",
"131 74 CURVE",
"148 183 LINE",
"159 236 OFFCURVE",
"185 294 OFFCURVE",
"214 338 CURVE SMOOTH",
"250 391 OFFCURVE",
"287 422 OFFCURVE",
"320 422 CURVE SMOOTH",
"329 422 OFFCURVE",
"334 410 OFFCURVE",
"332 389 CURVE",
"332 382 OFFCURVE",
"331 371 OFFCURVE",
"328 354 CURVE SMOOTH",
"324 324 OFFCURVE",
"314 273 OFFCURVE",
"298 178 CURVE SMOOTH",
"290 128 OFFCURVE",
"284 89 OFFCURVE",
"281 62 CURVE",
"278 21 OFFCURVE",
"288 1 OFFCURVE",
"312 1 CURVE SMOOTH",
"335 1 OFFCURVE",
"362 20 OFFCURVE",
"395 55 CURVE SMOOTH",
"426 89 OFFCURVE",
"443 118 OFFCURVE",
"446 142 CURVE",
"446 152 OFFCURVE",
"442 159 OFFCURVE",
"433 163 CURVE"
);
}
);
width = 476;
}
);
note = h;
unicode = 0068;
},
{
color = 0;
glyphname = i;
lastChange = "2018-02-09 16:29:38 +0000";
layers = (
{
layerId = "0B1DFD06-3317-40CA-B510-4969A0718C16";
paths = (
{
closed = 1;
nodes = (
"202 168 LINE",
"176 107 OFFCURVE",
"153 77 OFFCURVE",
"133 77 CURVE SMOOTH",
"129 77 OFFCURVE",
"129 82 OFFCURVE",
"131 92 CURVE",
"131 92 OFFCURVE",
"129 112 OFFCURVE",
"186 400 CURVE",
"190 416 OFFCURVE",
"192 435 OFFCURVE",
"192 442 CURVE",
"193 481 OFFCURVE",
"186 500 OFFCURVE",
"159 500 CURVE SMOOTH",
"141 500 OFFCURVE",
"114 481 OFFCURVE",
"80 446 CURVE",
"51 413 OFFCURVE",
"30 382 OFFCURVE",
"28 361 CURVE",
"28 354 OFFCURVE",
"31 345 OFFCURVE",
"43 334 CURVE",
"70 395 OFFCURVE",
"95 425 OFFCURVE",
"112 425 CURVE SMOOTH",
"122 425 OFFCURVE",
"116 389 OFFCURVE",
"112 378 CURVE",
"64 101 LINE",
"57 55 LINE",
"54 20 OFFCURVE",
"64 1 OFFCURVE",
"87 1 CURVE SMOOTH",
"116 1 OFFCURVE",
"148 26 OFFCURVE",
"183 75 CURVE SMOOTH",
"209 111 OFFCURVE",
"222 135 OFFCURVE",
"223 149 CURVE",
"223 155 OFFCURVE",
"219 162 OFFCURVE",
"210 169 CURVE"
);
},
{
closed = 1;
nodes = (
"222 621 OFFCURVE",
"222 625 OFFCURVE",
"223 632 CURVE",
"233 699 LINE",
"233 700 OFFCURVE",
"217 700 OFFCURVE",
"210 696 CURVE",
"192 689 OFFCURVE",
"162 679 OFFCURVE",
"155 635 CURVE SMOOTH",
"143 557 LINE",
"207 572 OFFCURVE",
"217 591 OFFCURVE",
"222 618 CURVE"
);
}
);
width = 264;
},
{
layerId = "98164D6F-6418-4A81-93B1-33F1F3344547";
paths = (
{
closed = 1;
nodes = (
"202 168 LINE",
"176 107 OFFCURVE",
"153 77 OFFCURVE",
"133 77 CURVE SMOOTH",
"129 77 OFFCURVE",
"129 82 OFFCURVE",
"131 92 CURVE",
"131 92 OFFCURVE",
"129 112 OFFCURVE",
"186 400 CURVE",
"190 416 OFFCURVE",
"192 435 OFFCURVE",
"192 442 CURVE",
"193 481 OFFCURVE",
"186 500 OFFCURVE",
"159 500 CURVE SMOOTH",
"141 500 OFFCURVE",
"114 481 OFFCURVE",
"80 446 CURVE",
"51 413 OFFCURVE",
"30 382 OFFCURVE",
"28 361 CURVE",
"28 354 OFFCURVE",
"31 345 OFFCURVE",
"43 334 CURVE",
"70 395 OFFCURVE",
"95 425 OFFCURVE",
"112 425 CURVE SMOOTH",
"122 425 OFFCURVE",
"116 389 OFFCURVE",
"112 378 CURVE",
"64 101 LINE",
"57 55 LINE",
"54 20 OFFCURVE",
"64 1 OFFCURVE",
"87 1 CURVE SMOOTH",
"116 1 OFFCURVE",
"148 26 OFFCURVE",
"183 75 CURVE SMOOTH",
"209 111 OFFCURVE",
"222 135 OFFCURVE",
"223 149 CURVE",
"223 155 OFFCURVE",
"219 162 OFFCURVE",
"210 169 CURVE"
);
},
{
closed = 1;
nodes = (
"222 621 OFFCURVE",
"222 625 OFFCURVE",
"223 632 CURVE",
"233 699 LINE",
"233 700 OFFCURVE",
"217 700 OFFCURVE",
"210 696 CURVE",
"192 689 OFFCURVE",
"162 679 OFFCURVE",
"155 635 CURVE SMOOTH",
"143 557 LINE",
"207 572 OFFCURVE",
"217 591 OFFCURVE",
"222 618 CURVE"
);
}
);
width = 264;
}
);
note = i;
unicode = 0069;
},
{
color = 0;
glyphname = j;
lastChange = "2018-02-09 16:29:38 +0000";
layers = (
{
layerId = "0B1DFD06-3317-40CA-B510-4969A0718C16";
paths = (
{
closed = 1;
nodes = (
"240 535 LINE",
"173 466 OFFCURVE",
"116 415 OFFCURVE",
"70 382 CURVE",
"62 327 LINE",
"89 344 OFFCURVE",
"105 361 OFFCURVE",
"122 378 CURVE SMOOTH",
"153 409 LINE",
"94 26 LINE SMOOTH",
"72 -118 OFFCURVE",
"51 -223 OFFCURVE",
"30 -270 CURVE SMOOTH",
"9 -317 OFFCURVE",
"-21 -339 OFFCURVE",
"-61 -338 CURVE",
"-78 -337 OFFCURVE",
"-89 -332 OFFCURVE",
"-91 -331 CURVE",
"-104 -327 OFFCURVE",
"-112 -324 OFFCURVE",
"-118 -324 CURVE SMOOTH",
"-136 -324 OFFCURVE",
"-155 -332 OFFCURVE",
"-170 -351 CURVE",
"-206 -386 LINE",
"-183 -398 OFFCURVE",
"-159 -403 OFFCURVE",
"-133 -403 CURVE SMOOTH",
"-58 -403 OFFCURVE",
"10 -358 OFFCURVE",
"68 -278 CURVE",
"109 -216 OFFCURVE",
"142 -115 OFFCURVE",
"163 24 CURVE SMOOTH"
);
},
{
closed = 1;
nodes = (
"258 635 LINE",
"268 699 LINE",
"270 700 OFFCURVE",
"253 700 OFFCURVE",
"246 696 CURVE",
"224 689 OFFCURVE",
"197 679 OFFCURVE",
"190 635 CURVE SMOOTH",
"187 613 LINE",
"183 598 OFFCURVE",
"182 581 OFFCURVE",
"178 557 CURVE",
"244 572 OFFCURVE",
"251 591 OFFCURVE",
"256 618 CURVE SMOOTH"
);
}
);
width = 273;
},
{
layerId = "98164D6F-6418-4A81-93B1-33F1F3344547";
paths = (
{
closed = 1;
nodes = (
"240 535 LINE",
"173 466 OFFCURVE",
"116 415 OFFCURVE",
"70 382 CURVE",
"62 327 LINE",
"89 344 OFFCURVE",
"105 361 OFFCURVE",
"122 378 CURVE SMOOTH",
"153 409 LINE",
"94 26 LINE SMOOTH",
"72 -118 OFFCURVE",
"51 -223 OFFCURVE",
"30 -270 CURVE SMOOTH",
"9 -317 OFFCURVE",
"-21 -339 OFFCURVE",
"-61 -338 CURVE",
"-78 -337 OFFCURVE",
"-89 -332 OFFCURVE",
"-91 -331 CURVE",
"-104 -327 OFFCURVE",
"-112 -324 OFFCURVE",
"-118 -324 CURVE SMOOTH",
"-136 -324 OFFCURVE",
"-155 -332 OFFCURVE",
"-170 -351 CURVE",
"-206 -386 LINE",
"-183 -398 OFFCURVE",
"-159 -403 OFFCURVE",
"-133 -403 CURVE SMOOTH",
"-58 -403 OFFCURVE",
"10 -358 OFFCURVE",
"68 -278 CURVE",
"109 -216 OFFCURVE",
"142 -115 OFFCURVE",
"163 24 CURVE SMOOTH"
);
},
{
closed = 1;
nodes = (
"258 635 LINE",
"268 699 LINE",
"270 700 OFFCURVE",
"253 700 OFFCURVE",
"246 696 CURVE",
"224 689 OFFCURVE",
"197 679 OFFCURVE",
"190 635 CURVE SMOOTH",
"187 613 LINE",
"183 598 OFFCURVE",
"182 581 OFFCURVE",
"178 557 CURVE",
"244 572 OFFCURVE",
"251 591 OFFCURVE",
"256 618 CURVE SMOOTH"
);
}
);
width = 273;
}
);
note = j;
unicode = 006A;
},
{
color = 0;
glyphname = k;
lastChange = "2018-02-09 16:29:38 +0000";
layers = (
{
layerId = "0B1DFD06-3317-40CA-B510-4969A0718C16";
paths = (
{
closed = 1;
nodes = (
"241 412 OFFCURVE",
"261 427 OFFCURVE",
"278 427 CURVE SMOOTH",
"297 427 OFFCURVE",
"304 410 OFFCURVE",
"301 378 CURVE",
"300 345 OFFCURVE",
"284 317 OFFCURVE",
"253 295 CURVE",
"226 274 OFFCURVE",
"193 263 OFFCURVE",
"155 261 CURVE",
"173 311 OFFCURVE",
"195 346 OFFCURVE",
"217 379 CURVE SMOOTH"
);
},
{
closed = 1;
nodes = (
"422 893 LINE",
"416 892 OFFCURVE",
"408 889 OFFCURVE",
"391 888 CURVE",
"358 883 OFFCURVE",
"305 872 OFFCURVE",
"260 826 CURVE",
"182 737 OFFCURVE",
"143 611 OFFCURVE",
"128 528 CURVE SMOOTH",
"54 64 LINE",
"48 43 LINE",
"44 31 OFFCURVE",
"41 18 OFFCURVE",
"36 9 CURVE",
"36 -1 OFFCURVE",
"48 -3 OFFCURVE",
"60 4 CURVE SMOOTH",
"84 20 OFFCURVE",
"109 43 OFFCURVE",
"125 75 CURVE",
"131 122 OFFCURVE",
"139 170 OFFCURVE",
"146 217 CURVE",
"207 71 OFFCURVE",
"243 0 OFFCURVE",
"273 1 CURVE",
"288 1 OFFCURVE",
"311 18 OFFCURVE",
"338 45 CURVE SMOOTH",
"365 72 OFFCURVE",
"379 94 OFFCURVE",
"381 112 CURVE",
"381 122 OFFCURVE",
"375 129 OFFCURVE",
"368 139 CURVE",
"344 98 OFFCURVE",
"324 77 OFFCURVE",
"307 77 CURVE SMOOTH",
"284 77 OFFCURVE",
"253 129 OFFCURVE",
"213 236 CURVE",
"260 251 OFFCURVE",
"298 277 OFFCURVE",
"328 311 CURVE SMOOTH",
"359 346 OFFCURVE",
"376 385 OFFCURVE",
"379 429 CURVE SMOOTH",
"382 476 OFFCURVE",
"365 500 OFFCURVE",
"327 500 CURVE SMOOTH",
"302 500 OFFCURVE",
"267 480 OFFCURVE",
"237 452 CURVE SMOOTH",
"213 427 OFFCURVE",
"189 398 OFFCURVE",
"170 365 CURVE",
"190 500 LINE SMOOTH",
"202 577 OFFCURVE",
"230 711 OFFCURVE",
"283 790 CURVE",
"305 828 OFFCURVE",
"339 842 OFFCURVE",
"372 842 CURVE",
"388 843 OFFCURVE",
"402 843 OFFCURVE",
"419 859 CURVE",
"449 889 OFFCURVE",
"435 897 OFFCURVE",
"427 896 CURVE"
);
}
);
width = 437;
},
{
layerId = "98164D6F-6418-4A81-93B1-33F1F3344547";
paths = (
{
closed = 1;
nodes = (
"241 412 OFFCURVE",
"261 427 OFFCURVE",
"278 427 CURVE SMOOTH",
"297 427 OFFCURVE",
"304 410 OFFCURVE",
"301 378 CURVE",
"300 345 OFFCURVE",
"284 317 OFFCURVE",
"253 295 CURVE",
"226 274 OFFCURVE",
"193 263 OFFCURVE",
"155 261 CURVE",
"173 311 OFFCURVE",
"195 346 OFFCURVE",
"217 379 CURVE SMOOTH"
);
},
{
closed = 1;
nodes = (
"422 893 LINE",
"416 892 OFFCURVE",
"408 889 OFFCURVE",
"391 888 CURVE",
"358 883 OFFCURVE",
"305 872 OFFCURVE",
"260 826 CURVE",
"182 737 OFFCURVE",
"143 611 OFFCURVE",
"128 528 CURVE SMOOTH",
"54 64 LINE",
"48 43 LINE",
"44 31 OFFCURVE",
"41 18 OFFCURVE",
"36 9 CURVE",
"36 -1 OFFCURVE",
"48 -3 OFFCURVE",
"60 4 CURVE SMOOTH",
"84 20 OFFCURVE",
"109 43 OFFCURVE",
"125 75 CURVE",
"131 122 OFFCURVE",
"139 170 OFFCURVE",
"146 217 CURVE",
"207 71 OFFCURVE",
"243 0 OFFCURVE",
"273 1 CURVE",
"288 1 OFFCURVE",
"311 18 OFFCURVE",
"338 45 CURVE SMOOTH",
"365 72 OFFCURVE",
"379 94 OFFCURVE",
"381 112 CURVE",
"381 122 OFFCURVE",
"375 129 OFFCURVE",
"368 139 CURVE",
"344 98 OFFCURVE",
"324 77 OFFCURVE",
"307 77 CURVE SMOOTH",
"284 77 OFFCURVE",
"253 129 OFFCURVE",
"213 236 CURVE",
"260 251 OFFCURVE",
"298 277 OFFCURVE",
"328 311 CURVE SMOOTH",
"359 346 OFFCURVE",
"376 385 OFFCURVE",
"379 429 CURVE SMOOTH",
"382 476 OFFCURVE",
"365 500 OFFCURVE",
"327 500 CURVE SMOOTH",
"302 500 OFFCURVE",
"267 480 OFFCURVE",
"237 452 CURVE SMOOTH",
"213 427 OFFCURVE",
"189 398 OFFCURVE",
"170 365 CURVE",
"190 500 LINE SMOOTH",
"202 577 OFFCURVE",
"230 711 OFFCURVE",
"283 790 CURVE",
"305 828 OFFCURVE",
"339 842 OFFCURVE",
"372 842 CURVE",
"388 843 OFFCURVE",
"402 843 OFFCURVE",
"419 859 CURVE",
"449 889 OFFCURVE",
"435 897 OFFCURVE",
"427 896 CURVE"
);
}
);
width = 437;
}
);
note = k;
unicode = 006B;
},
{
color = 0;
glyphname = l;
lastChange = "2018-02-09 16:29:38 +0000";
layers = (
{
layerId = "0B1DFD06-3317-40CA-B510-4969A0718C16";
paths = (
{
closed = 1;
nodes = (
"420 885 OFFCURVE",
"419 885 OFFCURVE",
"415 883 CURVE",
"409 882 OFFCURVE",
"400 880 OFFCURVE",
"385 880 CURVE",
"349 879 OFFCURVE",
"304 878 OFFCURVE",
"254 825 CURVE SMOOTH",
"159 727 OFFCURVE",
"135 581 OFFCURVE",
"124 497 CURVE SMOOTH",
"105 371 OFFCURVE",
"85 239 OFFCURVE",
"64 112 CURVE",
"60 97 OFFCURVE",
"60 82 OFFCURVE",
"58 70 CURVE",
"57 24 OFFCURVE",
"70 1 OFFCURVE",
"94 1 CURVE SMOOTH",
"115 1 OFFCURVE",
"142 20 OFFCURVE",
"173 55 CURVE SMOOTH",
"202 88 OFFCURVE",
"222 124 OFFCURVE",
"223 148 CURVE",
"223 158 OFFCURVE",
"217 166 OFFCURVE",
"204 176 CURVE",
"195 146 OFFCURVE",
"186 128 OFFCURVE",
"170 104 CURVE SMOOTH",
"158 85 OFFCURVE",
"148 77 OFFCURVE",
"138 77 CURVE SMOOTH",
"133 77 OFFCURVE",
"132 89 OFFCURVE",
"135 116 CURVE SMOOTH",
"136 129 OFFCURVE",
"139 152 OFFCURVE",
"145 185 CURVE SMOOTH",
"206 582 LINE SMOOTH",
"217 652 OFFCURVE",
"244 733 OFFCURVE",
"277 788 CURVE",
"301 821 OFFCURVE",
"335 835 OFFCURVE",
"368 835 CURVE",
"383 836 OFFCURVE",
"396 838 OFFCURVE",
"413 851 CURVE",
"443 878 OFFCURVE",
"429 888 OFFCURVE",
"422 886 CURVE"
);
}
);
width = 285;
},
{
layerId = "98164D6F-6418-4A81-93B1-33F1F3344547";
paths = (
{
closed = 1;
nodes = (
"420 885 OFFCURVE",
"419 885 OFFCURVE",
"415 883 CURVE",
"409 882 OFFCURVE",
"400 880 OFFCURVE",
"385 880 CURVE",
"349 879 OFFCURVE",
"304 878 OFFCURVE",
"254 825 CURVE SMOOTH",
"159 727 OFFCURVE",
"135 581 OFFCURVE",
"124 497 CURVE SMOOTH",
"105 371 OFFCURVE",
"85 239 OFFCURVE",
"64 112 CURVE",
"60 97 OFFCURVE",
"60 82 OFFCURVE",
"58 70 CURVE",
"57 24 OFFCURVE",
"70 1 OFFCURVE",
"94 1 CURVE SMOOTH",
"115 1 OFFCURVE",
"142 20 OFFCURVE",
"173 55 CURVE SMOOTH",
"202 88 OFFCURVE",
"222 124 OFFCURVE",
"223 148 CURVE",
"223 158 OFFCURVE",
"217 166 OFFCURVE",
"204 176 CURVE",
"195 146 OFFCURVE",
"186 128 OFFCURVE",
"170 104 CURVE SMOOTH",
"158 85 OFFCURVE",
"148 77 OFFCURVE",
"138 77 CURVE SMOOTH",
"133 77 OFFCURVE",
"132 89 OFFCURVE",
"135 116 CURVE SMOOTH",
"136 129 OFFCURVE",
"139 152 OFFCURVE",
"145 185 CURVE SMOOTH",
"206 582 LINE SMOOTH",
"217 652 OFFCURVE",
"244 733 OFFCURVE",
"277 788 CURVE",
"301 821 OFFCURVE",
"335 835 OFFCURVE",
"368 835 CURVE",
"383 836 OFFCURVE",
"396 838 OFFCURVE",
"413 851 CURVE",
"443 878 OFFCURVE",
"429 888 OFFCURVE",
"422 886 CURVE"
);
}
);
width = 285;
}
);
note = l;
unicode = 006C;
},
{
color = 0;
glyphname = m;
lastChange = "2018-02-09 16:29:38 +0000";
layers = (
{
layerId = "0B1DFD06-3317-40CA-B510-4969A0718C16";
paths = (
{
closed = 1;
nodes = (
"625 162 LINE",
"615 138 OFFCURVE",
"602 118 OFFCURVE",
"588 101 CURVE",
"574 82 OFFCURVE",
"562 74 OFFCURVE",
"555 74 CURVE SMOOTH",
"551 74 OFFCURVE",
"550 81 OFFCURVE",
"551 95 CURVE SMOOTH",
"552 114 OFFCURVE",
"557 139 OFFCURVE",
"564 175 CURVE",
"564 178 OFFCURVE",
"565 179 OFFCURVE",
"599 365 CURVE SMOOTH",
"604 392 OFFCURVE",
"606 413 OFFCURVE",
"608 432 CURVE SMOOTH",
"611 477 OFFCURVE",
"598 500 OFFCURVE",
"568 500 CURVE SMOOTH",
"541 500 OFFCURVE",
"508 476 OFFCURVE",
"470 435 CURVE SMOOTH",
"437 400 OFFCURVE",
"412 361 OFFCURVE",
"388 311 CURVE",
"388 311 OFFCURVE",
"388 310 OFFCURVE",
"399 378 CURVE SMOOTH",
"403 399 OFFCURVE",
"405 413 OFFCURVE",
"405 429 CURVE",
"408 476 OFFCURVE",
"395 500 OFFCURVE",
"368 500 CURVE SMOOTH",
"315 500 OFFCURVE",
"253 435 OFFCURVE",
"186 320 CURVE",
"200 402 LINE",
"202 413 OFFCURVE",
"204 429 OFFCURVE",
"204 439 CURVE",
"207 480 OFFCURVE",
"195 500 OFFCURVE",
"168 500 CURVE SMOOTH",
"149 500 OFFCURVE",
"124 481 OFFCURVE",
"91 446 CURVE SMOOTH",
"58 412 OFFCURVE",
"40 375 OFFCURVE",
"40 362 CURVE SMOOTH",
"40 358 OFFCURVE",
"45 348 OFFCURVE",
"55 335 CURVE",
"84 395 OFFCURVE",
"107 425 OFFCURVE",
"125 425 CURVE SMOOTH",
"131 425 OFFCURVE",
"132 416 OFFCURVE",
"131 398 CURVE",
"128 379 LINE",
"124 349 LINE",
"85 116 LINE",
"84 101 OFFCURVE",
"80 82 OFFCURVE",
"78 72 CURVE SMOOTH",
"74 48 LINE",
"70 33 OFFCURVE",
"65 20 OFFCURVE",
"58 9 CURVE",
"54 -1 OFFCURVE",
"68 -3 OFFCURVE",
"84 4 CURVE",
"107 17 OFFCURVE",
"132 43 OFFCURVE",
"148 75 CURVE",
"152 97 OFFCURVE",
"156 129 OFFCURVE",
"160 159 CURVE",
"170 214 OFFCURVE",
"195 273 OFFCURVE",
"227 331 CURVE SMOOTH",
"260 386 OFFCURVE",
"293 422 OFFCURVE",
"314 422 CURVE SMOOTH",
"327 422 OFFCURVE",
"331 408 OFFCURVE",
"328 379 CURVE SMOOTH",
"327 362 OFFCURVE",
"324 344 OFFCURVE",
"320 315 CURVE SMOOTH",
"273 23 LINE",
"271 20 OFFCURVE",
"271 17 OFFCURVE",
"271 13 CURVE SMOOTH",
"271 9 LINE SMOOTH",
"271 0 OFFCURVE",
"338 26 OFFCURVE",
"342 41 CURVE",
"346 65 LINE",
"351 82 OFFCURVE",
"355 111 OFFCURVE",
"362 155 CURVE",
"373 207 OFFCURVE",
"396 274 OFFCURVE",
"429 331 CURVE SMOOTH",
"462 383 OFFCURVE",
"497 422 OFFCURVE",
"518 422 CURVE SMOOTH",
"530 422 OFFCURVE",
"534 409 OFFCURVE",
"531 385 CURVE",
"527 364 OFFCURVE",
"523 321 OFFCURVE",
"518 298 CURVE SMOOTH",
"497 195 OFFCURVE",
"490 135 OFFCURVE",
"484 102 CURVE",
"480 84 OFFCURVE",
"479 70 OFFCURVE",
"479 62 CURVE",
"476 21 OFFCURVE",
"488 1 OFFCURVE",
"515 1 CURVE SMOOTH",
"534 1 OFFCURVE",
"561 20 OFFCURVE",
"594 55 CURVE SMOOTH",
"625 89 OFFCURVE",
"642 118 OFFCURVE",
"645 142 CURVE",
"646 148 OFFCURVE",
"643 155 OFFCURVE",
"635 163 CURVE"
);
}
);
width = 686;
},
{
layerId = "98164D6F-6418-4A81-93B1-33F1F3344547";
paths = (
{
closed = 1;
nodes = (
"625 162 LINE",
"615 138 OFFCURVE",
"602 118 OFFCURVE",
"588 101 CURVE",
"574 82 OFFCURVE",
"562 74 OFFCURVE",
"555 74 CURVE SMOOTH",
"551 74 OFFCURVE",
"550 81 OFFCURVE",
"551 95 CURVE SMOOTH",
"552 114 OFFCURVE",
"557 139 OFFCURVE",
"564 175 CURVE",
"564 178 OFFCURVE",
"565 179 OFFCURVE",
"599 365 CURVE SMOOTH",
"604 392 OFFCURVE",
"606 413 OFFCURVE",
"608 432 CURVE SMOOTH",
"611 477 OFFCURVE",
"598 500 OFFCURVE",
"568 500 CURVE SMOOTH",
"541 500 OFFCURVE",
"508 476 OFFCURVE",
"470 435 CURVE SMOOTH",
"437 400 OFFCURVE",
"412 361 OFFCURVE",
"388 311 CURVE",
"388 311 OFFCURVE",
"388 310 OFFCURVE",
"399 378 CURVE SMOOTH",
"403 399 OFFCURVE",
"405 413 OFFCURVE",
"405 429 CURVE",
"408 476 OFFCURVE",
"395 500 OFFCURVE",
"368 500 CURVE SMOOTH",
"315 500 OFFCURVE",
"253 435 OFFCURVE",
"186 320 CURVE",
"200 402 LINE",
"202 413 OFFCURVE",
"204 429 OFFCURVE",
"204 439 CURVE",
"207 480 OFFCURVE",
"195 500 OFFCURVE",
"168 500 CURVE SMOOTH",
"149 500 OFFCURVE",
"124 481 OFFCURVE",
"91 446 CURVE SMOOTH",
"58 412 OFFCURVE",
"40 375 OFFCURVE",
"40 362 CURVE SMOOTH",
"40 358 OFFCURVE",
"45 348 OFFCURVE",
"55 335 CURVE",
"84 395 OFFCURVE",
"107 425 OFFCURVE",
"125 425 CURVE SMOOTH",
"131 425 OFFCURVE",
"132 416 OFFCURVE",
"131 398 CURVE",
"128 379 LINE",
"124 349 LINE",
"85 116 LINE",
"84 101 OFFCURVE",
"80 82 OFFCURVE",
"78 72 CURVE SMOOTH",
"74 48 LINE",
"70 33 OFFCURVE",
"65 20 OFFCURVE",
"58 9 CURVE",
"54 -1 OFFCURVE",
"68 -3 OFFCURVE",
"84 4 CURVE",
"107 17 OFFCURVE",
"132 43 OFFCURVE",
"148 75 CURVE",
"152 97 OFFCURVE",
"156 129 OFFCURVE",
"160 159 CURVE",
"170 214 OFFCURVE",
"195 273 OFFCURVE",
"227 331 CURVE SMOOTH",
"260 386 OFFCURVE",
"293 422 OFFCURVE",
"314 422 CURVE SMOOTH",
"327 422 OFFCURVE",
"331 408 OFFCURVE",
"328 379 CURVE SMOOTH",
"327 362 OFFCURVE",
"324 344 OFFCURVE",
"320 315 CURVE SMOOTH",
"273 23 LINE",
"271 20 OFFCURVE",
"271 17 OFFCURVE",
"271 13 CURVE SMOOTH",
"271 9 LINE SMOOTH",
"271 0 OFFCURVE",
"338 26 OFFCURVE",
"342 41 CURVE",
"346 65 LINE",
"351 82 OFFCURVE",
"355 111 OFFCURVE",
"362 155 CURVE",
"373 207 OFFCURVE",
"396 274 OFFCURVE",
"429 331 CURVE SMOOTH",
"462 383 OFFCURVE",
"497 422 OFFCURVE",
"518 422 CURVE SMOOTH",
"530 422 OFFCURVE",
"534 409 OFFCURVE",
"531 385 CURVE",
"527 364 OFFCURVE",
"523 321 OFFCURVE",
"518 298 CURVE SMOOTH",
"497 195 OFFCURVE",
"490 135 OFFCURVE",
"484 102 CURVE",
"480 84 OFFCURVE",
"479 70 OFFCURVE",
"479 62 CURVE",
"476 21 OFFCURVE",
"488 1 OFFCURVE",
"515 1 CURVE SMOOTH",
"534 1 OFFCURVE",
"561 20 OFFCURVE",
"594 55 CURVE SMOOTH",
"625 89 OFFCURVE",
"642 118 OFFCURVE",
"645 142 CURVE",
"646 148 OFFCURVE",
"643 155 OFFCURVE",
"635 163 CURVE"
);
}
);
width = 686;
}
);
note = m;
unicode = 006D;
},
{
color = 0;
glyphname = n;
lastChange = "2018-02-09 16:29:38 +0000";
layers = (
{
layerId = "0B1DFD06-3317-40CA-B510-4969A0718C16";
paths = (
{
closed = 1;
nodes = (
"436 162 LINE",
"408 104 OFFCURVE",
"385 74 OFFCURVE",
"369 74 CURVE SMOOTH",
"365 74 OFFCURVE",
"364 81 OFFCURVE",
"365 94 CURVE",
"365 114 OFFCURVE",
"372 146 OFFCURVE",
"413 365 CURVE SMOOTH",
"422 416 OFFCURVE",
"436 500 OFFCURVE",
"382 500 CURVE SMOOTH",
"354 500 OFFCURVE",
"320 480 OFFCURVE",
"278 440 CURVE SMOOTH",
"244 408 OFFCURVE",
"213 365 OFFCURVE",
"180 315 CURVE",
"180 322 OFFCURVE",
"182 324 OFFCURVE",
"193 402 CURVE SMOOTH",
"195 415 OFFCURVE",
"197 427 OFFCURVE",
"197 439 CURVE",
"200 480 OFFCURVE",
"189 500 OFFCURVE",
"162 500 CURVE SMOOTH",
"142 500 OFFCURVE",
"116 481 OFFCURVE",
"85 446 CURVE SMOOTH",
"57 413 OFFCURVE",
"34 372 OFFCURVE",
"36 362 CURVE",
"37 355 OFFCURVE",
"43 346 OFFCURVE",
"51 335 CURVE",
"78 395 OFFCURVE",
"101 425 OFFCURVE",
"119 425 CURVE SMOOTH",
"125 425 OFFCURVE",
"126 416 OFFCURVE",
"125 398 CURVE",
"118 349 LINE SMOOTH",
"88 153 OFFCURVE",
"77 111 OFFCURVE",
"72 72 CURVE",
"67 48 LINE SMOOTH",
"64 36 OFFCURVE",
"60 21 OFFCURVE",
"53 9 CURVE",
"48 -1 OFFCURVE",
"61 -3 OFFCURVE",
"77 4 CURVE",
"101 20 OFFCURVE",
"126 43 OFFCURVE",
"142 75 CURVE",
"146 104 OFFCURVE",
"153 135 OFFCURVE",
"158 163 CURVE SMOOTH",
"168 224 OFFCURVE",
"192 287 OFFCURVE",
"227 338 CURVE",
"263 393 OFFCURVE",
"297 422 OFFCURVE",
"329 422 CURVE SMOOTH",
"339 422 OFFCURVE",
"345 410 OFFCURVE",
"344 388 CURVE SMOOTH",
"337 293 OFFCURVE",
"297 153 OFFCURVE",
"293 62 CURVE SMOOTH",
"290 21 OFFCURVE",
"300 1 OFFCURVE",
"324 1 CURVE SMOOTH",
"345 1 OFFCURVE",
"372 20 OFFCURVE",
"405 55 CURVE SMOOTH",
"437 91 OFFCURVE",
"454 119 OFFCURVE",
"456 143 CURVE",
"456 151 OFFCURVE",
"452 158 OFFCURVE",
"444 163 CURVE"
);
}
);
width = 498;
},
{
layerId = "98164D6F-6418-4A81-93B1-33F1F3344547";
paths = (
{
closed = 1;
nodes = (
"436 162 LINE",
"408 104 OFFCURVE",
"385 74 OFFCURVE",
"369 74 CURVE SMOOTH",
"365 74 OFFCURVE",
"364 81 OFFCURVE",
"365 94 CURVE",
"365 114 OFFCURVE",
"372 146 OFFCURVE",
"413 365 CURVE SMOOTH",
"422 416 OFFCURVE",
"436 500 OFFCURVE",
"382 500 CURVE SMOOTH",
"354 500 OFFCURVE",
"320 480 OFFCURVE",
"278 440 CURVE SMOOTH",
"244 408 OFFCURVE",
"213 365 OFFCURVE",
"180 315 CURVE",
"180 322 OFFCURVE",
"182 324 OFFCURVE",
"193 402 CURVE SMOOTH",
"195 415 OFFCURVE",
"197 427 OFFCURVE",
"197 439 CURVE",
"200 480 OFFCURVE",
"189 500 OFFCURVE",
"162 500 CURVE SMOOTH",
"142 500 OFFCURVE",
"116 481 OFFCURVE",
"85 446 CURVE SMOOTH",
"57 413 OFFCURVE",
"34 372 OFFCURVE",
"36 362 CURVE",
"37 355 OFFCURVE",
"43 346 OFFCURVE",
"51 335 CURVE",
"78 395 OFFCURVE",
"101 425 OFFCURVE",
"119 425 CURVE SMOOTH",
"125 425 OFFCURVE",
"126 416 OFFCURVE",
"125 398 CURVE",
"118 349 LINE SMOOTH",
"88 153 OFFCURVE",
"77 111 OFFCURVE",
"72 72 CURVE",
"67 48 LINE SMOOTH",
"64 36 OFFCURVE",
"60 21 OFFCURVE",
"53 9 CURVE",
"48 -1 OFFCURVE",
"61 -3 OFFCURVE",
"77 4 CURVE",
"101 20 OFFCURVE",
"126 43 OFFCURVE",
"142 75 CURVE",
"146 104 OFFCURVE",
"153 135 OFFCURVE",
"158 163 CURVE SMOOTH",
"168 224 OFFCURVE",
"192 287 OFFCURVE",
"227 338 CURVE",
"263 393 OFFCURVE",
"297 422 OFFCURVE",
"329 422 CURVE SMOOTH",
"339 422 OFFCURVE",
"345 410 OFFCURVE",
"344 388 CURVE SMOOTH",
"337 293 OFFCURVE",
"297 153 OFFCURVE",
"293 62 CURVE SMOOTH",
"290 21 OFFCURVE",
"300 1 OFFCURVE",
"324 1 CURVE SMOOTH",
"345 1 OFFCURVE",
"372 20 OFFCURVE",
"405 55 CURVE SMOOTH",
"437 91 OFFCURVE",
"454 119 OFFCURVE",
"456 143 CURVE",
"456 151 OFFCURVE",
"452 158 OFFCURVE",
"444 163 CURVE"
);
}
);
width = 498;
}
);
note = n;
unicode = 006E;
},
{
color = 0;
glyphname = o;
lastChange = "2018-02-09 16:29:38 +0000";
layers = (
{
layerId = "0B1DFD06-3317-40CA-B510-4969A0718C16";
paths = (
{
closed = 1;
nodes = (
"124 277 OFFCURVE",
"136 328 OFFCURVE",
"160 372 CURVE SMOOTH",
"182 413 OFFCURVE",
"206 433 OFFCURVE",
"236 433 CURVE SMOOTH",
"283 433 OFFCURVE",
"302 383 OFFCURVE",
"295 284 CURVE SMOOTH",
"291 222 OFFCURVE",
"277 172 OFFCURVE",
"254 128 CURVE SMOOTH",
"233 89 OFFCURVE",
"207 67 OFFCURVE",
"179 67 CURVE SMOOTH",
"132 67 OFFCURVE",
"112 116 OFFCURVE",
"119 216 CURVE SMOOTH"
);
},
{
closed = 1;
nodes = (
"339 186 OFFCURVE",
"366 267 OFFCURVE",
"372 346 CURVE SMOOTH",
"378 443 OFFCURVE",
"349 500 OFFCURVE",
"285 500 CURVE SMOOTH",
"236 500 OFFCURVE",
"180 456 OFFCURVE",
"131 386 CURVE SMOOTH",
"80 312 OFFCURVE",
"48 234 OFFCURVE",
"43 155 CURVE SMOOTH",
"36 53 OFFCURVE",
"64 1 OFFCURVE",
"128 1 CURVE SMOOTH",
"179 1 OFFCURVE",
"231 38 OFFCURVE",
"284 114 CURVE"
);
}
);
width = 391;
},
{
layerId = "98164D6F-6418-4A81-93B1-33F1F3344547";
paths = (
{
closed = 1;
nodes = (
"124 277 OFFCURVE",
"136 328 OFFCURVE",
"160 372 CURVE SMOOTH",
"182 413 OFFCURVE",
"206 433 OFFCURVE",
"236 433 CURVE SMOOTH",
"283 433 OFFCURVE",
"302 383 OFFCURVE",
"295 284 CURVE SMOOTH",
"291 222 OFFCURVE",
"277 172 OFFCURVE",
"254 128 CURVE SMOOTH",
"233 89 OFFCURVE",
"207 67 OFFCURVE",
"179 67 CURVE SMOOTH",
"132 67 OFFCURVE",
"112 116 OFFCURVE",
"119 216 CURVE SMOOTH"
);
},
{
closed = 1;
nodes = (
"339 186 OFFCURVE",
"366 267 OFFCURVE",
"372 346 CURVE SMOOTH",
"378 443 OFFCURVE",
"349 500 OFFCURVE",
"285 500 CURVE SMOOTH",
"236 500 OFFCURVE",
"180 456 OFFCURVE",
"131 386 CURVE SMOOTH",
"80 312 OFFCURVE",
"48 234 OFFCURVE",
"43 155 CURVE SMOOTH",
"36 53 OFFCURVE",
"64 1 OFFCURVE",
"128 1 CURVE SMOOTH",
"179 1 OFFCURVE",
"231 38 OFFCURVE",
"284 114 CURVE"
);
}
);
width = 391;
}
);
note = o;
unicode = 006F;
},
{
color = 0;
glyphname = p;
lastChange = "2018-02-09 16:29:38 +0000";
layers = (
{
layerId = "0B1DFD06-3317-40CA-B510-4969A0718C16";
paths = (
{
closed = 1;
nodes = (
"160 139 LINE",
"176 219 OFFCURVE",
"203 295 OFFCURVE",
"249 351 CURVE SMOOTH",
"283 395 OFFCURVE",
"311 416 OFFCURVE",
"332 416 CURVE SMOOTH",
"349 416 OFFCURVE",
"356 393 OFFCURVE",
"354 346 CURVE SMOOTH",
"348 264 OFFCURVE",
"331 197 OFFCURVE",
"304 145 CURVE",
"281 92 OFFCURVE",
"253 67 OFFCURVE",
"217 67 CURVE SMOOTH",
"190 67 OFFCURVE",
"175 72 OFFCURVE",
"153 88 CURVE"
);
},
{
closed = 1;
nodes = (
"149 7 LINE",
"217 6 OFFCURVE",
"281 44 OFFCURVE",
"337 116 CURVE SMOOTH",
"393 189 OFFCURVE",
"425 274 OFFCURVE",
"430 372 CURVE SMOOTH",
"436 457 OFFCURVE",
"417 500 OFFCURVE",
"376 500 CURVE SMOOTH",
"348 500 OFFCURVE",
"315 480 OFFCURVE",
"277 439 CURVE",
"250 415 OFFCURVE",
"213 365 OFFCURVE",
"185 315 CURVE",
"219 533 LINE",
"152 459 OFFCURVE",
"94 409 OFFCURVE",
"48 376 CURVE",
"41 320 LINE",
"82 352 OFFCURVE",
"108 376 OFFCURVE",
"132 400 CURVE",
"105 230 OFFCURVE",
"82 72 OFFCURVE",
"55 -97 CURVE SMOOTH",
"34 -244 OFFCURVE",
"-17 -324 OFFCURVE",
"-89 -324 CURVE SMOOTH",
"-104 -324 OFFCURVE",
"-119 -321 OFFCURVE",
"-135 -314 CURVE",
"-204 -393 LINE",
"-186 -400 OFFCURVE",
"-170 -403 OFFCURVE",
"-158 -403 CURVE",
"-38 -396 OFFCURVE",
"95 -251 OFFCURVE",
"114 -149 CURVE SMOOTH",
"124 -98 OFFCURVE",
"132 -43 OFFCURVE",
"142 9 CURVE"
);
}
);
width = 456;
},
{
layerId = "98164D6F-6418-4A81-93B1-33F1F3344547";
paths = (
{
closed = 1;
nodes = (
"160 139 LINE",
"176 219 OFFCURVE",
"203 295 OFFCURVE",
"249 351 CURVE SMOOTH",
"283 395 OFFCURVE",
"311 416 OFFCURVE",
"332 416 CURVE SMOOTH",
"349 416 OFFCURVE",
"356 393 OFFCURVE",
"354 346 CURVE SMOOTH",
"348 264 OFFCURVE",
"331 197 OFFCURVE",
"304 145 CURVE",
"281 92 OFFCURVE",
"253 67 OFFCURVE",
"217 67 CURVE SMOOTH",
"190 67 OFFCURVE",
"175 72 OFFCURVE",
"153 88 CURVE"
);
},
{
closed = 1;
nodes = (
"149 7 LINE",
"217 6 OFFCURVE",
"281 44 OFFCURVE",
"337 116 CURVE SMOOTH",
"393 189 OFFCURVE",
"425 274 OFFCURVE",
"430 372 CURVE SMOOTH",
"436 457 OFFCURVE",
"417 500 OFFCURVE",
"376 500 CURVE SMOOTH",
"348 500 OFFCURVE",
"315 480 OFFCURVE",
"277 439 CURVE",
"250 415 OFFCURVE",
"213 365 OFFCURVE",
"185 315 CURVE",
"219 533 LINE",
"152 459 OFFCURVE",
"94 409 OFFCURVE",
"48 376 CURVE",
"41 320 LINE",
"82 352 OFFCURVE",
"108 376 OFFCURVE",
"132 400 CURVE",
"105 230 OFFCURVE",
"82 72 OFFCURVE",
"55 -97 CURVE SMOOTH",
"34 -244 OFFCURVE",
"-17 -324 OFFCURVE",
"-89 -324 CURVE SMOOTH",
"-104 -324 OFFCURVE",
"-119 -321 OFFCURVE",
"-135 -314 CURVE",
"-204 -393 LINE",
"-186 -400 OFFCURVE",
"-170 -403 OFFCURVE",
"-158 -403 CURVE",
"-38 -396 OFFCURVE",
"95 -251 OFFCURVE",
"114 -149 CURVE SMOOTH",
"124 -98 OFFCURVE",
"132 -43 OFFCURVE",
"142 9 CURVE"
);
}
);
width = 456;
}
);
note = p;
unicode = 0070;
},
{
color = 0;
glyphname = q;
lastChange = "2018-02-09 16:29:38 +0000";
layers = (
{
layerId = "0B1DFD06-3317-40CA-B510-4969A0718C16";
paths = (
{
closed = 1;
nodes = (
"320 359 LINE SMOOTH",
"310 310 OFFCURVE",
"302 273 OFFCURVE",
"291 246 CURVE SMOOTH",
"284 229 OFFCURVE",
"260 192 OFFCURVE",
"233 159 CURVE SMOOTH",
"193 112 OFFCURVE",
"163 87 OFFCURVE",
"143 85 CURVE SMOOTH",
"128 84 OFFCURVE",
"122 104 OFFCURVE",
"125 145 CURVE SMOOTH",
"132 224 OFFCURVE",
"149 293 OFFCURVE",
"176 351 CURVE",
"206 406 OFFCURVE",
"237 433 OFFCURVE",
"270 433 CURVE SMOOTH",
"294 433 OFFCURVE",
"314 426 OFFCURVE",
"329 416 CURVE"
);
},
{
closed = 1;
nodes = (
"396 405 LINE",
"400 426 LINE",
"405 437 OFFCURVE",
"406 452 OFFCURVE",
"410 463 CURVE",
"410 464 OFFCURVE",
"410 467 OFFCURVE",
"412 469 CURVE",
"415 479 LINE",
"395 488 OFFCURVE",
"369 493 OFFCURVE",
"339 493 CURVE SMOOTH",
"270 493 OFFCURVE",
"204 454 OFFCURVE",
"146 379 CURVE SMOOTH",
"88 305 OFFCURVE",
"54 213 OFFCURVE",
"47 116 CURVE SMOOTH",
"43 44 OFFCURVE",
"60 1 OFFCURVE",
"98 1 CURVE SMOOTH",
"125 1 OFFCURVE",
"158 21 OFFCURVE",
"196 62 CURVE",
"229 95 OFFCURVE",
"260 138 OFFCURVE",
"293 189 CURVE",
"197 -413 LINE",
"266 -339 OFFCURVE",
"324 -287 OFFCURVE",
"373 -254 CURVE",
"382 -199 LINE",
"361 -210 OFFCURVE",
"302 -263 OFFCURVE",
"287 -281 CURVE"
);
}
);
width = 450;
},
{
layerId = "98164D6F-6418-4A81-93B1-33F1F3344547";
paths = (
{
closed = 1;
nodes = (
"320 359 LINE SMOOTH",
"310 310 OFFCURVE",
"302 273 OFFCURVE",
"291 246 CURVE SMOOTH",
"284 229 OFFCURVE",
"260 192 OFFCURVE",
"233 159 CURVE SMOOTH",
"193 112 OFFCURVE",
"163 87 OFFCURVE",
"143 85 CURVE SMOOTH",
"128 84 OFFCURVE",
"122 104 OFFCURVE",
"125 145 CURVE SMOOTH",
"132 224 OFFCURVE",
"149 293 OFFCURVE",
"176 351 CURVE",
"206 406 OFFCURVE",
"237 433 OFFCURVE",
"270 433 CURVE SMOOTH",
"294 433 OFFCURVE",
"314 426 OFFCURVE",
"329 416 CURVE"
);
},
{
closed = 1;
nodes = (
"396 405 LINE",
"400 426 LINE",
"405 437 OFFCURVE",
"406 452 OFFCURVE",
"410 463 CURVE",
"410 464 OFFCURVE",
"410 467 OFFCURVE",
"412 469 CURVE",
"415 479 LINE",
"395 488 OFFCURVE",
"369 493 OFFCURVE",
"339 493 CURVE SMOOTH",
"270 493 OFFCURVE",
"204 454 OFFCURVE",
"146 379 CURVE SMOOTH",
"88 305 OFFCURVE",
"54 213 OFFCURVE",
"47 116 CURVE SMOOTH",
"43 44 OFFCURVE",
"60 1 OFFCURVE",
"98 1 CURVE SMOOTH",
"125 1 OFFCURVE",
"158 21 OFFCURVE",
"196 62 CURVE",
"229 95 OFFCURVE",
"260 138 OFFCURVE",
"293 189 CURVE",
"197 -413 LINE",
"266 -339 OFFCURVE",
"324 -287 OFFCURVE",
"373 -254 CURVE",
"382 -199 LINE",
"361 -210 OFFCURVE",
"302 -263 OFFCURVE",
"287 -281 CURVE"
);
}
);
width = 450;
}
);
note = q;
unicode = 0071;
},
{
color = 0;
glyphname = r;
lastChange = "2018-02-09 16:29:38 +0000";
layers = (
{
layerId = "0B1DFD06-3317-40CA-B510-4969A0718C16";
paths = (
{
closed = 1;
nodes = (
"307 500 OFFCURVE",
"249 440 OFFCURVE",
"186 320 CURVE",
"196 371 OFFCURVE",
"202 410 OFFCURVE",
"203 437 CURVE SMOOTH",
"206 479 OFFCURVE",
"195 500 OFFCURVE",
"168 500 CURVE SMOOTH",
"151 500 OFFCURVE",
"116 483 OFFCURVE",
"88 447 CURVE SMOOTH",
"55 409 OFFCURVE",
"40 372 OFFCURVE",
"40 365 CURVE SMOOTH",
"40 355 OFFCURVE",
"47 348 OFFCURVE",
"57 332 CURVE",
"84 393 OFFCURVE",
"105 425 OFFCURVE",
"124 425 CURVE SMOOTH",
"128 425 OFFCURVE",
"129 416 OFFCURVE",
"129 399 CURVE SMOOTH",
"129 383 OFFCURVE",
"128 362 OFFCURVE",
"124 349 CURVE",
"116 308 OFFCURVE",
"107 243 OFFCURVE",
"77 72 CURVE SMOOTH",
"72 50 LINE",
"68 37 OFFCURVE",
"64 20 OFFCURVE",
"57 10 CURVE",
"53 0 OFFCURVE",
"67 -1 OFFCURVE",
"82 6 CURVE",
"105 18 OFFCURVE",
"128 40 OFFCURVE",
"145 72 CURVE",
"145 74 OFFCURVE",
"155 133 OFFCURVE",
"162 168 CURVE SMOOTH",
"172 224 OFFCURVE",
"192 278 OFFCURVE",
"224 328 CURVE",
"257 383 OFFCURVE",
"285 410 OFFCURVE",
"312 410 CURVE SMOOTH",
"322 410 OFFCURVE",
"358 410 OFFCURVE",
"346 364 CURVE",
"346 358 LINE",
"386 391 OFFCURVE",
"400 417 OFFCURVE",
"406 439 CURVE SMOOTH",
"409 450 OFFCURVE",
"409 462 OFFCURVE",
"406 471 CURVE",
"402 493 OFFCURVE",
"379 500 OFFCURVE",
"362 500 CURVE SMOOTH"
);
}
);
width = 344;
},
{
layerId = "98164D6F-6418-4A81-93B1-33F1F3344547";
paths = (
{
closed = 1;
nodes = (
"307 500 OFFCURVE",
"249 440 OFFCURVE",
"186 320 CURVE",
"196 371 OFFCURVE",
"202 410 OFFCURVE",
"203 437 CURVE SMOOTH",
"206 479 OFFCURVE",
"195 500 OFFCURVE",
"168 500 CURVE SMOOTH",
"151 500 OFFCURVE",
"116 483 OFFCURVE",
"88 447 CURVE SMOOTH",
"55 409 OFFCURVE",
"40 372 OFFCURVE",
"40 365 CURVE SMOOTH",
"40 355 OFFCURVE",
"47 348 OFFCURVE",
"57 332 CURVE",
"84 393 OFFCURVE",
"105 425 OFFCURVE",
"124 425 CURVE SMOOTH",
"128 425 OFFCURVE",
"129 416 OFFCURVE",
"129 399 CURVE SMOOTH",
"129 383 OFFCURVE",
"128 362 OFFCURVE",
"124 349 CURVE",
"116 308 OFFCURVE",
"107 243 OFFCURVE",
"77 72 CURVE SMOOTH",
"72 50 LINE",
"68 37 OFFCURVE",
"64 20 OFFCURVE",
"57 10 CURVE",
"53 0 OFFCURVE",
"67 -1 OFFCURVE",
"82 6 CURVE",
"105 18 OFFCURVE",
"128 40 OFFCURVE",
"145 72 CURVE",
"145 74 OFFCURVE",
"155 133 OFFCURVE",
"162 168 CURVE SMOOTH",
"172 224 OFFCURVE",
"192 278 OFFCURVE",
"224 328 CURVE",
"257 383 OFFCURVE",
"285 410 OFFCURVE",
"312 410 CURVE SMOOTH",
"322 410 OFFCURVE",
"358 410 OFFCURVE",
"346 364 CURVE",
"346 358 LINE",
"386 391 OFFCURVE",
"400 417 OFFCURVE",
"406 439 CURVE SMOOTH",
"409 450 OFFCURVE",
"409 462 OFFCURVE",
"406 471 CURVE",
"402 493 OFFCURVE",
"379 500 OFFCURVE",
"362 500 CURVE SMOOTH"
);
}
);
width = 344;
}
);
note = r;
unicode = 0072;
},
{
color = 0;
glyphname = s;
lastChange = "2018-02-09 16:29:38 +0000";
layers = (
{
layerId = "0B1DFD06-3317-40CA-B510-4969A0718C16";
paths = (
{
closed = 1;
nodes = (
"-7 34 LINE",
"20 13 OFFCURVE",
"51 1 OFFCURVE",
"84 1 CURVE SMOOTH",
"126 1 OFFCURVE",
"166 18 OFFCURVE",
"202 51 CURVE",
"234 84 OFFCURVE",
"263 121 OFFCURVE",
"258 166 CURVE SMOOTH",
"254 204 OFFCURVE",
"246 234 OFFCURVE",
"210 284 CURVE SMOOTH",
"187 315 LINE SMOOTH",
"160 355 OFFCURVE",
"145 386 OFFCURVE",
"146 408 CURVE",
"149 433 OFFCURVE",
"163 446 OFFCURVE",
"187 446 CURVE SMOOTH",
"209 446 OFFCURVE",
"231 436 OFFCURVE",
"253 416 CURVE",
"315 481 LINE",
"283 494 OFFCURVE",
"257 500 OFFCURVE",
"236 500 CURVE SMOOTH",
"196 500 OFFCURVE",
"158 483 OFFCURVE",
"131 459 CURVE SMOOTH",
"99 432 OFFCURVE",
"84 399 OFFCURVE",
"84 358 CURVE SMOOTH",
"84 325 OFFCURVE",
"94 295 OFFCURVE",
"126 250 CURVE SMOOTH",
"148 220 LINE SMOOTH",
"179 175 OFFCURVE",
"195 141 OFFCURVE",
"193 116 CURVE",
"189 75 OFFCURVE",
"173 54 OFFCURVE",
"135 54 CURVE SMOOTH",
"105 54 OFFCURVE",
"81 68 OFFCURVE",
"60 98 CURVE"
);
}
);
width = 321;
},
{
layerId = "98164D6F-6418-4A81-93B1-33F1F3344547";
paths = (
{
closed = 1;
nodes = (
"-7 34 LINE",
"20 13 OFFCURVE",
"51 1 OFFCURVE",
"84 1 CURVE SMOOTH",
"126 1 OFFCURVE",
"166 18 OFFCURVE",
"202 51 CURVE",
"234 84 OFFCURVE",
"263 121 OFFCURVE",
"258 166 CURVE SMOOTH",
"254 204 OFFCURVE",
"246 234 OFFCURVE",
"210 284 CURVE SMOOTH",
"187 315 LINE SMOOTH",
"160 355 OFFCURVE",
"145 386 OFFCURVE",
"146 408 CURVE",
"149 433 OFFCURVE",
"163 446 OFFCURVE",
"187 446 CURVE SMOOTH",
"209 446 OFFCURVE",
"231 436 OFFCURVE",
"253 416 CURVE",
"315 481 LINE",
"283 494 OFFCURVE",
"257 500 OFFCURVE",
"236 500 CURVE SMOOTH",
"196 500 OFFCURVE",
"158 483 OFFCURVE",
"131 459 CURVE SMOOTH",
"99 432 OFFCURVE",
"84 399 OFFCURVE",
"84 358 CURVE SMOOTH",
"84 325 OFFCURVE",
"94 295 OFFCURVE",
"126 250 CURVE SMOOTH",
"148 220 LINE SMOOTH",
"179 175 OFFCURVE",
"195 141 OFFCURVE",
"193 116 CURVE",
"189 75 OFFCURVE",
"173 54 OFFCURVE",
"135 54 CURVE SMOOTH",
"105 54 OFFCURVE",
"81 68 OFFCURVE",
"60 98 CURVE"
);
}
);
width = 321;
}
);
note = s;
unicode = 0073;
},
{
color = 0;
glyphname = t;
lastChange = "2018-02-09 16:29:38 +0000";
layers = (
{
layerId = "0B1DFD06-3317-40CA-B510-4969A0718C16";
paths = (
{
closed = 1;
nodes = (
"155 61 OFFCURVE",
"146 78 OFFCURVE",
"149 114 CURVE SMOOTH",
"151 132 OFFCURVE",
"153 156 OFFCURVE",
"160 202 CURVE SMOOTH",
"197 426 LINE",
"258 426 LINE SMOOTH",
"270 426 OFFCURVE",
"335 481 OFFCURVE",
"308 481 CURVE SMOOTH",
"206 481 LINE",
"217 558 LINE SMOOTH",
"222 586 OFFCURVE",
"239 616 OFFCURVE",
"243 623 CURVE",
"244 629 OFFCURVE",
"230 629 OFFCURVE",
"219 623 CURVE",
"192 612 OFFCURVE",
"159 586 OFFCURVE",
"153 552 CURVE",
"153 551 OFFCURVE",
"153 547 OFFCURVE",
"152 542 CURVE",
"141 481 LINE",
"80 481 LINE SMOOTH",
"65 481 OFFCURVE",
"9 430 OFFCURVE",
"30 426 CURVE",
"133 426 LINE",
"97 202 LINE SMOOTH",
"87 146 OFFCURVE",
"84 115 OFFCURVE",
"82 92 CURVE SMOOTH",
"78 31 OFFCURVE",
"97 1 OFFCURVE",
"136 1 CURVE SMOOTH",
"155 1 OFFCURVE",
"179 9 OFFCURVE",
"206 36 CURVE SMOOTH",
"234 62 OFFCURVE",
"246 87 OFFCURVE",
"250 108 CURVE SMOOTH",
"251 115 OFFCURVE",
"250 122 OFFCURVE",
"244 129 CURVE",
"217 89 OFFCURVE",
"195 61 OFFCURVE",
"173 61 CURVE SMOOTH"
);
}
);
width = 308;
},
{
layerId = "98164D6F-6418-4A81-93B1-33F1F3344547";
paths = (
{
closed = 1;
nodes = (
"155 61 OFFCURVE",
"146 78 OFFCURVE",
"149 114 CURVE SMOOTH",
"151 132 OFFCURVE",
"153 156 OFFCURVE",
"160 202 CURVE SMOOTH",
"197 426 LINE",
"258 426 LINE SMOOTH",
"270 426 OFFCURVE",
"335 481 OFFCURVE",
"308 481 CURVE SMOOTH",
"206 481 LINE",
"217 558 LINE SMOOTH",
"222 586 OFFCURVE",
"239 616 OFFCURVE",
"243 623 CURVE",
"244 629 OFFCURVE",
"230 629 OFFCURVE",
"219 623 CURVE",
"192 612 OFFCURVE",
"159 586 OFFCURVE",
"153 552 CURVE",
"153 551 OFFCURVE",
"153 547 OFFCURVE",
"152 542 CURVE",
"141 481 LINE",
"80 481 LINE SMOOTH",
"65 481 OFFCURVE",
"9 430 OFFCURVE",
"30 426 CURVE",
"133 426 LINE",
"97 202 LINE SMOOTH",
"87 146 OFFCURVE",
"84 115 OFFCURVE",
"82 92 CURVE SMOOTH",
"78 31 OFFCURVE",
"97 1 OFFCURVE",
"136 1 CURVE SMOOTH",
"155 1 OFFCURVE",
"179 9 OFFCURVE",
"206 36 CURVE SMOOTH",
"234 62 OFFCURVE",
"246 87 OFFCURVE",
"250 108 CURVE SMOOTH",
"251 115 OFFCURVE",
"250 122 OFFCURVE",
"244 129 CURVE",
"217 89 OFFCURVE",
"195 61 OFFCURVE",
"173 61 CURVE SMOOTH"
);
}
);
width = 308;
}
);
note = t;
unicode = 0074;
},
{
color = 0;
glyphname = u;
lastChange = "2018-02-09 16:29:38 +0000";
layers = (
{
layerId = "0B1DFD06-3317-40CA-B510-4969A0718C16";
paths = (
{
closed = 1;
nodes = (
"302 95 LINE",
"301 84 OFFCURVE",
"298 70 OFFCURVE",
"297 54 CURVE SMOOTH",
"294 18 OFFCURVE",
"304 0 OFFCURVE",
"327 0 CURVE SMOOTH",
"354 0 OFFCURVE",
"386 24 OFFCURVE",
"423 72 CURVE",
"446 105 OFFCURVE",
"463 133 OFFCURVE",
"463 146 CURVE SMOOTH",
"463 153 OFFCURVE",
"457 160 OFFCURVE",
"444 170 CURVE",
"417 107 OFFCURVE",
"391 70 OFFCURVE",
"373 74 CURVE",
"366 75 OFFCURVE",
"369 98 OFFCURVE",
"375 125 CURVE",
"378 135 OFFCURVE",
"381 152 OFFCURVE",
"385 176 CURVE SMOOTH",
"392 214 OFFCURVE",
"403 281 OFFCURVE",
"425 391 CURVE SMOOTH",
"430 423 OFFCURVE",
"440 466 OFFCURVE",
"450 504 CURVE",
"371 471 LINE",
"348 351 LINE SMOOTH",
"337 293 OFFCURVE",
"311 229 OFFCURVE",
"271 170 CURVE SMOOTH",
"231 111 OFFCURVE",
"197 81 OFFCURVE",
"168 81 CURVE SMOOTH",
"158 81 OFFCURVE",
"153 91 OFFCURVE",
"155 109 CURVE",
"163 182 LINE",
"195 378 LINE",
"199 399 OFFCURVE",
"200 416 OFFCURVE",
"202 435 CURVE SMOOTH",
"204 476 OFFCURVE",
"193 497 OFFCURVE",
"168 497 CURVE SMOOTH",
"149 497 OFFCURVE",
"122 480 OFFCURVE",
"89 444 CURVE SMOOTH",
"60 412 OFFCURVE",
"41 382 OFFCURVE",
"40 359 CURVE",
"40 352 OFFCURVE",
"43 345 OFFCURVE",
"55 335 CURVE",
"71 385 OFFCURVE",
"105 423 OFFCURVE",
"122 423 CURVE SMOOTH",
"126 423 OFFCURVE",
"129 416 OFFCURVE",
"128 400 CURVE",
"128 398 OFFCURVE",
"119 334 OFFCURVE",
"108 274 CURVE",
"89 152 LINE SMOOTH",
"84 114 OFFCURVE",
"81 87 OFFCURVE",
"80 70 CURVE SMOOTH",
"77 23 OFFCURVE",
"91 0 OFFCURVE",
"121 0 CURVE SMOOTH",
"148 0 OFFCURVE",
"185 24 OFFCURVE",
"220 62 CURVE",
"253 95 OFFCURVE",
"290 142 OFFCURVE",
"318 187 CURVE"
);
}
);
width = 491;
},
{
layerId = "98164D6F-6418-4A81-93B1-33F1F3344547";
paths = (
{
closed = 1;
nodes = (
"302 95 LINE",
"301 84 OFFCURVE",
"298 70 OFFCURVE",
"297 54 CURVE SMOOTH",
"294 18 OFFCURVE",
"304 0 OFFCURVE",
"327 0 CURVE SMOOTH",
"354 0 OFFCURVE",
"386 24 OFFCURVE",
"423 72 CURVE",
"446 105 OFFCURVE",
"463 133 OFFCURVE",
"463 146 CURVE SMOOTH",
"463 153 OFFCURVE",
"457 160 OFFCURVE",
"444 170 CURVE",
"417 107 OFFCURVE",
"391 70 OFFCURVE",
"373 74 CURVE",
"366 75 OFFCURVE",
"369 98 OFFCURVE",
"375 125 CURVE",
"378 135 OFFCURVE",
"381 152 OFFCURVE",
"385 176 CURVE SMOOTH",
"392 214 OFFCURVE",
"403 281 OFFCURVE",
"425 391 CURVE SMOOTH",
"430 423 OFFCURVE",
"440 466 OFFCURVE",
"450 504 CURVE",
"371 471 LINE",
"348 351 LINE SMOOTH",
"337 293 OFFCURVE",
"311 229 OFFCURVE",
"271 170 CURVE SMOOTH",
"231 111 OFFCURVE",
"197 81 OFFCURVE",
"168 81 CURVE SMOOTH",
"158 81 OFFCURVE",
"153 91 OFFCURVE",
"155 109 CURVE",
"163 182 LINE",
"195 378 LINE",
"199 399 OFFCURVE",
"200 416 OFFCURVE",
"202 435 CURVE SMOOTH",
"204 476 OFFCURVE",
"193 497 OFFCURVE",
"168 497 CURVE SMOOTH",
"149 497 OFFCURVE",
"122 480 OFFCURVE",
"89 444 CURVE SMOOTH",
"60 412 OFFCURVE",
"41 382 OFFCURVE",
"40 359 CURVE",
"40 352 OFFCURVE",
"43 345 OFFCURVE",
"55 335 CURVE",
"71 385 OFFCURVE",
"105 423 OFFCURVE",
"122 423 CURVE SMOOTH",
"126 423 OFFCURVE",
"129 416 OFFCURVE",
"128 400 CURVE",
"128 398 OFFCURVE",
"119 334 OFFCURVE",
"108 274 CURVE",
"89 152 LINE SMOOTH",
"84 114 OFFCURVE",
"81 87 OFFCURVE",
"80 70 CURVE SMOOTH",
"77 23 OFFCURVE",
"91 0 OFFCURVE",
"121 0 CURVE SMOOTH",
"148 0 OFFCURVE",
"185 24 OFFCURVE",
"220 62 CURVE",
"253 95 OFFCURVE",
"290 142 OFFCURVE",
"318 187 CURVE"
);
}
);
width = 491;
}
);
note = u;
unicode = 0075;
},
{
color = 0;
glyphname = v;
lastChange = "2018-02-09 16:29:38 +0000";
layers = (
{
layerId = "0B1DFD06-3317-40CA-B510-4969A0718C16";
paths = (
{
closed = 1;
nodes = (
"99 498 OFFCURVE",
"80 483 OFFCURVE",
"58 450 CURVE",
"37 420 OFFCURVE",
"28 389 OFFCURVE",
"27 368 CURVE",
"27 355 OFFCURVE",
"33 348 OFFCURVE",
"45 344 CURVE",
"57 395 OFFCURVE",
"71 420 OFFCURVE",
"89 420 CURVE SMOOTH",
"104 420 OFFCURVE",
"119 379 OFFCURVE",
"135 295 CURVE SMOOTH",
"152 209 OFFCURVE",
"159 108 OFFCURVE",
"163 -7 CURVE",
"236 70 LINE",
"268 132 OFFCURVE",
"304 195 OFFCURVE",
"342 261 CURVE SMOOTH",
"392 346 OFFCURVE",
"415 400 OFFCURVE",
"419 435 CURVE",
"420 462 OFFCURVE",
"409 483 OFFCURVE",
"388 500 CURVE",
"328 429 LINE",
"344 416 OFFCURVE",
"351 402 OFFCURVE",
"349 385 CURVE SMOOTH",
"345 337 OFFCURVE",
"305 253 OFFCURVE",
"230 132 CURVE",
"207 386 OFFCURVE",
"176 503 OFFCURVE",
"115 498 CURVE"
);
}
);
width = 446;
},
{
layerId = "98164D6F-6418-4A81-93B1-33F1F3344547";
paths = (
{
closed = 1;
nodes = (
"99 498 OFFCURVE",
"80 483 OFFCURVE",
"58 450 CURVE",
"37 420 OFFCURVE",
"28 389 OFFCURVE",
"27 368 CURVE",
"27 355 OFFCURVE",
"33 348 OFFCURVE",
"45 344 CURVE",
"57 395 OFFCURVE",
"71 420 OFFCURVE",
"89 420 CURVE SMOOTH",
"104 420 OFFCURVE",
"119 379 OFFCURVE",
"135 295 CURVE SMOOTH",
"152 209 OFFCURVE",
"159 108 OFFCURVE",
"163 -7 CURVE",
"236 70 LINE",
"268 132 OFFCURVE",
"304 195 OFFCURVE",
"342 261 CURVE SMOOTH",
"392 346 OFFCURVE",
"415 400 OFFCURVE",
"419 435 CURVE",
"420 462 OFFCURVE",
"409 483 OFFCURVE",
"388 500 CURVE",
"328 429 LINE",
"344 416 OFFCURVE",
"351 402 OFFCURVE",
"349 385 CURVE SMOOTH",
"345 337 OFFCURVE",
"305 253 OFFCURVE",
"230 132 CURVE",
"207 386 OFFCURVE",
"176 503 OFFCURVE",
"115 498 CURVE"
);
}
);
width = 446;
}
);
note = v;
unicode = 0076;
},
{
color = 0;
glyphname = w;
lastChange = "2018-02-09 16:29:38 +0000";
layers = (
{
layerId = "0B1DFD06-3317-40CA-B510-4969A0718C16";
paths = (
{
closed = 1;
nodes = (
"471 437 LINE",
"488 422 OFFCURVE",
"496 406 OFFCURVE",
"494 389 CURVE SMOOTH",
"491 356 OFFCURVE",
"456 277 OFFCURVE",
"386 151 CURVE",
"386 149 OFFCURVE",
"386 149 OFFCURVE",
"386 149 CURVE",
"375 311 LINE",
"371 391 LINE",
"371 446 OFFCURVE",
"369 483 OFFCURVE",
"369 510 CURVE",
"308 440 LINE",
"280 356 OFFCURVE",
"244 270 OFFCURVE",
"195 169 CURVE",
"195 176 LINE",
"193 294 OFFCURVE",
"187 376 OFFCURVE",
"178 425 CURVE SMOOTH",
"168 474 OFFCURVE",
"148 500 OFFCURVE",
"121 500 CURVE SMOOTH",
"105 500 OFFCURVE",
"85 484 OFFCURVE",
"62 453 CURVE SMOOTH",
"40 422 OFFCURVE",
"28 393 OFFCURVE",
"27 369 CURVE",
"26 358 OFFCURVE",
"33 349 OFFCURVE",
"48 342 CURVE",
"60 395 OFFCURVE",
"74 420 OFFCURVE",
"91 417 CURVE",
"107 416 OFFCURVE",
"112 386 OFFCURVE",
"116 331 CURVE SMOOTH",
"125 148 LINE",
"125 112 OFFCURVE",
"125 72 OFFCURVE",
"121 34 CURVE",
"109 11 LINE",
"109 0 OFFCURVE",
"122 -1 OFFCURVE",
"135 6 CURVE",
"162 18 OFFCURVE",
"183 41 OFFCURVE",
"202 74 CURVE",
"206 87 OFFCURVE",
"209 104 OFFCURVE",
"213 116 CURVE",
"231 183 OFFCURVE",
"266 249 OFFCURVE",
"298 311 CURVE SMOOTH",
"304 322 OFFCURVE",
"307 324 OFFCURVE",
"312 335 CURVE",
"322 195 LINE",
"327 156 OFFCURVE",
"327 118 OFFCURVE",
"328 80 CURVE",
"328 71 LINE SMOOTH",
"328 67 OFFCURVE",
"324 36 OFFCURVE",
"314 14 CURVE",
"310 3 OFFCURVE",
"322 -3 OFFCURVE",
"338 7 CURVE",
"359 23 OFFCURVE",
"381 48 OFFCURVE",
"396 78 CURVE",
"408 116 OFFCURVE",
"419 141 OFFCURVE",
"446 187 CURVE SMOOTH",
"467 226 OFFCURVE",
"487 266 OFFCURVE",
"506 304 CURVE",
"541 368 OFFCURVE",
"561 413 OFFCURVE",
"562 439 CURVE SMOOTH",
"564 463 OFFCURVE",
"554 484 OFFCURVE",
"530 501 CURVE"
);
}
);
width = 568;
},
{
layerId = "98164D6F-6418-4A81-93B1-33F1F3344547";
paths = (
{
closed = 1;
nodes = (
"471 437 LINE",
"488 422 OFFCURVE",
"496 406 OFFCURVE",
"494 389 CURVE SMOOTH",
"491 356 OFFCURVE",
"456 277 OFFCURVE",
"386 151 CURVE",
"386 149 OFFCURVE",
"386 149 OFFCURVE",
"386 149 CURVE",
"375 311 LINE",
"371 391 LINE",
"371 446 OFFCURVE",
"369 483 OFFCURVE",
"369 510 CURVE",
"308 440 LINE",
"280 356 OFFCURVE",
"244 270 OFFCURVE",
"195 169 CURVE",
"195 176 LINE",
"193 294 OFFCURVE",
"187 376 OFFCURVE",
"178 425 CURVE SMOOTH",
"168 474 OFFCURVE",
"148 500 OFFCURVE",
"121 500 CURVE SMOOTH",
"105 500 OFFCURVE",
"85 484 OFFCURVE",
"62 453 CURVE SMOOTH",
"40 422 OFFCURVE",
"28 393 OFFCURVE",
"27 369 CURVE",
"26 358 OFFCURVE",
"33 349 OFFCURVE",
"48 342 CURVE",
"60 395 OFFCURVE",
"74 420 OFFCURVE",
"91 417 CURVE",
"107 416 OFFCURVE",
"112 386 OFFCURVE",
"116 331 CURVE SMOOTH",
"125 148 LINE",
"125 112 OFFCURVE",
"125 72 OFFCURVE",
"121 34 CURVE",
"109 11 LINE",
"109 0 OFFCURVE",
"122 -1 OFFCURVE",
"135 6 CURVE",
"162 18 OFFCURVE",
"183 41 OFFCURVE",
"202 74 CURVE",
"206 87 OFFCURVE",
"209 104 OFFCURVE",
"213 116 CURVE",
"231 183 OFFCURVE",
"266 249 OFFCURVE",
"298 311 CURVE SMOOTH",
"304 322 OFFCURVE",
"307 324 OFFCURVE",
"312 335 CURVE",
"322 195 LINE",
"327 156 OFFCURVE",
"327 118 OFFCURVE",
"328 80 CURVE",
"328 71 LINE SMOOTH",
"328 67 OFFCURVE",
"324 36 OFFCURVE",
"314 14 CURVE",
"310 3 OFFCURVE",
"322 -3 OFFCURVE",
"338 7 CURVE",
"359 23 OFFCURVE",
"381 48 OFFCURVE",
"396 78 CURVE",
"408 116 OFFCURVE",
"419 141 OFFCURVE",
"446 187 CURVE SMOOTH",
"467 226 OFFCURVE",
"487 266 OFFCURVE",
"506 304 CURVE",
"541 368 OFFCURVE",
"561 413 OFFCURVE",
"562 439 CURVE SMOOTH",
"564 463 OFFCURVE",
"554 484 OFFCURVE",
"530 501 CURVE"
);
}
);
width = 568;
}
);
note = w;
unicode = 0077;
},
{
color = 0;
glyphname = x;
lastChange = "2018-02-09 16:29:38 +0000";
layers = (
{
layerId = "0B1DFD06-3317-40CA-B510-4969A0718C16";
paths = (
{
closed = 1;
nodes = (
"204 239 LINE",
"159 159 LINE SMOOTH",
"124 99 OFFCURVE",
"92 70 OFFCURVE",
"68 70 CURVE SMOOTH",
"60 70 OFFCURVE",
"51 75 OFFCURVE",
"41 88 CURVE",
"-16 24 LINE",
"0 9 OFFCURVE",
"17 1 OFFCURVE",
"37 1 CURVE SMOOTH",
"91 1 OFFCURVE",
"149 60 OFFCURVE",
"210 178 CURVE",
"216 187 LINE",
"216 186 OFFCURVE",
"216 183 OFFCURVE",
"217 182 CURVE",
"222 168 LINE",
"249 57 OFFCURVE",
"277 1 OFFCURVE",
"308 1 CURVE SMOOTH",
"327 1 OFFCURVE",
"346 13 OFFCURVE",
"371 37 CURVE SMOOTH",
"393 61 OFFCURVE",
"408 82 OFFCURVE",
"408 101 CURVE SMOOTH",
"408 108 OFFCURVE",
"402 118 OFFCURVE",
"389 129 CURVE",
"375 88 OFFCURVE",
"359 67 OFFCURVE",
"342 67 CURVE SMOOTH",
"324 67 OFFCURVE",
"285 172 OFFCURVE",
"267 275 CURVE",
"278 295 LINE SMOOTH",
"322 376 OFFCURVE",
"359 417 OFFCURVE",
"388 417 CURVE SMOOTH",
"389 417 OFFCURVE",
"391 417 OFFCURVE",
"400 413 CURVE",
"459 484 LINE",
"440 494 OFFCURVE",
"426 500 OFFCURVE",
"417 500 CURVE SMOOTH",
"385 500 OFFCURVE",
"339 456 OFFCURVE",
"284 369 CURVE SMOOTH",
"257 324 LINE",
"253 344 LINE",
"249 354 OFFCURVE",
"246 366 OFFCURVE",
"244 373 CURVE",
"220 457 OFFCURVE",
"195 500 OFFCURVE",
"166 500 CURVE SMOOTH",
"151 500 OFFCURVE",
"131 484 OFFCURVE",
"109 457 CURVE SMOOTH",
"88 430 OFFCURVE",
"74 399 OFFCURVE",
"74 383 CURVE SMOOTH",
"74 373 OFFCURVE",
"81 365 OFFCURVE",
"94 361 CURVE",
"108 408 OFFCURVE",
"124 432 OFFCURVE",
"139 432 CURVE SMOOTH",
"149 432 OFFCURVE",
"158 409 OFFCURVE",
"168 376 CURVE SMOOTH"
);
}
);
width = 454;
},
{
layerId = "98164D6F-6418-4A81-93B1-33F1F3344547";
paths = (
{
closed = 1;
nodes = (
"204 239 LINE",
"159 159 LINE SMOOTH",
"124 99 OFFCURVE",
"92 70 OFFCURVE",
"68 70 CURVE SMOOTH",
"60 70 OFFCURVE",
"51 75 OFFCURVE",
"41 88 CURVE",
"-16 24 LINE",
"0 9 OFFCURVE",
"17 1 OFFCURVE",
"37 1 CURVE SMOOTH",
"91 1 OFFCURVE",
"149 60 OFFCURVE",
"210 178 CURVE",
"216 187 LINE",
"216 186 OFFCURVE",
"216 183 OFFCURVE",
"217 182 CURVE",
"222 168 LINE",
"249 57 OFFCURVE",
"277 1 OFFCURVE",
"308 1 CURVE SMOOTH",
"327 1 OFFCURVE",
"346 13 OFFCURVE",
"371 37 CURVE SMOOTH",
"393 61 OFFCURVE",
"408 82 OFFCURVE",
"408 101 CURVE SMOOTH",
"408 108 OFFCURVE",
"402 118 OFFCURVE",
"389 129 CURVE",
"375 88 OFFCURVE",
"359 67 OFFCURVE",
"342 67 CURVE SMOOTH",
"324 67 OFFCURVE",
"285 172 OFFCURVE",
"267 275 CURVE",
"278 295 LINE SMOOTH",
"322 376 OFFCURVE",
"359 417 OFFCURVE",
"388 417 CURVE SMOOTH",
"389 417 OFFCURVE",
"391 417 OFFCURVE",
"400 413 CURVE",
"459 484 LINE",
"440 494 OFFCURVE",
"426 500 OFFCURVE",
"417 500 CURVE SMOOTH",
"385 500 OFFCURVE",
"339 456 OFFCURVE",
"284 369 CURVE SMOOTH",
"257 324 LINE",
"253 344 LINE",
"249 354 OFFCURVE",
"246 366 OFFCURVE",
"244 373 CURVE",
"220 457 OFFCURVE",
"195 500 OFFCURVE",
"166 500 CURVE SMOOTH",
"151 500 OFFCURVE",
"131 484 OFFCURVE",
"109 457 CURVE SMOOTH",
"88 430 OFFCURVE",
"74 399 OFFCURVE",
"74 383 CURVE SMOOTH",
"74 373 OFFCURVE",
"81 365 OFFCURVE",
"94 361 CURVE",
"108 408 OFFCURVE",
"124 432 OFFCURVE",
"139 432 CURVE SMOOTH",
"149 432 OFFCURVE",
"158 409 OFFCURVE",
"168 376 CURVE SMOOTH"
);
}
);
width = 454;
}
);
note = x;
unicode = 0078;
},
{
color = 0;
glyphname = y;
lastChange = "2018-02-09 16:29:38 +0000";
layers = (
{
layerId = "0B1DFD06-3317-40CA-B510-4969A0718C16";
paths = (
{
closed = 1;
nodes = (
"463 494 LINE",
"462 504 OFFCURVE",
"449 503 OFFCURVE",
"436 496 CURVE SMOOTH",
"415 484 OFFCURVE",
"375 459 OFFCURVE",
"369 425 CURVE",
"369 420 OFFCURVE",
"368 420 OFFCURVE",
"368 416 CURVE",
"355 364 LINE SMOOTH",
"339 302 OFFCURVE",
"318 244 OFFCURVE",
"283 183 CURVE",
"250 122 OFFCURVE",
"224 95 OFFCURVE",
"203 95 CURVE SMOOTH",
"193 95 OFFCURVE",
"189 122 OFFCURVE",
"190 189 CURVE SMOOTH",
"196 362 LINE SMOOTH",
"197 412 OFFCURVE",
"195 447 OFFCURVE",
"189 467 CURVE",
"182 486 OFFCURVE",
"168 500 OFFCURVE",
"149 500 CURVE SMOOTH",
"128 500 OFFCURVE",
"105 484 OFFCURVE",
"80 454 CURVE",
"53 426 OFFCURVE",
"33 393 OFFCURVE",
"34 382 CURVE SMOOTH",
"36 372 OFFCURVE",
"40 364 OFFCURVE",
"53 354 CURVE",
"77 405 OFFCURVE",
"97 436 OFFCURVE",
"115 432 CURVE",
"126 430 OFFCURVE",
"128 391 OFFCURVE",
"128 356 CURVE",
"124 277 OFFCURVE",
"124 186 OFFCURVE",
"119 107 CURVE",
"121 51 OFFCURVE",
"132 1 OFFCURVE",
"159 1 CURVE SMOOTH",
"178 1 OFFCURVE",
"203 21 OFFCURVE",
"239 62 CURVE",
"266 91 OFFCURVE",
"291 133 OFFCURVE",
"314 175 CURVE",
"298 97 OFFCURVE",
"284 33 OFFCURVE",
"268 -23 CURVE SMOOTH",
"239 -136 OFFCURVE",
"213 -222 OFFCURVE",
"185 -266 CURVE",
"155 -307 OFFCURVE",
"114 -328 OFFCURVE",
"61 -328 CURVE SMOOTH",
"34 -328 OFFCURVE",
"7 -324 OFFCURVE",
"-16 -308 CURVE",
"-77 -385 LINE",
"-50 -398 OFFCURVE",
"-27 -403 OFFCURVE",
"-9 -403 CURVE SMOOTH",
"77 -403 OFFCURVE",
"156 -356 OFFCURVE",
"231 -261 CURVE SMOOTH",
"280 -197 OFFCURVE",
"320 -101 OFFCURVE",
"349 28 CURVE SMOOTH",
"426 361 LINE SMOOTH",
"437 413 OFFCURVE",
"446 452 OFFCURVE",
"457 480 CURVE SMOOTH"
);
}
);
width = 474;
},
{
layerId = "98164D6F-6418-4A81-93B1-33F1F3344547";
paths = (
{
closed = 1;
nodes = (
"463 494 LINE",
"462 504 OFFCURVE",
"449 503 OFFCURVE",
"436 496 CURVE SMOOTH",
"415 484 OFFCURVE",
"375 459 OFFCURVE",
"369 425 CURVE",
"369 420 OFFCURVE",
"368 420 OFFCURVE",
"368 416 CURVE",
"355 364 LINE SMOOTH",
"339 302 OFFCURVE",
"318 244 OFFCURVE",
"283 183 CURVE",
"250 122 OFFCURVE",
"224 95 OFFCURVE",
"203 95 CURVE SMOOTH",
"193 95 OFFCURVE",
"189 122 OFFCURVE",
"190 189 CURVE SMOOTH",
"196 362 LINE SMOOTH",
"197 412 OFFCURVE",
"195 447 OFFCURVE",
"189 467 CURVE",
"182 486 OFFCURVE",
"168 500 OFFCURVE",
"149 500 CURVE SMOOTH",
"128 500 OFFCURVE",
"105 484 OFFCURVE",
"80 454 CURVE",
"53 426 OFFCURVE",
"33 393 OFFCURVE",
"34 382 CURVE SMOOTH",
"36 372 OFFCURVE",
"40 364 OFFCURVE",
"53 354 CURVE",
"77 405 OFFCURVE",
"97 436 OFFCURVE",
"115 432 CURVE",
"126 430 OFFCURVE",
"128 391 OFFCURVE",
"128 356 CURVE",
"124 277 OFFCURVE",
"124 186 OFFCURVE",
"119 107 CURVE",
"121 51 OFFCURVE",
"132 1 OFFCURVE",
"159 1 CURVE SMOOTH",
"178 1 OFFCURVE",
"203 21 OFFCURVE",
"239 62 CURVE",
"266 91 OFFCURVE",
"291 133 OFFCURVE",
"314 175 CURVE",
"298 97 OFFCURVE",
"284 33 OFFCURVE",
"268 -23 CURVE SMOOTH",
"239 -136 OFFCURVE",
"213 -222 OFFCURVE",
"185 -266 CURVE",
"155 -307 OFFCURVE",
"114 -328 OFFCURVE",
"61 -328 CURVE SMOOTH",
"34 -328 OFFCURVE",
"7 -324 OFFCURVE",
"-16 -308 CURVE",
"-77 -385 LINE",
"-50 -398 OFFCURVE",
"-27 -403 OFFCURVE",
"-9 -403 CURVE SMOOTH",
"77 -403 OFFCURVE",
"156 -356 OFFCURVE",
"231 -261 CURVE SMOOTH",
"280 -197 OFFCURVE",
"320 -101 OFFCURVE",
"349 28 CURVE SMOOTH",
"426 361 LINE SMOOTH",
"437 413 OFFCURVE",
"446 452 OFFCURVE",
"457 480 CURVE SMOOTH"
);
}
);
width = 474;
}
);
note = y;
unicode = 0079;
},
{
color = 0;
glyphname = z;
lastChange = "2018-02-09 16:29:38 +0000";
layers = (
{
layerId = "0B1DFD06-3317-40CA-B510-4969A0718C16";
paths = (
{
closed = 1;
nodes = (
"20 -7 LINE",
"53 9 OFFCURVE",
"88 13 OFFCURVE",
"118 13 CURVE SMOOTH",
"156 13 OFFCURVE",
"189 9 OFFCURVE",
"200 7 CURVE",
"229 1 OFFCURVE",
"249 0 OFFCURVE",
"261 0 CURVE SMOOTH",
"278 0 LINE",
"295 1 OFFCURVE",
"314 7 OFFCURVE",
"331 24 CURVE SMOOTH",
"348 41 OFFCURVE",
"354 58 OFFCURVE",
"358 77 CURVE",
"358 81 OFFCURVE",
"358 88 OFFCURVE",
"348 101 CURVE",
"334 80 OFFCURVE",
"315 68 OFFCURVE",
"291 68 CURVE SMOOTH",
"284 68 OFFCURVE",
"275 70 OFFCURVE",
"266 71 CURVE SMOOTH",
"216 78 OFFCURVE",
"175 82 OFFCURVE",
"156 84 CURVE",
"132 81 LINE",
"133 85 OFFCURVE",
"141 95 OFFCURVE",
"153 112 CURVE SMOOTH",
"175 142 OFFCURVE",
"214 199 OFFCURVE",
"295 317 CURVE SMOOTH",
"317 346 OFFCURVE",
"337 372 OFFCURVE",
"364 405 CURVE",
"410 501 LINE",
"378 484 OFFCURVE",
"352 476 OFFCURVE",
"334 476 CURVE SMOOTH",
"307 476 OFFCURVE",
"281 481 OFFCURVE",
"249 491 CURVE SMOOTH",
"239 494 OFFCURVE",
"229 496 OFFCURVE",
"220 496 CURVE SMOOTH",
"190 496 OFFCURVE",
"165 480 OFFCURVE",
"141 449 CURVE SMOOTH",
"119 422 OFFCURVE",
"105 385 OFFCURVE",
"101 346 CURVE",
"101 308 LINE",
"162 371 LINE",
"158 383 OFFCURVE",
"156 393 OFFCURVE",
"156 402 CURVE",
"155 423 OFFCURVE",
"166 435 OFFCURVE",
"182 435 CURVE SMOOTH",
"193 435 OFFCURVE",
"214 427 OFFCURVE",
"226 423 CURVE",
"257 413 OFFCURVE",
"283 408 OFFCURVE",
"304 408 CURVE",
"293 392 OFFCURVE",
"278 368 OFFCURVE",
"119 145 CURVE",
"108 126 OFFCURVE",
"72 75 OFFCURVE",
"53 72 CURVE"
);
}
);
width = 413;
},
{
layerId = "98164D6F-6418-4A81-93B1-33F1F3344547";
paths = (
{
closed = 1;
nodes = (
"20 -7 LINE",
"53 9 OFFCURVE",
"88 13 OFFCURVE",
"118 13 CURVE SMOOTH",
"156 13 OFFCURVE",
"189 9 OFFCURVE",
"200 7 CURVE",
"229 1 OFFCURVE",
"249 0 OFFCURVE",
"261 0 CURVE SMOOTH",
"278 0 LINE",
"295 1 OFFCURVE",
"314 7 OFFCURVE",
"331 24 CURVE SMOOTH",
"348 41 OFFCURVE",
"354 58 OFFCURVE",
"358 77 CURVE",
"358 81 OFFCURVE",
"358 88 OFFCURVE",
"348 101 CURVE",
"334 80 OFFCURVE",
"315 68 OFFCURVE",
"291 68 CURVE SMOOTH",
"284 68 OFFCURVE",
"275 70 OFFCURVE",
"266 71 CURVE SMOOTH",
"216 78 OFFCURVE",
"175 82 OFFCURVE",
"156 84 CURVE",
"132 81 LINE",
"133 85 OFFCURVE",
"141 95 OFFCURVE",
"153 112 CURVE SMOOTH",
"175 142 OFFCURVE",
"214 199 OFFCURVE",
"295 317 CURVE SMOOTH",
"317 346 OFFCURVE",
"337 372 OFFCURVE",
"364 405 CURVE",
"410 501 LINE",
"378 484 OFFCURVE",
"352 476 OFFCURVE",
"334 476 CURVE SMOOTH",
"307 476 OFFCURVE",
"281 481 OFFCURVE",
"249 491 CURVE SMOOTH",
"239 494 OFFCURVE",
"229 496 OFFCURVE",
"220 496 CURVE SMOOTH",
"190 496 OFFCURVE",
"165 480 OFFCURVE",
"141 449 CURVE SMOOTH",
"119 422 OFFCURVE",
"105 385 OFFCURVE",
"101 346 CURVE",
"101 308 LINE",
"162 371 LINE",
"158 383 OFFCURVE",
"156 393 OFFCURVE",
"156 402 CURVE",
"155 423 OFFCURVE",
"166 435 OFFCURVE",
"182 435 CURVE SMOOTH",
"193 435 OFFCURVE",
"214 427 OFFCURVE",
"226 423 CURVE",
"257 413 OFFCURVE",
"283 408 OFFCURVE",
"304 408 CURVE",
"293 392 OFFCURVE",
"278 368 OFFCURVE",
"119 145 CURVE",
"108 126 OFFCURVE",
"72 75 OFFCURVE",
"53 72 CURVE"
);
}
);
width = 413;
}
);
note = z;
unicode = 007A;
},
{
color = 0;
glyphname = AE;
lastChange = "2018-02-09 16:29:38 +0000";
layers = (
{
layerId = "0B1DFD06-3317-40CA-B510-4969A0718C16";
paths = (
{
closed = 1;
nodes = (
"876 706 LINE",
"865 701 OFFCURVE",
"852 697 OFFCURVE",
"836 696 CURVE",
"829 694 OFFCURVE",
"822 694 OFFCURVE",
"815 696 CURVE",
"595 694 LINE",
"565 694 LINE SMOOTH",
"504 694 OFFCURVE",
"470 714 OFFCURVE",
"417 714 CURVE SMOOTH",
"301 714 OFFCURVE",
"217 693 OFFCURVE",
"165 650 CURVE",
"104 596 OFFCURVE",
"70 528 OFFCURVE",
"64 447 CURVE SMOOTH",
"62 417 OFFCURVE",
"65 375 OFFCURVE",
"77 334 CURVE",
"153 419 LINE",
"141 449 OFFCURVE",
"136 481 OFFCURVE",
"139 514 CURVE SMOOTH",
"145 609 OFFCURVE",
"204 657 OFFCURVE",
"320 657 CURVE SMOOTH",
"358 657 OFFCURVE",
"398 653 OFFCURVE",
"436 645 CURVE",
"398 621 OFFCURVE",
"373 594 OFFCURVE",
"349 558 CURVE SMOOTH",
"322 518 OFFCURVE",
"293 453 OFFCURVE",
"253 332 CURVE SMOOTH",
"224 254 OFFCURVE",
"193 183 OFFCURVE",
"178 151 CURVE",
"162 122 OFFCURVE",
"129 77 OFFCURVE",
"82 58 CURVE",
"58 51 LINE",
"45 43 OFFCURVE",
"21 0 OFFCURVE",
"34 0 CURVE",
"31 0 OFFCURVE",
"84 18 OFFCURVE",
"85 18 CURVE",
"102 17 OFFCURVE",
"131 9 OFFCURVE",
"146 4 CURVE SMOOTH",
"152 3 OFFCURVE",
"156 1 OFFCURVE",
"159 1 CURVE",
"172 -3 OFFCURVE",
"197 4 OFFCURVE",
"231 43 CURVE",
"260 71 OFFCURVE",
"236 77 OFFCURVE",
"224 68 CURVE",
"217 64 OFFCURVE",
"203 60 OFFCURVE",
"199 60 CURVE SMOOTH",
"187 60 OFFCURVE",
"173 62 OFFCURVE",
"156 67 CURVE",
"185 91 LINE",
"220 125 OFFCURVE",
"256 183 OFFCURVE",
"280 247 CURVE",
"459 247 LINE",
"463 251 OFFCURVE",
"473 258 OFFCURVE",
"480 263 CURVE",
"463 165 LINE SMOOTH",
"452 87 OFFCURVE",
"439 71 OFFCURVE",
"408 50 CURVE",
"398 40 OFFCURVE",
"376 0 OFFCURVE",
"389 0 CURVE SMOOTH",
"402 0 OFFCURVE",
"430 11 OFFCURVE",
"440 16 CURVE",
"447 16 OFFCURVE",
"534 1 OFFCURVE",
"548 1 CURVE",
"561 0 OFFCURVE",
"596 -1 OFFCURVE",
"629 -1 CURVE SMOOTH",
"652 -1 OFFCURVE",
"672 0 OFFCURVE",
"682 0 CURVE",
"700 1 OFFCURVE",
"747 30 OFFCURVE",
"774 60 CURVE",
"797 87 OFFCURVE",
"778 92 OFFCURVE",
"768 87 CURVE",
"761 84 OFFCURVE",
"713 67 OFFCURVE",
"699 67 CURVE",
"672 65 OFFCURVE",
"649 64 OFFCURVE",
"628 64 CURVE SMOOTH",
"559 64 OFFCURVE",
"527 71 OFFCURVE",
"511 75 CURVE",
"514 80 LINE",
"518 84 OFFCURVE",
"525 97 OFFCURVE",
"527 109 CURVE",
"568 338 LINE",
"595 337 OFFCURVE",
"621 338 OFFCURVE",
"645 334 CURVE SMOOTH",
"655 332 OFFCURVE",
"663 331 OFFCURVE",
"673 331 CURVE SMOOTH",
"706 331 OFFCURVE",
"743 358 OFFCURVE",
"782 413 CURVE",
"736 406 OFFCURVE",
"690 402 OFFCURVE",
"650 402 CURVE SMOOTH",
"579 402 LINE",
"615 632 LINE",
"794 626 LINE SMOOTH",
"829 625 OFFCURVE",
"861 657 OFFCURVE",
"879 680 CURVE",
"890 693 OFFCURVE",
"892 711 OFFCURVE",
"879 707 CURVE"
);
},
{
closed = 1;
nodes = (
"302 311 LINE",
"312 332 LINE",
"351 442 OFFCURVE",
"403 578 OFFCURVE",
"497 635 CURVE",
"538 632 LINE",
"527 552 OFFCURVE",
"514 466 OFFCURVE",
"487 311 CURVE"
);
}
);
width = 843;
},
{
layerId = "98164D6F-6418-4A81-93B1-33F1F3344547";
paths = (
{
closed = 1;
nodes = (
"876 706 LINE",
"865 701 OFFCURVE",
"852 697 OFFCURVE",
"836 696 CURVE",
"829 694 OFFCURVE",
"822 694 OFFCURVE",
"815 696 CURVE",
"595 694 LINE",
"565 694 LINE SMOOTH",
"504 694 OFFCURVE",
"470 714 OFFCURVE",
"417 714 CURVE SMOOTH",
"301 714 OFFCURVE",
"217 693 OFFCURVE",
"165 650 CURVE",
"104 596 OFFCURVE",
"70 528 OFFCURVE",
"64 447 CURVE SMOOTH",
"62 417 OFFCURVE",
"65 375 OFFCURVE",
"77 334 CURVE",
"153 419 LINE",
"141 449 OFFCURVE",
"136 481 OFFCURVE",
"139 514 CURVE SMOOTH",
"145 609 OFFCURVE",
"204 657 OFFCURVE",
"320 657 CURVE SMOOTH",
"358 657 OFFCURVE",
"398 653 OFFCURVE",
"436 645 CURVE",
"398 621 OFFCURVE",
"373 594 OFFCURVE",
"349 558 CURVE SMOOTH",
"322 518 OFFCURVE",
"293 453 OFFCURVE",
"253 332 CURVE SMOOTH",
"224 254 OFFCURVE",
"193 183 OFFCURVE",
"178 151 CURVE",
"162 122 OFFCURVE",
"129 77 OFFCURVE",
"82 58 CURVE",
"58 51 LINE",
"45 43 OFFCURVE",
"21 0 OFFCURVE",
"34 0 CURVE",
"31 0 OFFCURVE",
"84 18 OFFCURVE",
"85 18 CURVE",
"102 17 OFFCURVE",
"131 9 OFFCURVE",
"146 4 CURVE SMOOTH",
"152 3 OFFCURVE",
"156 1 OFFCURVE",
"159 1 CURVE",
"172 -3 OFFCURVE",
"197 4 OFFCURVE",
"231 43 CURVE",
"260 71 OFFCURVE",
"236 77 OFFCURVE",
"224 68 CURVE",
"217 64 OFFCURVE",
"203 60 OFFCURVE",
"199 60 CURVE SMOOTH",
"187 60 OFFCURVE",
"173 62 OFFCURVE",
"156 67 CURVE",
"185 91 LINE",
"220 125 OFFCURVE",
"256 183 OFFCURVE",
"280 247 CURVE",
"459 247 LINE",
"463 251 OFFCURVE",
"473 258 OFFCURVE",
"480 263 CURVE",
"463 165 LINE SMOOTH",
"452 87 OFFCURVE",
"439 71 OFFCURVE",
"408 50 CURVE",
"398 40 OFFCURVE",
"376 0 OFFCURVE",
"389 0 CURVE SMOOTH",
"402 0 OFFCURVE",
"430 11 OFFCURVE",
"440 16 CURVE",
"447 16 OFFCURVE",
"534 1 OFFCURVE",
"548 1 CURVE",
"561 0 OFFCURVE",
"596 -1 OFFCURVE",
"629 -1 CURVE SMOOTH",
"652 -1 OFFCURVE",
"672 0 OFFCURVE",
"682 0 CURVE",
"700 1 OFFCURVE",
"747 30 OFFCURVE",
"774 60 CURVE",
"797 87 OFFCURVE",
"778 92 OFFCURVE",
"768 87 CURVE",
"761 84 OFFCURVE",
"713 67 OFFCURVE",
"699 67 CURVE",
"672 65 OFFCURVE",
"649 64 OFFCURVE",
"628 64 CURVE SMOOTH",
"559 64 OFFCURVE",
"527 71 OFFCURVE",
"511 75 CURVE",
"514 80 LINE",
"518 84 OFFCURVE",
"525 97 OFFCURVE",
"527 109 CURVE",
"568 338 LINE",
"595 337 OFFCURVE",
"621 338 OFFCURVE",
"645 334 CURVE SMOOTH",
"655 332 OFFCURVE",
"663 331 OFFCURVE",
"673 331 CURVE SMOOTH",
"706 331 OFFCURVE",
"743 358 OFFCURVE",
"782 413 CURVE",
"736 406 OFFCURVE",
"690 402 OFFCURVE",
"650 402 CURVE SMOOTH",
"579 402 LINE",
"615 632 LINE",
"794 626 LINE SMOOTH",
"829 625 OFFCURVE",
"861 657 OFFCURVE",
"879 680 CURVE",
"890 693 OFFCURVE",
"892 711 OFFCURVE",
"879 707 CURVE"
);
},
{
closed = 1;
nodes = (
"302 311 LINE",
"312 332 LINE",
"351 442 OFFCURVE",
"403 578 OFFCURVE",
"497 635 CURVE",
"538 632 LINE",
"527 552 OFFCURVE",
"514 466 OFFCURVE",
"487 311 CURVE"
);
}
);
width = 843;
}
);
note = AE;
unicode = 00C6;
},
{
color = 0;
glyphname = Eth;
lastChange = "2018-02-09 16:29:38 +0000";
layers = (
{
layerId = "0B1DFD06-3317-40CA-B510-4969A0718C16";
paths = (
{
closed = 1;
nodes = (
"291 714 OFFCURVE",
"199 687 OFFCURVE",
"133 635 CURVE",
"135 635 LINE",
"68 581 OFFCURVE",
"31 504 OFFCURVE",
"24 405 CURVE",
"20 375 OFFCURVE",
"24 342 OFFCURVE",
"30 318 CURVE",
"108 406 LINE",
"98 436 OFFCURVE",
"95 464 OFFCURVE",
"98 491 CURVE",
"102 567 OFFCURVE",
"163 636 OFFCURVE",
"288 655 CURVE",
"281 645 OFFCURVE",
"278 636 OFFCURVE",
"277 628 CURVE SMOOTH",
"266 555 OFFCURVE",
"249 463 OFFCURVE",
"233 372 CURVE",
"138 372 LINE",
"94 331 LINE",
"226 331 LINE",
"192 135 LINE",
"182 88 OFFCURVE",
"166 67 OFFCURVE",
"139 50 CURVE",
"125 43 OFFCURVE",
"109 -1 OFFCURVE",
"118 -1 CURVE SMOOTH",
"129 -1 OFFCURVE",
"159 10 OFFCURVE",
"169 14 CURVE",
"173 14 OFFCURVE",
"266 0 OFFCURVE",
"280 0 CURVE SMOOTH",
"328 0 LINE SMOOTH",
"439 0 OFFCURVE",
"535 102 OFFCURVE",
"581 168 CURVE SMOOTH",
"635 244 OFFCURVE",
"663 361 OFFCURVE",
"670 459 CURVE SMOOTH",
"677 611 OFFCURVE",
"606 714 OFFCURVE",
"409 714 CURVE SMOOTH"
);
},
{
closed = 1;
nodes = (
"497 138 OFFCURVE",
"426 61 OFFCURVE",
"339 61 CURVE",
"304 60 OFFCURVE",
"267 64 OFFCURVE",
"240 70 CURVE",
"246 80 OFFCURVE",
"253 91 OFFCURVE",
"257 104 CURVE",
"297 331 LINE",
"396 331 LINE",
"440 372 LINE",
"304 372 LINE",
"351 632 LINE",
"351 633 OFFCURVE",
"351 636 OFFCURVE",
"352 640 CURVE",
"354 646 OFFCURVE",
"354 650 OFFCURVE",
"358 660 CURVE",
"359 660 LINE SMOOTH",
"506 660 OFFCURVE",
"578 581 OFFCURVE",
"578 440 CURVE SMOOTH",
"578 351 OFFCURVE",
"557 258 OFFCURVE",
"524 183 CURVE"
);
}
);
width = 710;
},
{
layerId = "98164D6F-6418-4A81-93B1-33F1F3344547";
paths = (
{
closed = 1;
nodes = (
"291 714 OFFCURVE",
"199 687 OFFCURVE",
"133 635 CURVE",
"135 635 LINE",
"68 581 OFFCURVE",
"31 504 OFFCURVE",
"24 405 CURVE",
"20 375 OFFCURVE",
"24 342 OFFCURVE",
"30 318 CURVE",
"108 406 LINE",
"98 436 OFFCURVE",
"95 464 OFFCURVE",
"98 491 CURVE",
"102 567 OFFCURVE",
"163 636 OFFCURVE",
"288 655 CURVE",
"281 645 OFFCURVE",
"278 636 OFFCURVE",
"277 628 CURVE SMOOTH",
"266 555 OFFCURVE",
"249 463 OFFCURVE",
"233 372 CURVE",
"138 372 LINE",
"94 331 LINE",
"226 331 LINE",
"192 135 LINE",
"182 88 OFFCURVE",
"166 67 OFFCURVE",
"139 50 CURVE",
"125 43 OFFCURVE",
"109 -1 OFFCURVE",
"118 -1 CURVE SMOOTH",
"129 -1 OFFCURVE",
"159 10 OFFCURVE",
"169 14 CURVE",
"173 14 OFFCURVE",
"266 0 OFFCURVE",
"280 0 CURVE SMOOTH",
"328 0 LINE SMOOTH",
"439 0 OFFCURVE",
"535 102 OFFCURVE",
"581 168 CURVE SMOOTH",
"635 244 OFFCURVE",
"663 361 OFFCURVE",
"670 459 CURVE SMOOTH",
"677 611 OFFCURVE",
"606 714 OFFCURVE",
"409 714 CURVE SMOOTH"
);
},
{
closed = 1;
nodes = (
"497 138 OFFCURVE",
"426 61 OFFCURVE",
"339 61 CURVE",
"304 60 OFFCURVE",
"267 64 OFFCURVE",
"240 70 CURVE",
"246 80 OFFCURVE",
"253 91 OFFCURVE",
"257 104 CURVE",
"297 331 LINE",
"396 331 LINE",
"440 372 LINE",
"304 372 LINE",
"351 632 LINE",
"351 633 OFFCURVE",
"351 636 OFFCURVE",
"352 640 CURVE",
"354 646 OFFCURVE",
"354 650 OFFCURVE",
"358 660 CURVE",
"359 660 LINE SMOOTH",
"506 660 OFFCURVE",
"578 581 OFFCURVE",
"578 440 CURVE SMOOTH",
"578 351 OFFCURVE",
"557 258 OFFCURVE",
"524 183 CURVE"
);
}
);
width = 710;
}
);
note = Eth;
unicode = 00D0;
},
{
color = 0;
glyphname = Dcroat;
lastChange = "2018-02-09 16:29:38 +0000";
layers = (
{
layerId = "0B1DFD06-3317-40CA-B510-4969A0718C16";
paths = (
{
closed = 1;
nodes = (
"328 667 LINE SMOOTH",
"435 667 OFFCURVE",
"508 648 OFFCURVE",
"552 609 CURVE SMOOTH",
"595 569 OFFCURVE",
"613 504 OFFCURVE",
"606 415 CURVE SMOOTH",
"599 307 OFFCURVE",
"568 236 OFFCURVE",
"513 169 CURVE SMOOTH",
"457 102 OFFCURVE",
"399 78 OFFCURVE",
"302 62 CURVE",
"284 58 OFFCURVE",
"267 61 OFFCURVE",
"250 61 CURVE SMOOTH",
"192 61 LINE",
"175 62 OFFCURVE",
"162 62 OFFCURVE",
"152 62 CURVE",
"176 72 LINE",
"204 82 OFFCURVE",
"212 88 OFFCURVE",
"216 124 CURVE",
"222 151 LINE",
"254 342 LINE",
"359 342 LINE",
"415 383 LINE",
"260 383 LINE",
"307 667 LINE"
);
},
{
closed = 1;
nodes = (
"156 173 LINE",
"146 121 OFFCURVE",
"135 84 OFFCURVE",
"125 62 CURVE",
"112 62 LINE",
"77 64 LINE",
"23 10 LINE",
"57 9 LINE",
"101 7 LINE",
"146 4 LINE",
"244 3 LINE SMOOTH",
"359 3 OFFCURVE",
"460 48 OFFCURVE",
"547 138 CURVE SMOOTH",
"635 230 OFFCURVE",
"683 339 OFFCURVE",
"692 466 CURVE SMOOTH",
"696 550 OFFCURVE",
"677 612 OFFCURVE",
"633 656 CURVE SMOOTH",
"609 679 OFFCURVE",
"584 694 OFFCURVE",
"554 701 CURVE",
"524 710 OFFCURVE",
"474 714 OFFCURVE",
"405 714 CURVE SMOOTH",
"197 714 LINE",
"155 667 LINE",
"236 667 LINE",
"189 383 LINE",
"107 383 LINE",
"53 342 LINE",
"182 342 LINE"
);
}
);
width = 731;
},
{
layerId = "98164D6F-6418-4A81-93B1-33F1F3344547";
paths = (
{
closed = 1;
nodes = (
"328 667 LINE SMOOTH",
"435 667 OFFCURVE",
"508 648 OFFCURVE",
"552 609 CURVE SMOOTH",
"595 569 OFFCURVE",
"613 504 OFFCURVE",
"606 415 CURVE SMOOTH",
"599 307 OFFCURVE",
"568 236 OFFCURVE",
"513 169 CURVE SMOOTH",
"457 102 OFFCURVE",
"399 78 OFFCURVE",
"302 62 CURVE",
"284 58 OFFCURVE",
"267 61 OFFCURVE",
"250 61 CURVE SMOOTH",
"192 61 LINE",
"175 62 OFFCURVE",
"162 62 OFFCURVE",
"152 62 CURVE",
"176 72 LINE",
"204 82 OFFCURVE",
"212 88 OFFCURVE",
"216 124 CURVE",
"222 151 LINE",
"254 342 LINE",
"359 342 LINE",
"415 383 LINE",
"260 383 LINE",
"307 667 LINE"
);
},
{
closed = 1;
nodes = (
"156 173 LINE",
"146 121 OFFCURVE",
"135 84 OFFCURVE",
"125 62 CURVE",
"112 62 LINE",
"77 64 LINE",
"23 10 LINE",
"57 9 LINE",
"101 7 LINE",
"146 4 LINE",
"244 3 LINE SMOOTH",
"359 3 OFFCURVE",
"460 48 OFFCURVE",
"547 138 CURVE SMOOTH",
"635 230 OFFCURVE",
"683 339 OFFCURVE",
"692 466 CURVE SMOOTH",
"696 550 OFFCURVE",
"677 612 OFFCURVE",
"633 656 CURVE SMOOTH",
"609 679 OFFCURVE",
"584 694 OFFCURVE",
"554 701 CURVE",
"524 710 OFFCURVE",
"474 714 OFFCURVE",
"405 714 CURVE SMOOTH",
"197 714 LINE",
"155 667 LINE",
"236 667 LINE",
"189 383 LINE",
"107 383 LINE",
"53 342 LINE",
"182 342 LINE"
);
}
);
width = 731;
}
);
note = Dcroat;
unicode = 0110;
},
{
color = 0;
glyphname = Eacute;
lastChange = "2018-02-09 16:29:38 +0000";
layers = (
{
background = {
paths = (
{
closed = 1;
nodes = (
"554 0 LINE",
"571 179 LINE",
"544 179 LINE",
"538 124 OFFCURVE",
"520 40 OFFCURVE",
"456 40 CURVE SMOOTH",
"201 40 LINE",
"201 659 LINE",
"441 659 LINE SMOOTH",
"516 659 OFFCURVE",
"525 567 OFFCURVE",
"528 527 CURVE",
"555 527 LINE",
"555 700 LINE",
"16 700 LINE",
"16 673 LINE",
"44 673 LINE SMOOTH",
"83 673 OFFCURVE",
"103 662 OFFCURVE",
"103 637 CURVE SMOOTH",
"103 62 LINE SMOOTH",
"103 37 OFFCURVE",
"83 26 OFFCURVE",
"44 26 CURVE SMOOTH",
"16 26 LINE",
"16 0 LINE"
);
},
{
closed = 1;
nodes = (
"455 251 LINE",
"455 485 LINE",
"431 485 LINE",
"427 436 OFFCURVE",
"424 388 OFFCURVE",
"379 388 CURVE SMOOTH",
"162 388 LINE",
"162 348 LINE",
"379 348 LINE SMOOTH",
"424 348 OFFCURVE",
"427 300 OFFCURVE",
"431 251 CURVE"
);
},
{
closed = 1;
nodes = (
"398 865 LINE SMOOTH",
"420 877 OFFCURVE",
"432 890 OFFCURVE",
"432 907 CURVE SMOOTH",
"432 922 OFFCURVE",
"420 937 OFFCURVE",
"398 937 CURVE SMOOTH",
"377 937 OFFCURVE",
"362 921 OFFCURVE",
"354 914 CURVE SMOOTH",
"239 807 LINE",
"256 782 LINE"
);
}
);
};
components = (
{
name = E;
},
{
name = acute;
transform = "{1, 0, 0, 1, 56, 230}";
}
);
layerId = "0B1DFD06-3317-40CA-B510-4969A0718C16";
width = 607;
},
{
background = {
paths = (
{
closed = 1;
nodes = (
"554 0 LINE",
"571 179 LINE",
"544 179 LINE",
"538 124 OFFCURVE",
"520 40 OFFCURVE",
"456 40 CURVE SMOOTH",
"201 40 LINE",
"201 659 LINE",
"441 659 LINE SMOOTH",
"516 659 OFFCURVE",
"525 567 OFFCURVE",
"528 527 CURVE",
"555 527 LINE",
"555 700 LINE",
"16 700 LINE",
"16 673 LINE",
"44 673 LINE SMOOTH",
"83 673 OFFCURVE",
"103 662 OFFCURVE",
"103 637 CURVE SMOOTH",
"103 62 LINE SMOOTH",
"103 37 OFFCURVE",
"83 26 OFFCURVE",
"44 26 CURVE SMOOTH",
"16 26 LINE",
"16 0 LINE"
);
},
{
closed = 1;
nodes = (
"455 251 LINE",
"455 485 LINE",
"431 485 LINE",
"427 436 OFFCURVE",
"424 388 OFFCURVE",
"379 388 CURVE SMOOTH",
"162 388 LINE",
"162 348 LINE",
"379 348 LINE SMOOTH",
"424 348 OFFCURVE",
"427 300 OFFCURVE",
"431 251 CURVE"
);
},
{
closed = 1;
nodes = (
"398 865 LINE SMOOTH",
"420 877 OFFCURVE",
"432 890 OFFCURVE",
"432 907 CURVE SMOOTH",
"432 922 OFFCURVE",
"420 937 OFFCURVE",
"398 937 CURVE SMOOTH",
"377 937 OFFCURVE",
"362 921 OFFCURVE",
"354 914 CURVE SMOOTH",
"239 807 LINE",
"256 782 LINE"
);
}
);
};
components = (
{
name = E;
},
{
name = acute;
transform = "{1, 0, 0, 1, 56, 230}";
}
);
layerId = "98164D6F-6418-4A81-93B1-33F1F3344547";
width = 607;
}
);
note = Eacute;
unicode = 00C9;
},
{
color = 0;
glyphname = Ebreve;
lastChange = "2018-02-09 16:29:38 +0000";
layers = (
{
background = {
paths = (
{
closed = 1;
nodes = (
"554 0 LINE",
"571 179 LINE",
"544 179 LINE",
"538 124 OFFCURVE",
"520 40 OFFCURVE",
"456 40 CURVE SMOOTH",
"201 40 LINE",
"201 659 LINE",
"441 659 LINE SMOOTH",
"516 659 OFFCURVE",
"525 567 OFFCURVE",
"528 527 CURVE",
"555 527 LINE",
"555 700 LINE",
"16 700 LINE",
"16 673 LINE",
"44 673 LINE SMOOTH",
"83 673 OFFCURVE",
"103 662 OFFCURVE",
"103 637 CURVE SMOOTH",
"103 62 LINE SMOOTH",
"103 37 OFFCURVE",
"83 26 OFFCURVE",
"44 26 CURVE SMOOTH",
"16 26 LINE",
"16 0 LINE"
);
},
{
closed = 1;
nodes = (
"455 251 LINE",
"455 485 LINE",
"431 485 LINE",
"427 436 OFFCURVE",
"424 388 OFFCURVE",
"379 388 CURVE SMOOTH",
"162 388 LINE",
"162 348 LINE",
"379 348 LINE SMOOTH",
"424 348 OFFCURVE",
"427 300 OFFCURVE",
"431 251 CURVE"
);
},
{
closed = 1;
nodes = (
"432 776 OFFCURVE",
"474 832 OFFCURVE",
"478 907 CURVE",
"445 907 LINE",
"439 848 OFFCURVE",
"397 822 OFFCURVE",
"333 822 CURVE SMOOTH",
"269 822 OFFCURVE",
"226 848 OFFCURVE",
"219 907 CURVE",
"186 907 LINE",
"190 829 OFFCURVE",
"232 776 OFFCURVE",
"333 776 CURVE SMOOTH"
);
}
);
};
components = (
{
name = E;
},
{
name = breve;
transform = "{1, 0, 0, 1, 68, 230}";
}
);
layerId = "0B1DFD06-3317-40CA-B510-4969A0718C16";
width = 607;
},
{
background = {
paths = (
{
closed = 1;
nodes = (
"554 0 LINE",
"571 179 LINE",
"544 179 LINE",
"538 124 OFFCURVE",
"520 40 OFFCURVE",
"456 40 CURVE SMOOTH",
"201 40 LINE",
"201 659 LINE",
"441 659 LINE SMOOTH",
"516 659 OFFCURVE",
"525 567 OFFCURVE",
"528 527 CURVE",
"555 527 LINE",
"555 700 LINE",
"16 700 LINE",
"16 673 LINE",
"44 673 LINE SMOOTH",
"83 673 OFFCURVE",
"103 662 OFFCURVE",
"103 637 CURVE SMOOTH",
"103 62 LINE SMOOTH",
"103 37 OFFCURVE",
"83 26 OFFCURVE",
"44 26 CURVE SMOOTH",
"16 26 LINE",
"16 0 LINE"
);
},
{
closed = 1;
nodes = (
"455 251 LINE",
"455 485 LINE",
"431 485 LINE",
"427 436 OFFCURVE",
"424 388 OFFCURVE",
"379 388 CURVE SMOOTH",
"162 388 LINE",
"162 348 LINE",
"379 348 LINE SMOOTH",
"424 348 OFFCURVE",
"427 300 OFFCURVE",
"431 251 CURVE"
);
},
{
closed = 1;
nodes = (
"432 776 OFFCURVE",
"474 832 OFFCURVE",
"478 907 CURVE",
"445 907 LINE",
"439 848 OFFCURVE",
"397 822 OFFCURVE",
"333 822 CURVE SMOOTH",
"269 822 OFFCURVE",
"226 848 OFFCURVE",
"219 907 CURVE",
"186 907 LINE",
"190 829 OFFCURVE",
"232 776 OFFCURVE",
"333 776 CURVE SMOOTH"
);
}
);
};
components = (
{
name = E;
},
{
name = breve;
transform = "{1, 0, 0, 1, 68, 230}";
}
);
layerId = "98164D6F-6418-4A81-93B1-33F1F3344547";
width = 607;
}
);
note = Ebreve;
unicode = 0114;
},
{
color = 0;
glyphname = Ecaron;
lastChange = "2018-02-09 16:29:38 +0000";
layers = (
{
background = {
paths = (
{
closed = 1;
nodes = (
"554 0 LINE",
"571 179 LINE",
"544 179 LINE",
"538 124 OFFCURVE",
"520 40 OFFCURVE",
"456 40 CURVE SMOOTH",
"201 40 LINE",
"201 659 LINE",
"441 659 LINE SMOOTH",
"516 659 OFFCURVE",
"525 567 OFFCURVE",
"528 527 CURVE",
"555 527 LINE",
"555 700 LINE",
"16 700 LINE",
"16 673 LINE",
"44 673 LINE SMOOTH",
"83 673 OFFCURVE",
"103 662 OFFCURVE",
"103 637 CURVE SMOOTH",
"103 62 LINE SMOOTH",
"103 37 OFFCURVE",
"83 26 OFFCURVE",
"44 26 CURVE SMOOTH",
"16 26 LINE",
"16 0 LINE"
);
},
{
closed = 1;
nodes = (
"455 251 LINE",
"455 485 LINE",
"431 485 LINE",
"427 436 OFFCURVE",
"424 388 OFFCURVE",
"379 388 CURVE SMOOTH",
"162 388 LINE",
"162 348 LINE",
"379 348 LINE SMOOTH",
"424 348 OFFCURVE",
"427 300 OFFCURVE",
"431 251 CURVE"
);
},
{
closed = 1;
nodes = (
"357 782 LINE",
"481 911 LINE",
"462 932 LINE",
"354 847 LINE",
"346 840 OFFCURVE",
"337 836 OFFCURVE",
"331 836 CURVE SMOOTH",
"325 836 OFFCURVE",
"317 840 OFFCURVE",
"307 847 CURVE",
"199 932 LINE",
"180 911 LINE",
"304 782 LINE"
);
}
);
};
components = (
{
name = E;
},
{
name = caron;
transform = "{1, 0, 0, 1, 68, 230}";
}
);
layerId = "0B1DFD06-3317-40CA-B510-4969A0718C16";
width = 607;
},
{
background = {
paths = (
{
closed = 1;
nodes = (
"554 0 LINE",
"571 179 LINE",
"544 179 LINE",
"538 124 OFFCURVE",
"520 40 OFFCURVE",
"456 40 CURVE SMOOTH",
"201 40 LINE",
"201 659 LINE",
"441 659 LINE SMOOTH",
"516 659 OFFCURVE",
"525 567 OFFCURVE",
"528 527 CURVE",
"555 527 LINE",
"555 700 LINE",
"16 700 LINE",
"16 673 LINE",
"44 673 LINE SMOOTH",
"83 673 OFFCURVE",
"103 662 OFFCURVE",
"103 637 CURVE SMOOTH",
"103 62 LINE SMOOTH",
"103 37 OFFCURVE",
"83 26 OFFCURVE",
"44 26 CURVE SMOOTH",
"16 26 LINE",
"16 0 LINE"
);
},
{
closed = 1;
nodes = (
"455 251 LINE",
"455 485 LINE",
"431 485 LINE",
"427 436 OFFCURVE",
"424 388 OFFCURVE",
"379 388 CURVE SMOOTH",
"162 388 LINE",
"162 348 LINE",
"379 348 LINE SMOOTH",
"424 348 OFFCURVE",
"427 300 OFFCURVE",
"431 251 CURVE"
);
},
{
closed = 1;
nodes = (
"357 782 LINE",
"481 911 LINE",
"462 932 LINE",
"354 847 LINE",
"346 840 OFFCURVE",
"337 836 OFFCURVE",
"331 836 CURVE SMOOTH",
"325 836 OFFCURVE",
"317 840 OFFCURVE",
"307 847 CURVE",
"199 932 LINE",
"180 911 LINE",
"304 782 LINE"
);
}
);
};
components = (
{
name = E;
},
{
name = caron;
transform = "{1, 0, 0, 1, 68, 230}";
}
);
layerId = "98164D6F-6418-4A81-93B1-33F1F3344547";
width = 607;
}
);
note = Ecaron;
unicode = 011A;
},
{
color = 0;
glyphname = Ecircumflex;
lastChange = "2018-02-09 16:29:38 +0000";
layers = (
{
background = {
paths = (
{
closed = 1;
nodes = (
"554 0 LINE",
"571 179 LINE",
"544 179 LINE",
"538 124 OFFCURVE",
"520 40 OFFCURVE",
"456 40 CURVE SMOOTH",
"201 40 LINE",
"201 659 LINE",
"441 659 LINE SMOOTH",
"516 659 OFFCURVE",
"525 567 OFFCURVE",
"528 527 CURVE",
"555 527 LINE",
"555 700 LINE",
"16 700 LINE",
"16 673 LINE",
"44 673 LINE SMOOTH",
"83 673 OFFCURVE",
"103 662 OFFCURVE",
"103 637 CURVE SMOOTH",
"103 62 LINE SMOOTH",
"103 37 OFFCURVE",
"83 26 OFFCURVE",
"44 26 CURVE SMOOTH",
"16 26 LINE",
"16 0 LINE"
);
},
{
closed = 1;
nodes = (
"455 251 LINE",
"455 485 LINE",
"431 485 LINE",
"427 436 OFFCURVE",
"424 388 OFFCURVE",
"379 388 CURVE SMOOTH",
"162 388 LINE",
"162 348 LINE",
"379 348 LINE SMOOTH",
"424 348 OFFCURVE",
"427 300 OFFCURVE",
"431 251 CURVE"
);
},
{
closed = 1;
nodes = (
"304 868 LINE SMOOTH",
"312 874 OFFCURVE",
"322 879 OFFCURVE",
"328 879 CURVE SMOOTH",
"334 879 OFFCURVE",
"342 874 OFFCURVE",
"351 868 CURVE",
"459 782 LINE",
"478 803 LINE",
"354 932 LINE",
"301 932 LINE",
"177 803 LINE",
"196 782 LINE"
);
}
);
};
components = (
{
name = E;
},
{
name = circumflex;
transform = "{1, 0, 0, 1, 68, 230}";
}
);
layerId = "0B1DFD06-3317-40CA-B510-4969A0718C16";
width = 607;
},
{
background = {
paths = (
{
closed = 1;
nodes = (
"554 0 LINE",
"571 179 LINE",
"544 179 LINE",
"538 124 OFFCURVE",
"520 40 OFFCURVE",
"456 40 CURVE SMOOTH",
"201 40 LINE",
"201 659 LINE",
"441 659 LINE SMOOTH",
"516 659 OFFCURVE",
"525 567 OFFCURVE",
"528 527 CURVE",
"555 527 LINE",
"555 700 LINE",
"16 700 LINE",
"16 673 LINE",
"44 673 LINE SMOOTH",
"83 673 OFFCURVE",
"103 662 OFFCURVE",
"103 637 CURVE SMOOTH",
"103 62 LINE SMOOTH",
"103 37 OFFCURVE",
"83 26 OFFCURVE",
"44 26 CURVE SMOOTH",
"16 26 LINE",
"16 0 LINE"
);
},
{
closed = 1;
nodes = (
"455 251 LINE",
"455 485 LINE",
"431 485 LINE",
"427 436 OFFCURVE",
"424 388 OFFCURVE",
"379 388 CURVE SMOOTH",
"162 388 LINE",
"162 348 LINE",
"379 348 LINE SMOOTH",
"424 348 OFFCURVE",
"427 300 OFFCURVE",
"431 251 CURVE"
);
},
{
closed = 1;
nodes = (
"304 868 LINE SMOOTH",
"312 874 OFFCURVE",
"322 879 OFFCURVE",
"328 879 CURVE SMOOTH",
"334 879 OFFCURVE",
"342 874 OFFCURVE",
"351 868 CURVE",
"459 782 LINE",
"478 803 LINE",
"354 932 LINE",
"301 932 LINE",
"177 803 LINE",
"196 782 LINE"
);
}
);
};
components = (
{
name = E;
},
{
name = circumflex;
transform = "{1, 0, 0, 1, 68, 230}";
}
);
layerId = "98164D6F-6418-4A81-93B1-33F1F3344547";
width = 607;
}
);
note = Ecircumflex;
unicode = 00CA;
},
